<svg xmlns="http://www.w3.org/2000/svg" xmlns:xlink="http://www.w3.org/1999/xlink" width="128" height="128" viewBox="0 0 128 128">
  <defs>
    <filter id="Trazado_822180" x="0" y="0" width="128" height="128" filterUnits="userSpaceOnUse">
      <feOffset dy="3" input="SourceAlpha"/>
      <feGaussianBlur stdDeviation="7" result="blur"/>
      <feFlood flood-color="#fff" flood-opacity="0.659"/>
      <feComposite operator="in" in2="blur"/>
      <feComposite in="SourceGraphic"/>
    </filter>
  </defs>
  <g id="Grupo_1079189" data-name="Grupo 1079189" transform="translate(-602 -1588)">
    <g transform="matrix(1, 0, 0, 1, 602, 1588)" filter="url(#Trazado_822180)">
      <path id="Trazado_822180-2" data-name="Trazado 822180" d="M43,0A43,43,0,1,1,0,43,43,43,0,0,1,43,0Z" transform="translate(21 18)" fill="#ffce00"/>
    </g>
    <g id="supermarket" transform="translate(642.828 1624.798)">
      <g id="Grupo_1079178" data-name="Grupo 1079178" transform="translate(0 0)">
        <g id="Grupo_1079177" data-name="Grupo 1079177">
          <path id="Trazado_835947" data-name="Trazado 835947" d="M60.022,6.87V4.94A4.946,4.946,0,0,0,55.082,0H41.343A4.907,4.907,0,0,0,37.85,1.447L18.419,20.878a4.94,4.94,0,0,0,0,6.986l1.974,1.974a4.978,4.978,0,0,0-.128,1.119,4.907,4.907,0,0,0,1.447,3.493L35.451,48.189a4.946,4.946,0,0,0,6.986,0L61.868,28.758a4.908,4.908,0,0,0,1.447-3.493V11.527A4.948,4.948,0,0,0,60.022,6.87ZM20.748,25.535a1.647,1.647,0,0,1,0-2.329L40.178,3.776a1.637,1.637,0,0,1,1.164-.482H55.082A1.649,1.649,0,0,1,56.728,4.94V6.587H44.636a4.907,4.907,0,0,0-3.493,1.447L22.195,26.982Zm38.792.894L40.109,45.86a1.648,1.648,0,0,1-2.329,0L24.041,32.122a1.647,1.647,0,0,1,0-2.329L43.472,10.362a1.637,1.637,0,0,1,1.164-.482H58.375a1.649,1.649,0,0,1,1.647,1.647V25.265h0A1.636,1.636,0,0,1,59.539,26.429Z" transform="translate(-16.972)" fill="#273a89"/>
        </g>
      </g>
      <g id="Grupo_1079180" data-name="Grupo 1079180" transform="translate(29.876 13.173)">
        <g id="Grupo_1079179" data-name="Grupo 1079179">
          <path id="Trazado_835948" data-name="Trazado 835948" d="M330.1,135.891a4.94,4.94,0,1,0,4.94,4.94A4.946,4.946,0,0,0,330.1,135.891Zm0,6.587a1.647,1.647,0,1,1,1.647-1.647A1.649,1.649,0,0,1,330.1,142.478Z" transform="translate(-325.165 -135.891)" fill="#273a89"/>
        </g>
      </g>
    </g>
  </g>
</svg>
