<svg id="Grupo_1080035" data-name="Grupo 1080035" xmlns="http://www.w3.org/2000/svg" width="76.723" height="22.22" viewBox="0 0 76.723 22.22">
  <g id="Grupo_1072927" data-name="Grupo 1072927">
    <path id="Trazado_818457" data-name="Trazado 818457" d="M76.723,9.7,75.439,10.98a8.789,8.789,0,0,1-12.43,0l-.773-.773a8.792,8.792,0,0,0-12.43,0,8.789,8.789,0,0,1-12.43,0l-.07-.07a8.792,8.792,0,0,0-12.43,0l-.632.632a8.789,8.789,0,0,1-12.43,0l-.49-.492A8.787,8.787,0,0,0,0,9.351v3.872a8.785,8.785,0,0,1,11.324.925l.49.492a8.789,8.789,0,0,0,12.43,0l.632-.632a8.789,8.789,0,0,1,12.43,0l.07.07a8.789,8.789,0,0,0,12.43,0,8.789,8.789,0,0,1,12.43,0l.773.773a8.789,8.789,0,0,0,12.43,0l1.284-1.284Z" transform="translate(0 4.795)" fill="#ffce00"/>
    <path id="Trazado_818458" data-name="Trazado 818458" d="M76.723,2.133,75.439,3.417a8.789,8.789,0,0,1-12.43,0l-.773-.773a8.789,8.789,0,0,0-12.43,0,8.789,8.789,0,0,1-12.43,0l-.07-.07a8.789,8.789,0,0,0-12.43,0l-.632.632a8.789,8.789,0,0,1-12.43,0l-.49-.492A8.787,8.787,0,0,0,0,1.788v3.87a8.787,8.787,0,0,1,11.324.926l.49.492a8.789,8.789,0,0,0,12.43,0l.632-.632a8.789,8.789,0,0,1,12.43,0l.07.07a8.789,8.789,0,0,0,12.43,0,8.789,8.789,0,0,1,12.43,0l.773.773a8.789,8.789,0,0,0,12.43,0L76.723,6Z" transform="translate(0 0.001)" fill="#ffce00"/>
  </g>
</svg>
