<svg xmlns="http://www.w3.org/2000/svg" xmlns:xlink="http://www.w3.org/1999/xlink" width="450" height="450" viewBox="0 0 450 450">
  <defs>
    <clipPath id="clip-path">
      <rect id="Rectángulo_386345" data-name="Rectángulo 386345" width="381.936" height="381.237" fill="none"/>
    </clipPath>
    <clipPath id="clip-path-3">
      <rect id="Rectángulo_386335" data-name="Rectángulo 386335" width="130.991" height="59.882" fill="none"/>
    </clipPath>
    <clipPath id="clip-path-5">
      <rect id="Rectángulo_386337" data-name="Rectángulo 386337" width="23.238" height="59.881" fill="none"/>
    </clipPath>
    <clipPath id="clip-path-6">
      <rect id="Rectángulo_386343" data-name="Rectángulo 386343" width="94.183" height="123.395" fill="none"/>
    </clipPath>
  </defs>
  <g id="Grupo_1079902" data-name="Grupo 1079902" transform="translate(-1264 7071)">
    <path id="Trazado_1383" data-name="Trazado 1383" d="M335.548,98.153c9.239-83.721-72.342-112.807-130.177-91.371C147.067,28.392,133.55-7.43,51.565,2.805-31.449,13.169,10.7,142.817,10.7,142.817s13.209,112.737,28.858,164.7C55.121,359.2,204.1,340.505,240.345,338.963c36.034-1.534,67.345,1.426,98.7-55.323C370.335,226.994,326.339,181.6,335.548,98.153Z" transform="translate(1317.245 -6687.874) rotate(-90)" fill="#f4f7fa"/>
    <g id="Grupo_1079901" data-name="Grupo 1079901" transform="translate(1280.2 -7010.7)">
      <g id="Grupo_1079900" data-name="Grupo 1079900" clip-path="url(#clip-path)">
        <rect id="Rectángulo_386315" data-name="Rectángulo 386315" width="31.642" height="10.071" transform="translate(22.128 302.73)" fill="#ebebeb"/>
        <rect id="Rectángulo_386316" data-name="Rectángulo 386316" width="31.642" height="10.071" transform="translate(41.134 185.269)" fill="#ebebeb"/>
        <g id="Grupo_1079899" data-name="Grupo 1079899">
          <g id="Grupo_1079898" data-name="Grupo 1079898" clip-path="url(#clip-path)">
            <path id="Trazado_840242" data-name="Trazado 840242" d="M36.567,360.5c-5.272.09-18.565.315-23.66.372l-7.981.039-.409,0,0-.412-.04-10.071,0-.451.452,0,15.82.061c3.939.035,11.882.119,15.821.175l.218,0,0,.211Zm0,0-.213-10.071.213.214c-3.947.056-11.875.139-15.821.175l-15.82.061.449-.45L5.335,360.5l-.41-.41,7.839.039c5.016.058,18.615.283,23.8.372" transform="translate(-0.447 -34.998)" fill="#ebebeb"/>
            <path id="Trazado_840243" data-name="Trazado 840243" d="M235.5,162.3c-5.272.09-18.565.315-23.66.372l-7.982.039-.409,0V162.3l-.04-10.071,0-.451.451,0,15.821.061c3.939.035,11.882.119,15.821.175l.218,0,0,.211Zm0,0-.213-10.071.213.214c-3.947.056-11.875.139-15.821.175l-15.821.061.45-.45-.04,10.071-.41-.41,7.84.039c5.015.058,18.615.283,23.8.372" transform="translate(-20.34 -15.177)" fill="#ebebeb"/>
            <path id="Trazado_840244" data-name="Trazado 840244" d="M215.884,176.407c-5.272.09-18.565.315-23.66.372l-7.981.039-.409,0,0-.412-.04-10.071,0-.451.452,0,15.82.061c3.939.035,11.882.119,15.821.175l.218,0,0,.211Zm0,0-.213-10.071.213.214c-3.947.056-11.875.14-15.821.175l-15.82.061.449-.45-.04,10.071-.41-.41,7.839.039c5.016.058,18.615.284,23.8.372" transform="translate(-18.379 -16.588)" fill="#ebebeb"/>
            <rect id="Rectángulo_386317" data-name="Rectángulo 386317" width="31.642" height="10.071" transform="translate(148.281 137.048)" fill="#ebebeb"/>
            <rect id="Rectángulo_386318" data-name="Rectángulo 386318" width="31.642" height="10.071" transform="translate(345.149 315.429)" fill="#ebebeb"/>
            <rect id="Rectángulo_386319" data-name="Rectángulo 386319" width="31.642" height="10.071" transform="translate(327.498 4.433)" fill="#ebebeb"/>
            <path id="Trazado_840245" data-name="Trazado 840245" d="M415.091,29.057c-5.272.09-18.565.315-23.66.372l-7.981.039-.409,0,0-.412L383,18.986l0-.451.452,0,15.82.061c3.939.035,11.882.119,15.821.175l.218,0,0,.211Zm0,0-.213-10.071.213.214c-3.947.056-11.875.14-15.821.175l-15.82.061.449-.45-.04,10.071-.409-.41,7.839.039c5.016.058,18.615.284,23.8.372" transform="translate(-38.3 -1.854)" fill="#ebebeb"/>
            <path id="Trazado_840246" data-name="Trazado 840246" d="M56.179,14.947c-5.272.09-18.565.315-23.66.372l-7.982.039-.409,0v-.412l-.04-10.071,0-.451.451,0,15.821.061c3.939.035,11.882.119,15.821.175l.218,0,0,.211Zm0,0L55.966,4.876l.213.214c-3.947.056-11.875.14-15.821.175l-15.821.061.45-.45-.04,10.071-.41-.41,7.84.039c5.016.058,18.615.283,23.8.372" transform="translate(-2.409 -0.443)" fill="#ebebeb"/>
            <path id="Trazado_840247" data-name="Trazado 840247" d="M258.918,386.237c-5.272.09-18.565.315-23.66.372l-7.981.039-.41,0v-.412l-.04-10.071,0-.451.452,0,15.82.061c3.939.035,11.882.119,15.821.175l.218,0,0,.211Zm0,0-.213-10.071.213.214c-3.947.056-11.876.139-15.821.175l-15.82.061.449-.45-.04,10.071-.41-.41,7.839.039c5.016.058,18.615.284,23.8.372" transform="translate(-22.682 -37.571)" fill="#ebebeb"/>
            <path id="Trazado_840248" data-name="Trazado 840248" d="M64,73.317A32.173,32.173,0,1,1,32.18,36.431V68.6Z" transform="translate(0 -3.643)" fill="#ebebeb"/>
            <path id="Trazado_840249" data-name="Trazado 840249" d="M75.2,61.321a32.061,32.061,0,0,1-.349,4.717L43.035,61.321V29.152A32.142,32.142,0,0,1,75.2,61.321" transform="translate(-4.304 -2.915)" fill="#dbdbdb"/>
            <rect id="Rectángulo_386320" data-name="Rectángulo 386320" width="34.213" height="0.9" transform="translate(35.663 76.378)" fill="#c7c7c7"/>
            <path id="Trazado_840250" data-name="Trazado 840250" d="M79.988,87.9a2.848,2.848,0,1,1,2.849-2.848A2.852,2.852,0,0,1,79.988,87.9m0-4.8a1.948,1.948,0,1,0,1.949,1.948A1.951,1.951,0,0,0,79.988,83.1" transform="translate(-7.714 -8.22)" fill="#c7c7c7"/>
            <rect id="Rectángulo_386321" data-name="Rectángulo 386321" width="26.573" height="1.199" transform="translate(80.968 75.03)" fill="#c7c7c7"/>
            <rect id="Rectángulo_386322" data-name="Rectángulo 386322" width="15.043" height="1.199" transform="translate(80.968 77.428)" fill="#c7c7c7"/>
            <rect id="Rectángulo_386323" data-name="Rectángulo 386323" width="8.486" height="60.39" transform="translate(166.972 192.083)" fill="#ebebeb"/>
            <rect id="Rectángulo_386324" data-name="Rectángulo 386324" width="8.486" height="45.772" transform="translate(181.559 206.701)" fill="#ebebeb"/>
            <rect id="Rectángulo_386325" data-name="Rectángulo 386325" width="8.486" height="22.886" transform="translate(196.145 229.587)" fill="#ebebeb"/>
            <rect id="Rectángulo_386326" data-name="Rectángulo 386326" width="8.487" height="35.959" transform="translate(210.731 216.515)" fill="#ebebeb"/>
            <rect id="Rectángulo_386327" data-name="Rectángulo 386327" width="8.486" height="49.685" transform="translate(225.319 202.788)" fill="#ebebeb"/>
            <rect id="Rectángulo_386328" data-name="Rectángulo 386328" width="8.486" height="57.758" transform="translate(239.905 194.715)" fill="#ebebeb"/>
            <path id="Trazado_840251" data-name="Trazado 840251" d="M180.034,204.893l.1,17.017.049,17.018.068,34.034-.214-.214q11.7-.032,23.4-.005l23.4.047,23.4.047,23.4.126-23.4.126-23.4.047-23.4.047q-11.7.042-23.4,0h-.215v-.214l.068-34.034.048-17.018Z" transform="translate(-17.982 -20.489)" fill="#ebebeb"/>
            <path id="Trazado_840252" data-name="Trazado 840252" d="M177.978,208.658a6.651,6.651,0,0,1,1.872-.24,6.55,6.55,0,0,1,1.872.24,6.518,6.518,0,0,1-1.872.24,6.618,6.618,0,0,1-1.872-.24" transform="translate(-17.798 -20.842)" fill="#ebebeb"/>
            <path id="Trazado_840253" data-name="Trazado 840253" d="M177.978,214.406a6.651,6.651,0,0,1,1.872-.24,6.549,6.549,0,0,1,1.872.24,6.518,6.518,0,0,1-1.872.24,6.618,6.618,0,0,1-1.872-.24" transform="translate(-17.798 -21.417)" fill="#ebebeb"/>
            <path id="Trazado_840254" data-name="Trazado 840254" d="M177.978,220.154a6.651,6.651,0,0,1,1.872-.24,6.55,6.55,0,0,1,1.872.24,6.518,6.518,0,0,1-1.872.24,6.618,6.618,0,0,1-1.872-.24" transform="translate(-17.798 -21.991)" fill="#ebebeb"/>
            <path id="Trazado_840255" data-name="Trazado 840255" d="M177.978,225.9a6.652,6.652,0,0,1,1.872-.24,6.519,6.519,0,0,1,1.872.24,6.55,6.55,0,0,1-1.872.241,6.651,6.651,0,0,1-1.872-.241" transform="translate(-17.798 -22.566)" fill="#ebebeb"/>
            <path id="Trazado_840256" data-name="Trazado 840256" d="M177.978,231.65a6.651,6.651,0,0,1,1.872-.24,6.55,6.55,0,0,1,1.872.24,6.519,6.519,0,0,1-1.872.241,6.652,6.652,0,0,1-1.872-.241" transform="translate(-17.798 -23.141)" fill="#ebebeb"/>
            <path id="Trazado_840257" data-name="Trazado 840257" d="M177.978,237.4a6.619,6.619,0,0,1,1.872-.24,6.519,6.519,0,0,1,1.872.24,6.549,6.549,0,0,1-1.872.24,6.65,6.65,0,0,1-1.872-.24" transform="translate(-17.798 -23.716)" fill="#ebebeb"/>
            <path id="Trazado_840258" data-name="Trazado 840258" d="M177.978,243.147a6.618,6.618,0,0,1,1.872-.24,6.549,6.549,0,0,1,1.872.24,6.549,6.549,0,0,1-1.872.24,6.618,6.618,0,0,1-1.872-.24" transform="translate(-17.798 -24.291)" fill="#ebebeb"/>
            <path id="Trazado_840259" data-name="Trazado 840259" d="M177.978,248.9a6.652,6.652,0,0,1,1.872-.24,6.519,6.519,0,0,1,1.872.24,6.549,6.549,0,0,1-1.872.24,6.65,6.65,0,0,1-1.872-.24" transform="translate(-17.798 -24.865)" fill="#ebebeb"/>
            <path id="Trazado_840260" data-name="Trazado 840260" d="M177.978,254.643a6.653,6.653,0,0,1,1.872-.24,6.551,6.551,0,0,1,1.872.24,6.518,6.518,0,0,1-1.872.24,6.617,6.617,0,0,1-1.872-.24" transform="translate(-17.798 -25.44)" fill="#ebebeb"/>
            <path id="Trazado_840261" data-name="Trazado 840261" d="M177.978,260.391a6.618,6.618,0,0,1,1.872-.24,6.549,6.549,0,0,1,1.872.24,6.518,6.518,0,0,1-1.872.24,6.652,6.652,0,0,1-1.872-.24" transform="translate(-17.798 -26.015)" fill="#ebebeb"/>
            <path id="Trazado_840262" data-name="Trazado 840262" d="M177.978,266.139a6.618,6.618,0,0,1,1.872-.24,6.519,6.519,0,0,1,1.872.24,6.55,6.55,0,0,1-1.872.24,6.65,6.65,0,0,1-1.872-.24" transform="translate(-17.798 -26.59)" fill="#ebebeb"/>
            <path id="Trazado_840263" data-name="Trazado 840263" d="M177.978,271.887a6.617,6.617,0,0,1,1.872-.24,6.549,6.549,0,0,1,1.872.24,6.55,6.55,0,0,1-1.872.24,6.652,6.652,0,0,1-1.872-.24" transform="translate(-17.798 -27.165)" fill="#ebebeb"/>
            <path id="Trazado_840264" data-name="Trazado 840264" d="M3.306,410.415c120.227-.551,255.092-.555,375.318,0-120.226.555-255.092.551-375.318,0" transform="translate(-0.331 -41)" fill="#263238"/>
            <path id="Trazado_840265" data-name="Trazado 840265" d="M389.733,0H242.244a15.057,15.057,0,0,0-14.918,15.2V318.8A15.068,15.068,0,0,0,242.244,334H389.733a15.083,15.083,0,0,0,14.935-15.2V15.2A15.072,15.072,0,0,0,389.733,0m5.6,309.415c0,7.991-5.985,14.456-13.365,14.456H250.027c-7.4,0-13.383-6.465-13.383-14.456V26.7c0-16.278,5.985-17.072,13.383-17.072H276.46c1.536,0,2.792,1.744,2.792,3.908v.934c0,5.068,2.775,5.086,6.177,5.086h61.121c3.437,0,6.194-.018,6.194-5.086v-.934c0-2.164,1.239-3.908,2.8-3.908h26.425c7.38,0,13.365,2.163,13.365,17.072Z" transform="translate(-22.733 0)" fill="#263238"/>
            <path id="Trazado_840266" data-name="Trazado 840266" d="M396.369,27.774V310.485c0,7.991-5.985,14.456-13.365,14.456H251.062c-7.4,0-13.383-6.465-13.383-14.456V27.774c0-16.279,5.985-17.073,13.383-17.073h26.433c1.536,0,2.792,1.745,2.792,3.909v.933c0,5.069,2.775,5.086,6.177,5.086h61.121c3.437,0,6.194-.017,6.194-5.086V14.61c0-2.164,1.239-3.909,2.8-3.909H383c7.38,0,13.365,2.164,13.365,17.073" transform="translate(-23.768 -1.07)" fill="#fff"/>
            <path id="Trazado_840267" data-name="Trazado 840267" d="M276.212,17.624l-.256.254-.144.145a3.476,3.476,0,0,0-4.924,0c-.045-.047-.091-.1-.138-.144l-.252-.253-.008,0v-.006a.177.177,0,0,0,.019-.015c.108-.1.212-.194.323-.285a3.983,3.983,0,0,1,1.737-.809c.163-.03.329-.045.494-.066.056-.007.422-.008.433-.007.113.008.225.014.337.025a3.831,3.831,0,0,1,.907.217,4.06,4.06,0,0,1,.615.287,3.851,3.851,0,0,1,.586.411c.092.078.18.161.27.242Z" transform="translate(-27.049 -1.643)" fill="#c7c7c7"/>
            <path id="Trazado_840268" data-name="Trazado 840268" d="M271.788,18.952l-.4-.4a2.843,2.843,0,0,1,1.642-.824,2.88,2.88,0,0,1,2.47.819l-.406.4a2.336,2.336,0,0,0-3.3,0" transform="translate(-27.139 -1.77)" fill="#c7c7c7"/>
            <path id="Trazado_840269" data-name="Trazado 840269" d="M274.778,19.481l-.4.4a1.193,1.193,0,0,0-1.692,0l-.4-.4a1.752,1.752,0,0,1,2.494,0" transform="translate(-27.228 -1.896)" fill="#c7c7c7"/>
            <path id="Trazado_840270" data-name="Trazado 840270" d="M273.991,20.349a.363.363,0,1,1-.363-.362.362.362,0,0,1,.363.362" transform="translate(-27.327 -1.999)" fill="#c7c7c7"/>
            <path id="Trazado_840271" data-name="Trazado 840271" d="M249.18,18.5a1.052,1.052,0,1,1,1.052,1.053A1.052,1.052,0,0,1,249.18,18.5" transform="translate(-24.918 -1.744)" fill="#c7c7c7"/>
            <path id="Trazado_840272" data-name="Trazado 840272" d="M252.86,18.5a1.052,1.052,0,1,1,1.052,1.053A1.052,1.052,0,0,1,252.86,18.5" transform="translate(-25.286 -1.744)" fill="#c7c7c7"/>
            <path id="Trazado_840273" data-name="Trazado 840273" d="M256.541,18.5a1.052,1.052,0,1,1,1.052,1.053,1.052,1.052,0,0,1-1.052-1.053" transform="translate(-25.654 -1.744)" fill="#c7c7c7"/>
            <path id="Trazado_840274" data-name="Trazado 840274" d="M260.222,18.5a1.052,1.052,0,1,1,1.051,1.053,1.052,1.052,0,0,1-1.051-1.053" transform="translate(-26.022 -1.744)" fill="#c7c7c7"/>
            <path id="Trazado_840275" data-name="Trazado 840275" d="M263.9,18.5a1.052,1.052,0,1,1,1.052,1.053A1.052,1.052,0,0,1,263.9,18.5" transform="translate(-26.39 -1.744)" fill="#c7c7c7"/>
            <path id="Trazado_840276" data-name="Trazado 840276" d="M399.826,20.723h-8.562V16.758h8.562Zm-8.125-.436h7.689V17.194H391.7Z" transform="translate(-39.126 -1.676)" fill="#c7c7c7"/>
            <rect id="Rectángulo_386329" data-name="Rectángulo 386329" width="5.519" height="2.619" transform="translate(352.849 15.755)" fill="#c7c7c7"/>
            <rect id="Rectángulo_386330" data-name="Rectángulo 386330" width="0.761" height="2.121" transform="translate(360.705 16.005)" fill="#c7c7c7"/>
            <path id="Trazado_840277" data-name="Trazado 840277" d="M333.141,14.468H316.47a1.03,1.03,0,1,1,0-2.059h16.672a1.03,1.03,0,1,1,0,2.059" transform="translate(-31.544 -1.241)" fill="#fff"/>
            <path id="Trazado_840278" data-name="Trazado 840278" d="M259.826,340.969h-.776v3.564H257.6v-1.816h-2.568v1.816H253.58v-3.564H252.8l3.51-3.628Z" transform="translate(-25.28 -33.734)" fill="#ebebeb"/>
            <rect id="Rectángulo_386331" data-name="Rectángulo 386331" width="8.462" height="1.21" transform="translate(351.792 303.606)" fill="#ebebeb"/>
            <rect id="Rectángulo_386332" data-name="Rectángulo 386332" width="8.462" height="1.21" transform="translate(351.792 306.598)" fill="#ebebeb"/>
            <rect id="Rectángulo_386333" data-name="Rectángulo 386333" width="8.462" height="1.21" transform="translate(351.792 309.589)" fill="#ebebeb"/>
            <path id="Trazado_840279" data-name="Trazado 840279" d="M328.773,341.431,326.367,344l-2.406-2.568.424-.4,1.982,2.115,1.982-2.115Z" transform="translate(-32.396 -34.103)" fill="#ebebeb"/>
            <path id="Trazado_840280" data-name="Trazado 840280" d="M326.148,346.3a4.37,4.37,0,1,1,4.37-4.37,4.376,4.376,0,0,1-4.37,4.37m0-8.164a3.793,3.793,0,1,0,3.794,3.793,3.8,3.8,0,0,0-3.794-3.793" transform="translate(-32.178 -33.756)" fill="#ebebeb"/>
            <rect id="Rectángulo_386334" data-name="Rectángulo 386334" width="141.89" height="41.418" transform="translate(222.311 30.703)" fill="#ffc727"/>
            <path id="Trazado_840281" data-name="Trazado 840281" d="M255.466,47.917l-4.692-4.4,4.692-4.4.728.776-3.864,3.62,3.864,3.622Z" transform="translate(-25.077 -3.912)" fill="#fff"/>
            <path id="Trazado_840282" data-name="Trazado 840282" d="M400.72,40.864a.923.923,0,1,1-.923-.923.924.924,0,0,1,.923.923" transform="translate(-39.887 -3.994)" fill="#fff"/>
            <path id="Trazado_840283" data-name="Trazado 840283" d="M400.72,44.513a.923.923,0,1,1-.923-.923.923.923,0,0,1,.923.923" transform="translate(-39.887 -4.359)" fill="#fff"/>
            <path id="Trazado_840284" data-name="Trazado 840284" d="M400.72,48.159a.923.923,0,1,1-.923-.923.924.924,0,0,1,.923.923" transform="translate(-39.887 -4.724)" fill="#fff"/>
            <path id="Trazado_840285" data-name="Trazado 840285" d="M263.9,43.959c16.328-.6,32.773-.6,49.1,0-16.332.6-32.775.6-49.1,0" transform="translate(-26.39 -4.35)" fill="#fff"/>
            <path id="Trazado_840286" data-name="Trazado 840286" d="M263.9,48.869c11.025-.294,23.157-.3,34.182,0-11.025.3-23.157.294-34.182,0" transform="translate(-26.39 -4.865)" fill="#fff"/>
            <path id="Trazado_840287" data-name="Trazado 840287" d="M281.951,65.676c25.305-.275,53.695-.277,79,0-25.3.277-53.694.275-79,0" transform="translate(-28.195 -6.547)" fill="#fff"/>
            <path id="Trazado_840288" data-name="Trazado 840288" d="M254.2,117.913c22.395-.158,44.79-.118,67.187-.185,22.4.066,44.791.026,67.189.185-22.4.159-44.793.121-67.189.184-22.4-.066-44.792-.025-67.187-.184" transform="translate(-25.42 -11.773)" fill="#455a64"/>
            <path id="Trazado_840289" data-name="Trazado 840289" d="M254.2,134.733c22.395-.158,44.79-.119,67.187-.184,22.4.065,44.791.025,67.189.184-22.4.159-44.793.119-67.189.185-22.4-.066-44.792-.026-67.187-.185" transform="translate(-25.42 -13.455)" fill="#455a64"/>
            <path id="Trazado_840290" data-name="Trazado 840290" d="M254.2,151.551c22.395-.159,44.79-.119,67.187-.184,22.4.065,44.791.025,67.189.184-22.4.159-44.793.119-67.189.184-22.4-.066-44.792-.026-67.187-.184" transform="translate(-25.42 -15.137)" fill="#455a64"/>
            <path id="Trazado_840291" data-name="Trazado 840291" d="M254.2,168.37c22.395-.158,44.79-.119,67.187-.184,22.4.065,44.791.025,67.189.184-22.4.159-44.793.119-67.189.184-22.4-.066-44.792-.026-67.187-.184" transform="translate(-25.42 -16.819)" fill="#455a64"/>
            <path id="Trazado_840292" data-name="Trazado 840292" d="M254.2,185.189c22.395-.159,44.79-.119,67.187-.184,22.4.065,44.791.025,67.189.184-22.4.159-44.793.119-67.189.184-22.4-.066-44.792-.026-67.187-.184" transform="translate(-25.42 -18.5)" fill="#455a64"/>
            <path id="Trazado_840293" data-name="Trazado 840293" d="M284.231,107c.2,14.144.147,28.287.23,42.431-.081,14.143-.031,28.287-.23,42.43-.2-14.144-.148-28.287-.229-42.43.082-14.144.032-28.287.229-42.431" transform="translate(-28.4 -10.7)" fill="#455a64"/>
            <path id="Trazado_840294" data-name="Trazado 840294" d="M310.051,107c.2,14.144.147,28.287.229,42.431-.081,14.143-.031,28.287-.229,42.43-.2-14.144-.148-28.287-.229-42.43.082-14.144.031-28.287.229-42.431" transform="translate(-30.982 -10.7)" fill="#455a64"/>
            <path id="Trazado_840295" data-name="Trazado 840295" d="M335.87,107c.2,14.144.147,28.287.229,42.431-.081,14.143-.031,28.287-.229,42.43-.2-14.144-.148-28.287-.23-42.43.083-14.144.032-28.287.23-42.431" transform="translate(-33.564 -10.7)" fill="#455a64"/>
            <path id="Trazado_840296" data-name="Trazado 840296" d="M361.689,107c.2,14.144.148,28.287.229,42.431-.081,14.143-.031,28.287-.229,42.43-.2-14.144-.148-28.287-.229-42.43.083-14.144.032-28.287.229-42.431" transform="translate(-36.146 -10.7)" fill="#455a64"/>
            <path id="Trazado_840297" data-name="Trazado 840297" d="M387.509,107c.2,14.144.147,28.287.229,42.431-.081,14.143-.031,28.287-.229,42.43-.2-14.144-.148-28.287-.229-42.43.082-14.144.032-28.287.229-42.431" transform="translate(-38.728 -10.7)" fill="#455a64"/>
            <g id="Grupo_1079888" data-name="Grupo 1079888" transform="translate(232.161 121.279)" opacity="0.5">
              <g id="Grupo_1079887" data-name="Grupo 1079887">
                <g id="Grupo_1079886" data-name="Grupo 1079886" clip-path="url(#clip-path-3)">
                  <path id="Trazado_840298" data-name="Trazado 840298" d="M257.957,169.185c4.1,0,6.547-15.376,12.357-15.376s6.421,11.218,11.313,11.218,4.739-19.705,11.313-19.705,5.044,8,11.924,8,4.28-18.563,11.466-18.563,4.28,25.575,11.772,25.575c4.738,0,6.574-8.123,12.23-8.123,3.746,0,5.954,4.064,10.85,4.064,4.973,0,5.966-15.621,12.082-15.621s6.814,9.243,11.313,9.243,6.115-15.137,14.37-15.137v59.882H257.957Z" transform="translate(-257.957 -134.754)" fill="#ffc727"/>
                </g>
              </g>
            </g>
            <g id="Grupo_1079891" data-name="Grupo 1079891" transform="translate(232.161 121.279)" opacity="0.3">
              <g id="Grupo_1079890" data-name="Grupo 1079890">
                <g id="Grupo_1079889" data-name="Grupo 1079889" clip-path="url(#clip-path-3)">
                  <path id="Trazado_840299" data-name="Trazado 840299" d="M257.957,169.185c4.1,0,6.547-15.376,12.357-15.376s6.421,11.218,11.313,11.218,4.739-19.705,11.313-19.705,5.044,8,11.924,8,4.28-18.563,11.466-18.563,4.28,25.575,11.772,25.575c4.738,0,6.574-8.123,12.23-8.123,3.746,0,5.954,4.064,10.85,4.064,4.973,0,5.966-15.621,12.082-15.621s6.814,9.243,11.313,9.243,6.115-15.137,14.37-15.137v59.882H257.957Z" transform="translate(-257.957 -134.754)" fill="#ffc727"/>
                </g>
              </g>
            </g>
            <path id="Trazado_840300" data-name="Trazado 840300" d="M257.958,169.843v-1.48c1.241,0,2.952-3.592,4.2-6.214,2.146-4.5,4.366-9.162,8.155-9.162,3.637,0,5.443,3.411,7.038,6.421,1.248,2.359,2.541,4.8,4.274,4.8,1.53,0,2.855-4.732,3.823-8.187,1.586-5.663,3.226-11.518,7.49-11.518,3.808,0,5.3,2.3,6.618,4.327,1.281,1.968,2.385,3.668,5.307,3.668,2.643,0,3.677-4.337,4.679-8.531,1.178-4.932,2.4-10.032,6.787-10.032,4.355,0,5.468,6.424,6.648,13.225.953,5.5,2.138,12.349,5.123,12.349,1.784,0,3.242-1.687,4.784-3.475,1.88-2.179,4.012-4.648,7.445-4.648a9.764,9.764,0,0,1,5.233,1.984,10.271,10.271,0,0,0,5.617,2.079c1.7,0,3.245-3.716,4.49-6.7,1.826-4.386,3.715-8.921,7.592-8.921,3.85,0,5.747,2.949,7.421,5.551,1.221,1.9,2.374,3.693,3.893,3.693,1.292,0,2.758-2.876,4.049-5.413,2.208-4.333,4.955-9.724,10.321-9.724v1.48c-4.133,0-6.515,4.678-8.618,8.806-1.8,3.538-3.226,6.331-5.752,6.331-2.638,0-4.041-2.182-5.526-4.492-1.5-2.335-3.056-4.75-5.788-4.75-2.553,0-4.3,4.2-5.851,7.91-1.723,4.138-3.212,7.711-6.232,7.711a12.1,12.1,0,0,1-6.746-2.391c-1.433-.9-2.67-1.672-4.1-1.672-2.471,0-4.232,2.039-5.935,4.012-1.744,2.02-3.549,4.111-6.295,4.111-4.585,0-5.73-6.619-6.946-13.625-.921-5.324-2.07-11.95-4.825-11.95-2.872,0-3.992,4.692-4.981,8.833-1.194,5-2.322,9.731-6.485,9.731-4.036,0-5.576-2.371-6.936-4.463-1.231-1.9-2.295-3.533-4.989-3.533-2.794,0-4.4,5.747-5.7,10.364-1.462,5.219-2.616,9.341-5.617,9.341-2.949,0-4.414-2.767-5.966-5.7-1.438-2.714-2.923-5.521-5.346-5.521-2.524,0-4.694,4.553-6.438,8.212-1.907,4-3.414,7.165-5.919,7.165" transform="translate(-25.796 -13.393)" fill="#ffc727"/>
            <g id="Grupo_1079894" data-name="Grupo 1079894" transform="translate(279.068 121.278)" opacity="0.5">
              <g id="Grupo_1079893" data-name="Grupo 1079893">
                <g id="Grupo_1079892" data-name="Grupo 1079892" clip-path="url(#clip-path-5)">
                  <path id="Trazado_840301" data-name="Trazado 840301" d="M333.314,160.331v34.3H310.076V153.32c6.876,0,4.286-18.567,11.47-18.567s4.276,25.578,11.768,25.578" transform="translate(-310.076 -134.753)" fill="#ffc727"/>
                </g>
              </g>
            </g>
            <path id="Trazado_840302" data-name="Trazado 840302" d="M326.08,133.811a3.678,3.678,0,1,1-3.678-3.678,3.679,3.679,0,0,1,3.678,3.678" transform="translate(-31.872 -13.013)" fill="#263238"/>
            <path id="Trazado_840303" data-name="Trazado 840303" d="M324.68,133.986a2.1,2.1,0,1,1-2.1-2.1,2.1,2.1,0,0,1,2.1,2.1" transform="translate(-32.047 -13.188)" fill="#ffc727"/>
            <rect id="Rectángulo_386338" data-name="Rectángulo 386338" width="13.355" height="7.451" transform="translate(283.799 105.794)" fill="#ffc727"/>
            <path id="Trazado_840304" data-name="Trazado 840304" d="M320.8,125.828h3.515l-1.758,2.531Z" transform="translate(-32.08 -12.583)" fill="#ffc727"/>
            <path id="Trazado_840305" data-name="Trazado 840305" d="M318.111,120.591a78.7,78.7,0,0,1,8.459,0,78.463,78.463,0,0,1-8.459,0" transform="translate(-31.811 -12.048)" fill="#fff"/>
            <path id="Trazado_840306" data-name="Trazado 840306" d="M318.111,122.192a78.467,78.467,0,0,1,8.459,0,78.7,78.7,0,0,1-8.459,0" transform="translate(-31.811 -12.208)" fill="#fff"/>
            <path id="Trazado_840307" data-name="Trazado 840307" d="M257.909,108.022c.148,13.991.277,27.981.29,41.971l.139,41.97-.429-.345,65.495.087,32.748.068,32.747.189-32.747.19-32.748.068-65.495.087h-.431l0-.346.139-41.97c.013-13.99.141-27.979.29-41.971" transform="translate(-25.748 -10.802)" fill="#455a64"/>
            <path id="Trazado_840308" data-name="Trazado 840308" d="M265.75,208.226a31.453,31.453,0,0,1,9.331,0,31.453,31.453,0,0,1-9.331,0" transform="translate(-26.575 -20.788)" fill="#dbdbdb"/>
            <path id="Trazado_840309" data-name="Trazado 840309" d="M247.012,117.9a6.679,6.679,0,0,1,4.253,0,6.679,6.679,0,0,1-4.253,0" transform="translate(-24.701 -11.755)" fill="#dbdbdb"/>
            <path id="Trazado_840310" data-name="Trazado 840310" d="M247.012,134.715a6.679,6.679,0,0,1,4.253,0,6.679,6.679,0,0,1-4.253,0" transform="translate(-24.701 -13.437)" fill="#dbdbdb"/>
            <path id="Trazado_840311" data-name="Trazado 840311" d="M247.012,151.534a6.679,6.679,0,0,1,4.253,0,6.679,6.679,0,0,1-4.253,0" transform="translate(-24.701 -15.119)" fill="#dbdbdb"/>
            <path id="Trazado_840312" data-name="Trazado 840312" d="M247.012,168.353a6.679,6.679,0,0,1,4.253,0,6.679,6.679,0,0,1-4.253,0" transform="translate(-24.701 -16.801)" fill="#dbdbdb"/>
            <path id="Trazado_840313" data-name="Trazado 840313" d="M247.012,185.172a6.679,6.679,0,0,1,4.253,0,6.679,6.679,0,0,1-4.253,0" transform="translate(-24.701 -18.482)" fill="#dbdbdb"/>
            <path id="Trazado_840314" data-name="Trazado 840314" d="M291.182,208.226a31.459,31.459,0,0,1,9.332,0,31.459,31.459,0,0,1-9.332,0" transform="translate(-29.118 -20.788)" fill="#dbdbdb"/>
            <path id="Trazado_840315" data-name="Trazado 840315" d="M316.615,208.226a31.459,31.459,0,0,1,9.332,0,31.459,31.459,0,0,1-9.332,0" transform="translate(-31.661 -20.788)" fill="#dbdbdb"/>
            <path id="Trazado_840316" data-name="Trazado 840316" d="M342.048,208.226a31.459,31.459,0,0,1,9.332,0,31.459,31.459,0,0,1-9.332,0" transform="translate(-34.205 -20.788)" fill="#dbdbdb"/>
            <path id="Trazado_840317" data-name="Trazado 840317" d="M367.481,208.226a31.459,31.459,0,0,1,9.332,0,31.459,31.459,0,0,1-9.332,0" transform="translate(-36.748 -20.788)" fill="#dbdbdb"/>
            <path id="Trazado_840318" data-name="Trazado 840318" d="M392.914,208.226a31.459,31.459,0,0,1,9.332,0,31.459,31.459,0,0,1-9.332,0" transform="translate(-39.291 -20.788)" fill="#dbdbdb"/>
            <path id="Trazado_840319" data-name="Trazado 840319" d="M247.148,91.807c13.174-.614,26.453-.614,39.631,0-13.179.614-26.455.614-39.631,0" transform="translate(-24.715 -9.135)" fill="#dbdbdb"/>
            <path id="Trazado_840320" data-name="Trazado 840320" d="M247.148,96.434a175.722,175.722,0,0,1,25.422,0,175.72,175.72,0,0,1-25.422,0" transform="translate(-24.715 -9.597)" fill="#dbdbdb"/>
            <path id="Trazado_840321" data-name="Trazado 840321" d="M375.255,96.447a237.186,237.186,0,0,1,25.423,0,237.184,237.184,0,0,1-25.423,0" transform="translate(-37.526 -9.611)" fill="#ffc727"/>
            <path id="Trazado_840322" data-name="Trazado 840322" d="M248.123,223.679c13.326-.614,26.757-.615,40.085,0-13.33.614-26.758.614-40.085,0" transform="translate(-24.812 -22.322)" fill="#263238"/>
            <path id="Trazado_840323" data-name="Trazado 840323" d="M369.871,223.692q15.124-.679,30.268,0-15.124.684-30.268,0" transform="translate(-36.987 -22.335)" fill="#ffc727"/>
            <path id="Trazado_840324" data-name="Trazado 840324" d="M278.447,237.635a270.175,270.175,0,0,1,31.531,0,270.188,270.188,0,0,1-31.531,0" transform="translate(-27.845 -23.717)" fill="#263238"/>
            <path id="Trazado_840325" data-name="Trazado 840325" d="M278.447,242.789a189.8,189.8,0,0,1,26.422,0,189.791,189.791,0,0,1-26.422,0" transform="translate(-27.845 -24.233)" fill="#263238"/>
            <path id="Trazado_840326" data-name="Trazado 840326" d="M387.927,256.556c-.313-.3-140.464.886-140.144,0l-.035-24.591v-.337h.338l69.92.1c23.341.053,46.68.019,70.02.143.043.085-.13,24.593-.1,24.688m0,0-.1-24.59c-22.665.414-46.7.089-69.822.242.317-.246-71.529.653-69.584-.241l-.033,24.589c-1.908-.834,139.962.266,139.539,0" transform="translate(-24.775 -23.163)" fill="#dbdbdb"/>
            <rect id="Rectángulo_386339" data-name="Rectángulo 386339" width="17.816" height="17.817" transform="translate(226.931 212.348)" fill="#ffc727"/>
            <path id="Trazado_840327" data-name="Trazado 840327" d="M396.973,244.851a8.9,8.9,0,1,1-1.177-4.429,8.908,8.908,0,0,1,1.177,4.429" transform="translate(-37.916 -23.594)" fill="#455a64"/>
            <path id="Trazado_840328" data-name="Trazado 840328" d="M396.787,240.422l-7.732,4.429v-8.908a8.908,8.908,0,0,1,7.732,4.479" transform="translate(-38.905 -23.594)" fill="#ffc727"/>
            <path id="Trazado_840329" data-name="Trazado 840329" d="M394.532,245.156a6.161,6.161,0,1,1-6.161-6.161,6.161,6.161,0,0,1,6.161,6.161" transform="translate(-38.221 -23.899)" fill="#fff"/>
            <path id="Trazado_840330" data-name="Trazado 840330" d="M278.447,272.765a270.168,270.168,0,0,1,31.531,0,270.2,270.2,0,0,1-31.531,0" transform="translate(-27.845 -27.23)" fill="#263238"/>
            <path id="Trazado_840331" data-name="Trazado 840331" d="M278.447,277.919a189.805,189.805,0,0,1,26.422,0,189.786,189.786,0,0,1-26.422,0" transform="translate(-27.845 -27.746)" fill="#263238"/>
            <path id="Trazado_840332" data-name="Trazado 840332" d="M387.927,291.686c-.313-.3-140.464.886-140.144,0l-.035-24.591v-.337h.338l69.92.1c23.341.052,46.68.019,70.02.143.043.086-.13,24.593-.1,24.688m0,0-.1-24.59c-22.665.414-46.7.088-69.822.242.317-.246-71.529.653-69.584-.241l-.033,24.589c-1.908-.834,139.962.266,139.539,0" transform="translate(-24.775 -26.676)" fill="#dbdbdb"/>
            <rect id="Rectángulo_386340" data-name="Rectángulo 386340" width="17.816" height="17.817" transform="translate(226.931 243.966)" fill="#455a64"/>
            <path id="Trazado_840333" data-name="Trazado 840333" d="M396.973,279.981a8.562,8.562,0,0,1-.1,1.3,8.878,8.878,0,1,1,.1-1.3" transform="translate(-37.916 -27.107)" fill="#455a64"/>
            <path id="Trazado_840334" data-name="Trazado 840334" d="M397.963,279.981a8.562,8.562,0,0,1-.1,1.3l-8.81-1.3v-8.908a8.9,8.9,0,0,1,8.908,8.908" transform="translate(-38.905 -27.107)" fill="#ffc727"/>
            <path id="Trazado_840335" data-name="Trazado 840335" d="M394.531,280.286a6.161,6.161,0,1,1-6.161-6.16,6.161,6.161,0,0,1,6.161,6.16" transform="translate(-38.221 -27.413)" fill="#fff"/>
            <path id="Trazado_840336" data-name="Trazado 840336" d="M278.447,307.895a270.182,270.182,0,0,1,31.531,0,270.182,270.182,0,0,1-31.531,0" transform="translate(-27.845 -30.743)" fill="#263238"/>
            <path id="Trazado_840337" data-name="Trazado 840337" d="M278.447,313.05a189.8,189.8,0,0,1,26.422,0,189.8,189.8,0,0,1-26.422,0" transform="translate(-27.845 -31.259)" fill="#263238"/>
            <path id="Trazado_840338" data-name="Trazado 840338" d="M387.927,326.817c-.313-.3-140.464.886-140.144,0l-.035-24.591v-.337h.338l69.92.1c23.341.052,46.68.019,70.02.143.043.086-.13,24.593-.1,24.688m0,0-.1-24.59c-22.665.414-46.7.088-69.822.242.317-.246-71.529.653-69.584-.241l-.033,24.589c-1.908-.834,139.962.266,139.539,0" transform="translate(-24.775 -30.189)" fill="#dbdbdb"/>
            <rect id="Rectángulo_386341" data-name="Rectángulo 386341" width="17.816" height="17.817" transform="translate(226.931 275.583)" fill="#ffc727"/>
            <path id="Trazado_840339" data-name="Trazado 840339" d="M396.973,315.111a8.9,8.9,0,1,1-1.177-4.429,8.907,8.907,0,0,1,1.177,4.429" transform="translate(-37.916 -30.62)" fill="#455a64"/>
            <path id="Trazado_840340" data-name="Trazado 840340" d="M397.963,315.111a8.907,8.907,0,0,1-5.716,8.317l-3.192-8.317V306.2a8.9,8.9,0,0,1,8.908,8.908" transform="translate(-38.905 -30.62)" fill="#ffc727"/>
            <path id="Trazado_840341" data-name="Trazado 840341" d="M394.532,315.416a6.161,6.161,0,1,1-6.161-6.161,6.161,6.161,0,0,1,6.161,6.161" transform="translate(-38.221 -30.926)" fill="#fff"/>
            <path id="Trazado_840342" data-name="Trazado 840342" d="M415.949,319.955c-11.13,15.075-22.736,32.568-25.562,51.472-.034.286.424.38.491.1a112.506,112.506,0,0,1,4.922-15.135c7.318-2.013,14.5-3.668,18.343-10.931,3.919-7.466,3.421-17.2,2.676-25.334-.051-.436-.643-.457-.869-.167" transform="translate(-39.038 -31.976)" fill="#ffc727"/>
            <path id="Trazado_840343" data-name="Trazado 840343" d="M396.521,356.773c5-11.22,11.419-22.487,19.579-31.713.054-.062.14.028.089.09-5.341,6.571-9.4,13.729-13.365,21.01,3.685-3.741,7.725-7.093,11.215-11.061.068-.076.177.035.113.113-3.467,4.16-7.253,8.68-11.768,11.758q-1.82,3.351-3.672,6.716c.3-.169.617-.32.928-.474.055-.027.1.054.048.082-.344.175-.685.358-1.04.509-.586,1.061-1.166,2.122-1.769,3.18-.135.236-.462.03-.356-.208" transform="translate(-39.65 -32.504)" fill="#263238"/>
            <path id="Trazado_840344" data-name="Trazado 840344" d="M400.649,355.314a65.77,65.77,0,0,0,8.544-5.7c.073-.059.178.042.1.1a45.094,45.094,0,0,1-8.526,5.809c-.138.071-.259-.131-.122-.21" transform="translate(-40.059 -34.959)" fill="#263238"/>
            <path id="Trazado_840345" data-name="Trazado 840345" d="M388.867,365.427c.022.229.411.225.407-.019.058-6.225.005-12.479.1-18.733,1.595-3.218,5.018-5,7.4-7.579a33.158,33.158,0,0,0,4.44-6.182,44.421,44.421,0,0,0,5.151-17.173c.657-6.659-1.869-28.633-4.676-27.869-1.456.4-6.167,11.28-7.416,14.877a103.7,103.7,0,0,0-4.431,18.242c-2.275,14.65-2.085,29.693-.972,44.436" transform="translate(-38.806 -28.785)" fill="#ffc727"/>
            <path id="Trazado_840346" data-name="Trazado 840346" d="M388.9,339l.028-.024c.341-7.877,2.116-15.831,3.777-23.471,1.789-8.23,3.881-15.979,8.116-23.321.079-.136.281-.015.211.123a86.568,86.568,0,0,0-6.52,17.9c.283-.444.628-.865.923-1.283.116-.165.389-.012.274.16a11.609,11.609,0,0,1-1.323,1.868.116.116,0,0,1-.055.025c-1.458,5.882-2.5,11.9-3.4,17.9.067-.076.131-.158.2-.231.046-.049.123.014.092.07-.111.2-.235.4-.357.595-.451,3.047-.869,6.088-1.29,9.1,5.424-4.637,10.057-10.1,12.67-16.835.013-.031.063-.018.051.014-2.561,6.984-6.6,13.193-12.808,17.431-.113.812-.227,1.625-.342,2.432-.024.168-.292.124-.291-.039,0-.717.037-1.437.065-2.156a.166.166,0,0,1-.02-.262" transform="translate(-38.884 -29.212)" fill="#263238"/>
            <path id="Trazado_840347" data-name="Trazado 840347" d="M391.744,329.407a125.572,125.572,0,0,0,11.051-19.034c.032-.077.164-.022.134.057-2.555,6.795-6.135,13.68-10.977,19.138-.1.112-.292-.035-.208-.16" transform="translate(-39.172 -31.034)" fill="#263238"/>
            <path id="Trazado_840348" data-name="Trazado 840348" d="M397.864,307.664c1.717-3.038,3.528-5.995,5.144-9.094.045-.086.165-.011.128.075a47.344,47.344,0,0,1-5.008,9.174.153.153,0,0,1-.265-.155" transform="translate(-39.784 -29.853)" fill="#263238"/>
            <path id="Trazado_840349" data-name="Trazado 840349" d="M397.118,310.147a.027.027,0,0,1,0,.053.027.027,0,0,1,0-.053" transform="translate(-39.709 -31.015)" fill="#263238"/>
            <path id="Trazado_840350" data-name="Trazado 840350" d="M382.342,348.469a63.406,63.406,0,0,1-1.454,12.265c.064.443.128.886.193,1.342a58.405,58.405,0,0,0,2.193-13.671.418.418,0,0,0,.02-.423v-.013a90.581,90.581,0,0,0-1.374-18.524c-1.928-11.441-6.14-22.42-14.118-31a.57.57,0,0,0-.882.182c-3.219,8.186-2.1,17.955.646,26.122a47.784,47.784,0,0,0,6.328,12.407c2.737,3.848,6.226,7.1,8.45,11.307" transform="translate(-36.496 -29.831)" fill="#ffc727"/>
            <path id="Trazado_840351" data-name="Trazado 840351" d="M369.13,302.714c7.562,12.272,12.823,26.823,13.467,41.32.011.257-.421.325-.457.062-.179-1.3-.378-2.594-.587-3.879,0,0-.009,0-.013-.005-3.128-3-6.34-6.157-8.58-9.9-.04-.066.056-.143.108-.083A104.247,104.247,0,0,0,381.4,339.3c-.542-3.206-1.183-6.36-1.942-9.468-.2-.232-.4-.47-.6-.7-.131-.154.087-.378.224-.225.06.067.121.135.182.2a109.325,109.325,0,0,0-3.954-12.552c-1.925-2.3-4.077-4.28-5.479-7.047a.058.058,0,0,1,.1-.059c1.128,1.582,2.218,3.173,3.5,4.641.509.584,1.069,1.131,1.6,1.7a96.8,96.8,0,0,0-6.191-12.9.17.17,0,0,1,.293-.171" transform="translate(-36.881 -30.263)" fill="#263238"/>
            <path id="Trazado_840352" data-name="Trazado 840352" d="M370.843,319.539c2.444,3.289,5.23,6.428,7.5,9.828.066.1-.077.2-.158.122a50.234,50.234,0,0,1-7.509-9.853c-.067-.106.094-.192.165-.1" transform="translate(-37.066 -31.95)" fill="#263238"/>
            <path id="Trazado_840353" data-name="Trazado 840353" d="M379.564,331.307l.1.1a.079.079,0,0,1-.112.112l-.1-.1a.08.08,0,0,1,.112-.113" transform="translate(-37.943 -33.128)" fill="#263238"/>
            <path id="Trazado_840354" data-name="Trazado 840354" d="M356,328.855a37.664,37.664,0,0,0,7.979,18.722,19.869,19.869,0,0,0,6.471,5.049c2.8,1.387,5.737,2.984,8.636,4.122a56.681,56.681,0,0,1,3.057,10.861c.094-.317.186-.646.28-.962-1.861-15.986-12.2-29.65-25.438-38.421a.642.642,0,0,0-.986.629" transform="translate(-35.6 -32.811)" fill="#ffc727"/>
            <path id="Trazado_840355" data-name="Trazado 840355" d="M361.076,334.163c-.094-.082.032-.25.134-.175a54.138,54.138,0,0,1,16.861,20.779c.1.219-.2.41-.329.192-.616-1.077-1.243-2.126-1.88-3.155,0,0-.005,0-.009,0-3.02-.569-5.881-2.695-8.122-4.712-.061-.055.029-.143.09-.089a18.536,18.536,0,0,0,3.821,2.684c1.23.625,2.556,1.019,3.838,1.52-1.12-1.777-2.286-3.48-3.5-5.133a35.19,35.19,0,0,1-9.077-5.1c-.086-.062-.011-.2.086-.146a90.546,90.546,0,0,0,8.436,4.51,75.6,75.6,0,0,0-5.956-6.944c-1.026-.542-2.067-1.086-3.062-1.667a.085.085,0,0,1,.065-.155,11.019,11.019,0,0,1,2.35,1.155c-1.194-1.207-2.425-2.4-3.741-3.562" transform="translate(-36.104 -33.397)" fill="#263238"/>
            <path id="Trazado_840356" data-name="Trazado 840356" d="M361.379,340.316a3.849,3.849,0,0,1,.509.364c.049.042-.013.105-.064.083a3.763,3.763,0,0,1-.531-.3c-.091-.058-.006-.2.086-.146" transform="translate(-36.125 -34.03)" fill="#263238"/>
            <path id="Trazado_840357" data-name="Trazado 840357" d="M404.276,405.983H368.018l2.928-33.019.643-7.282h29.119l.643,7.282Z" transform="translate(-36.802 -36.568)" fill="#455a64"/>
            <path id="Trazado_840358" data-name="Trazado 840358" d="M401.674,372.965h-30.4l.643-7.282h29.119Z" transform="translate(-37.127 -36.568)" fill="#263238"/>
            <rect id="Rectángulo_386342" data-name="Rectángulo 386342" width="32.588" height="7.206" transform="translate(333.051 324.023)" fill="#455a64"/>
            <path id="Trazado_840359" data-name="Trazado 840359" d="M213.022,53.68a30.982,30.982,0,0,1-49.459,24.881L148.38,82.438,154.7,68.3A30.993,30.993,0,1,1,213.022,53.68" transform="translate(-14.838 -2.269)" fill="#fff"/>
            <path id="Trazado_840360" data-name="Trazado 840360" d="M212.944,53.656A31.187,31.187,0,0,1,163.3,78.8l.271.054L148.4,82.8l-.792.206.333-.751L154.229,68.1l.014.382a30.728,30.728,0,0,1-3.695-13.654c-.647-14.506,9.637-28.194,23.81-31.443,19.355-4.949,38.757,10.336,38.586,30.271m0,0c.068-19.874-19.223-34.957-38.466-29.794-13.72,3.3-23.79,16.862-23.066,30.934a30.918,30.918,0,0,0,3.593,13.274l.1.19-.086.193-6.356,14.123-.458-.545,15.2-3.8.15-.038a30.8,30.8,0,0,0,49.387-24.533" transform="translate(-14.761 -2.245)" fill="#263238"/>
            <path id="Trazado_840361" data-name="Trazado 840361" d="M178.644,73.517l-13.89-14.06,4.667-4.61,8.113,8.212,16.857-26.427,5.531,3.527Z" transform="translate(-16.475 -3.663)" fill="#ffc727"/>
            <path id="Trazado_840362" data-name="Trazado 840362" d="M155.9,176.026a11.986,11.986,0,0,0,6.232-20.818c4.772-1.169,8.818-4.563,9.112-9.913.3-5.537-3.694-9.734-8.908-10.813-.038-.008-.059.054-.02.067,4.636,1.5,8.392,5.556,8.044,10.66-.3,4.363-3.084,7.035-6.646,8.492a13.253,13.253,0,0,0,4.661-9.481,10.273,10.273,0,0,0-6.153-9.552c1.855-4.252,2.357-9.435-.072-13.568a10.266,10.266,0,0,0-9.99-5.143A11.478,11.478,0,0,0,135.284,103.3a9.632,9.632,0,0,0-12.364-10.5,6.5,6.5,0,0,0-4.112-5.673c-2.688-1.144-5.675-.517-8.312.558a7.744,7.744,0,0,0-6.635-3.333,7.029,7.029,0,0,0-6.519,6.368c-4.506-1.088-9.547-1.639-13.759.634-3.465,1.871-6.06,5.618-5.6,9.617a13.929,13.929,0,0,0-15.4,14.045,9.809,9.809,0,0,0-7.369,6.433,14.43,14.43,0,0,0-.891,6.929,7.333,7.333,0,0,0-5.37,6.673c-.187,3.078,1.315,5.549,3.383,7.574a5.57,5.57,0,0,1,.023,2.471,12.747,12.747,0,0,0,3.3,11.578,8.69,8.69,0,0,0,4.461,12.254A9.77,9.77,0,0,0,67.7,180.373a14.225,14.225,0,0,0,3.641,11.272c2.164,2.323,5.576,3.98,8.618,2.79-.057,2.5,2.5,4.278,4.915,4.47a12.506,12.506,0,0,0,2.75-.146c1.077-.161,2.413-.652,3.5-.416,1.127.234,1.916,1.308,2.788,1.965a11.364,11.364,0,0,0,2.026,1.2,12.929,12.929,0,0,0,15.628-4.2c3.389,2.522,7.91,1.58,11.4-.41a22.311,22.311,0,0,0,3.15-2.308,5.648,5.648,0,0,1,3.053-1.548c.761-.087,1.538,0,2.3-.085,2.6-.286,4.351-2.076,5.874-4.026,9.327,6.378,19.783-2.634,18.556-12.905M49.927,136.495a7.735,7.735,0,0,1,4.458-7.755c.046.238.087.393.087.393s-.8.709-1.148,1.1a9.772,9.772,0,0,0-1.544,2.388,10.087,10.087,0,0,0-.806,5.809,10.732,10.732,0,0,0,.787,2.519c.048.108.077.2.121.305a9.389,9.389,0,0,1-1.954-4.754m55.43-49.983a7.449,7.449,0,0,0-7.333,4.377c-.079-.02-.162-.037-.242-.057.833-3.082,2.445-5.665,6.141-5.824a6.483,6.483,0,0,1,5.725,3.047l-.043.019a8.215,8.215,0,0,0-4.247-1.562m32.29,102.023c.022-.03.047-.058.069-.088a13.447,13.447,0,0,0,16.978-7.906c-2.245,7.414-8.488,12.523-17.047,7.995" transform="translate(-4.894 -8.435)" fill="#263238"/>
            <path id="Trazado_840363" data-name="Trazado 840363" d="M115.484,243.635c18.228,39.007,49.133,91.822,63.317,94.024,8.57,1.33,23.061,2.485,34.071-7.888,24.027-22.634,40.491-54.976,49.621-71.579,4.145-7.537-42.178-41.089-48.007-33.977-13.649,16.655-29.048,48.924-31.574,48.823-9.349-.369-23.206-23.113-45.839-44.207-27.261-25.408-29.378-1.864-21.589,14.8" transform="translate(-11.155 -21.765)" fill="#ad6359"/>
            <path id="Trazado_840364" data-name="Trazado 840364" d="M266.14,262.588c11.448-12.216,26.48-30.415,26.516-38.071.037-8.035-.962-36.29-3.312-42.781S274.42,158.51,268.657,156.3c-4.615-1.768-7.087,3.944-1.722,14.313,6,11.594,4.169,16.271,4.444,19.984.286,3.855-6.159,20.231-11.575,21.621-3.192.819-9.816.782-11.321-4.973s.012-10.97-2.226-21.01c-1.739-7.807-8.267-12.661-10.957-11.3s-.463,6.041-2.234,17.743c-1.105,7.3-2.183,12.535-10.885,23.2-7.616,9.335-8.087,22.261-8.087,22.261Z" transform="translate(-21.41 -15.598)" fill="#ad6359"/>
            <path id="Trazado_840365" data-name="Trazado 840365" d="M299.781,206.267c-.316-4.4,2.687-17.743,1.652-23.56s-7.863-27.21-14.373-28.956c-8.181-2.192-5.749,15.206-4.006,22.665s-3.037,20.912-3.037,20.912l11.263,4.785Z" transform="translate(-28.002 -15.356)" fill="#ad6359"/>
            <path id="Trazado_840366" data-name="Trazado 840366" d="M278.2,200.4c2.016-6.764,4.52-13.641,4.61-20.758-.343-5.088-1.365-10.1-1.607-15.235-.068-3.038-.263-6.364,1.282-9.114a3.42,3.42,0,0,1,2.5-1.679,3.427,3.427,0,0,0-2.3,1.8c-1.285,2.77-.984,5.968-.8,8.95.342,4.055,1.011,8.082,1.531,12.157,1.054,8.26-2.294,16.331-5.224,23.881" transform="translate(-27.82 -15.361)" fill="#263238"/>
            <path id="Trazado_840367" data-name="Trazado 840367" d="M299.74,210.328c.918-4.288,7.465-16.133,8.088-21.978s.054-28.218-5.65-31.769c-7.17-4.464-9.672,12.827-10.079,20.441s-8.673,19.052-8.673,19.052l9.383,7.829Z" transform="translate(-28.343 -15.586)" fill="#ad6359"/>
            <path id="Trazado_840368" data-name="Trazado 840368" d="M280.756,198.521c3.8-5.873,8.09-11.723,10.129-18.475,1.073-4.94,1.49-9.994,2.678-14.946.776-2.911,1.5-6.133,3.738-8.322a3.337,3.337,0,0,1,2.851-.883,3.341,3.341,0,0,0-2.687,1.056c-1.99,2.281-2.58,5.41-3.226,8.3-.793,3.955-1.272,7.972-1.9,12-1.26,8.142-6.7,14.926-11.582,21.278" transform="translate(-28.076 -15.584)" fill="#263238"/>
            <path id="Trazado_840369" data-name="Trazado 840369" d="M278.206,214.743c-5.254,4.349-12.584,5.973-19.254,6.412a35.351,35.351,0,0,0-14.618,3.735,46.421,46.421,0,0,0-4.423,2.547,32.123,32.123,0,0,1,18.973-7.162c6.689-.469,13.638-1.811,19.321-5.531" transform="translate(-23.991 -21.474)" fill="#263238"/>
            <path id="Trazado_840370" data-name="Trazado 840370" d="M293.942,157.778l-23.813,64.5a4.106,4.106,0,0,1-4.469,2.576l-32.355-6.443a2.805,2.805,0,0,1-2.081-3.881l23.813-64.5a4.1,4.1,0,0,1,4.465-2.579l32.354,6.443a2.806,2.806,0,0,1,2.085,3.882" transform="translate(-23.101 -14.739)" fill="#37474f"/>
            <path id="Trazado_840371" data-name="Trazado 840371" d="M289.66,153.46,257.3,147.017a4.1,4.1,0,0,0-4.465,2.577l-23.813,64.5a2.806,2.806,0,0,0,2.081,3.881l32.356,6.444a4.107,4.107,0,0,0,4.468-2.577l23.814-64.5a2.807,2.807,0,0,0-2.085-3.882m-23.04,65.984a3.8,3.8,0,0,1-4.066,2.488l-28.945-5.765a2.6,2.6,0,0,1-1.8-3.656l22.175-60.065c1.276-3.459,2.651-3.366,4.275-3.043l5.8,1.155c.337.068.475.493.306.952l-.073.2c-.4,1.076.21,1.2.956,1.35l13.408,2.67c.754.15,1.361.267,1.758-.81l.074-.2c.169-.46.578-.777.921-.708l5.8,1.155c1.619.322,2.763,1.044,1.593,4.211Z" transform="translate(-22.881 -14.695)" fill="#263238"/>
            <path id="Trazado_840372" data-name="Trazado 840372" d="M289.1,159.634,266.928,219.7a3.8,3.8,0,0,1-4.066,2.488l-28.946-5.765a2.6,2.6,0,0,1-1.8-3.656L254.289,152.7c1.277-3.459,2.652-3.366,4.275-3.043l5.8,1.155c.337.068.475.493.306.952l-.074.2c-.4,1.076.21,1.2.957,1.35l13.408,2.67c.754.15,1.36.267,1.758-.81l.074-.2c.169-.46.578-.777.921-.708l5.8,1.155c1.619.322,2.762,1.043,1.593,4.211" transform="translate(-23.19 -14.951)" fill="#fff"/>
            <path id="Trazado_840373" data-name="Trazado 840373" d="M266.164,152.192l-.076.043-.043.024a.652.652,0,0,0-.46-.325.9.9,0,0,0-.621.11c-.006-.012-.012-.024-.019-.036l-.035-.065,0,0h0l.005,0c.031-.015.062-.032.094-.047a1.077,1.077,0,0,1,.2-.068.977.977,0,0,1,.243-.027c.039,0,.076,0,.114.007.013,0,.093.017.1.017l.072.021a.749.749,0,0,1,.182.085.773.773,0,0,1,.112.088.717.717,0,0,1,.1.113c.014.021.027.042.04.064h0" transform="translate(-26.491 -15.18)" fill="#c7c7c7"/>
            <path id="Trazado_840374" data-name="Trazado 840374" d="M265.093,152.277c-.019-.034-.038-.068-.058-.1a.763.763,0,0,1,.426-.1.563.563,0,0,1,.477.282l-.121.068a.438.438,0,0,0-.309-.218.6.6,0,0,0-.416.074" transform="translate(-26.503 -15.207)" fill="#c7c7c7"/>
            <path id="Trazado_840375" data-name="Trazado 840375" d="M265.709,152.517l-.12.067a.226.226,0,0,0-.157-.112.31.31,0,0,0-.213.038c-.02-.034-.038-.068-.057-.1a.393.393,0,0,1,.547.109" transform="translate(-26.516 -15.234)" fill="#c7c7c7"/>
            <path id="Trazado_840376" data-name="Trazado 840376" d="M265.47,152.663a.1.1,0,0,1-.108.061.068.068,0,0,1-.051-.093.1.1,0,0,1,.108-.061.067.067,0,0,1,.051.093" transform="translate(-26.531 -15.257)" fill="#c7c7c7"/>
            <path id="Trazado_840377" data-name="Trazado 840377" d="M260.165,151.189a.285.285,0,0,1,.312-.177.2.2,0,0,1,.148.269.286.286,0,0,1-.313.177.194.194,0,0,1-.148-.269" transform="translate(-26.015 -15.101)" fill="#c7c7c7"/>
            <path id="Trazado_840378" data-name="Trazado 840378" d="M260.972,151.35a.286.286,0,0,1,.313-.177.2.2,0,0,1,.148.269.287.287,0,0,1-.313.177.2.2,0,0,1-.148-.269" transform="translate(-26.096 -15.117)" fill="#c7c7c7"/>
            <path id="Trazado_840379" data-name="Trazado 840379" d="M261.779,151.511a.286.286,0,0,1,.313-.177.2.2,0,0,1,.148.269.287.287,0,0,1-.313.177.2.2,0,0,1-.148-.269" transform="translate(-26.176 -15.133)" fill="#c7c7c7"/>
            <path id="Trazado_840380" data-name="Trazado 840380" d="M262.587,151.672a.286.286,0,0,1,.313-.177.2.2,0,0,1,.148.269.287.287,0,0,1-.313.177.2.2,0,0,1-.148-.269" transform="translate(-26.257 -15.149)" fill="#c7c7c7"/>
            <path id="Trazado_840381" data-name="Trazado 840381" d="M263.394,151.832a.287.287,0,0,1,.313-.177.2.2,0,0,1,.148.269.286.286,0,0,1-.313.177.2.2,0,0,1-.148-.269" transform="translate(-26.338 -15.165)" fill="#c7c7c7"/>
            <path id="Trazado_840382" data-name="Trazado 840382" d="M293.015,158.239l-1.878-.373.311-.842,1.878.374Zm-1.749-.447,1.687.336.243-.657-1.687-.336Z" transform="translate(-29.114 -15.702)" fill="#c7c7c7"/>
            <path id="Trazado_840383" data-name="Trazado 840383" d="M292.785,157.457l-1.211-.241-.206.556,1.211.241Z" transform="translate(-29.137 -15.722)" fill="#c7c7c7"/>
            <path id="Trazado_840384" data-name="Trazado 840384" d="M293.473,158.14l-.167-.033.167-.451.167.033Z" transform="translate(-29.331 -15.766)" fill="#c7c7c7"/>
            <path id="Trazado_840385" data-name="Trazado 840385" d="M278.9,154l-3.658-.728a.191.191,0,0,1-.145-.264.278.278,0,0,1,.306-.174l3.658.728a.192.192,0,0,1,.146.264.28.28,0,0,1-.307.174" transform="translate(-27.508 -15.283)" fill="#fff"/>
            <path id="Trazado_840386" data-name="Trazado 840386" d="M237.174,220.179l-.17-.034-.28.758-.318-.064.142-.386-.563-.112-.142.386-.319-.064.28-.757-.171-.034,1.055-.617Z" transform="translate(-23.552 -21.926)" fill="#ebebeb"/>
            <path id="Trazado_840387" data-name="Trazado 840387" d="M268,225.744l-1.857-.37.1-.257,1.856.37Z" transform="translate(-26.615 -22.512)" fill="#ebebeb"/>
            <path id="Trazado_840388" data-name="Trazado 840388" d="M267.744,226.45l-1.857-.37.1-.257,1.856.37Z" transform="translate(-26.589 -22.582)" fill="#ebebeb"/>
            <path id="Trazado_840389" data-name="Trazado 840389" d="M267.483,227.156l-1.857-.37.1-.257,1.856.37Z" transform="translate(-26.563 -22.653)" fill="#ebebeb"/>
            <path id="Trazado_840390" data-name="Trazado 840390" d="M252.3,223.275l-.729.44-.327-.651.124-.066.269.535.6-.363Z" transform="translate(-25.125 -22.3)" fill="#ebebeb"/>
            <path id="Trazado_840391" data-name="Trazado 840391" d="M251.3,224.213a.815.815,0,0,1-.616-1.12,1.192,1.192,0,0,1,1.3-.737.815.815,0,0,1,.617,1.12,1.191,1.191,0,0,1-1.3.737m.641-1.734a1.033,1.033,0,0,0-1.13.64.707.707,0,0,0,.535.972,1.032,1.032,0,0,0,1.129-.64.707.707,0,0,0-.535-.972" transform="translate(-25.063 -22.234)" fill="#ebebeb"/>
            <path id="Trazado_840392" data-name="Trazado 840392" d="M259.209,157.732l-.684-1.139,1.373-.729.1.2-1.131.6.563.938Z" transform="translate(-25.852 -15.586)" fill="#dbdbdb"/>
            <path id="Trazado_840393" data-name="Trazado 840393" d="M291.657,162.561a.251.251,0,0,1-.274.156.172.172,0,0,1-.131-.237.252.252,0,0,1,.275-.156.172.172,0,0,1,.13.237" transform="translate(-29.124 -16.232)" fill="#dbdbdb"/>
            <path id="Trazado_840394" data-name="Trazado 840394" d="M291.371,163.336a.251.251,0,0,1-.275.156.172.172,0,0,1-.13-.237.252.252,0,0,1,.275-.156.172.172,0,0,1,.13.237" transform="translate(-29.095 -16.31)" fill="#dbdbdb"/>
            <path id="Trazado_840395" data-name="Trazado 840395" d="M291.085,164.111a.251.251,0,0,1-.275.156.172.172,0,0,1-.13-.237.252.252,0,0,1,.275-.156.172.172,0,0,1,.131.237" transform="translate(-29.067 -16.387)" fill="#dbdbdb"/>
            <path id="Trazado_840396" data-name="Trazado 840396" d="M268.268,158.753c4.051.653,8.077,1.455,12.023,2.394-4.052-.652-8.078-1.454-12.023-2.394" transform="translate(-26.827 -15.875)" fill="#dbdbdb"/>
            <path id="Trazado_840397" data-name="Trazado 840397" d="M255.676,162.078a85.689,85.689,0,0,1,8.693,1.732,85.587,85.587,0,0,1-8.693-1.732" transform="translate(-25.568 -16.208)" fill="#dbdbdb"/>
            <path id="Trazado_840398" data-name="Trazado 840398" d="M281.086,170.932a39.4,39.4,0,0,1,5.9,1.174,39.536,39.536,0,0,1-5.9-1.174" transform="translate(-28.109 -17.093)" fill="#dbdbdb"/>
            <path id="Trazado_840399" data-name="Trazado 840399" d="M280.825,171.64a39.4,39.4,0,0,1,5.9,1.174,39.536,39.536,0,0,1-5.9-1.174" transform="translate(-28.083 -17.164)" fill="#dbdbdb"/>
            <path id="Trazado_840400" data-name="Trazado 840400" d="M255.313,163.061a35.284,35.284,0,0,1,5.577,1.111,35.284,35.284,0,0,1-5.577-1.111" transform="translate(-25.531 -16.306)" fill="#dbdbdb"/>
            <path id="Trazado_840401" data-name="Trazado 840401" d="M267.243,168.616l-5.478,7.764-3.167,8.578a7.517,7.517,0,0,1-5.688-10.341,10.991,10.991,0,0,1,12.021-6.814,8.55,8.55,0,0,1,2.312.813" transform="translate(-25.236 -16.762)" fill="#ffc727"/>
            <path id="Trazado_840402" data-name="Trazado 840402" d="M265.153,185.306a10.243,10.243,0,0,1-5.862.625l3.166-8.578Z" transform="translate(-25.929 -17.735)" fill="#263238"/>
            <path id="Trazado_840403" data-name="Trazado 840403" d="M271.667,178.671a10.934,10.934,0,0,1-6.162,6.189l-2.695-7.953,8.878-4.02a8,8,0,0,1-.021,5.784" transform="translate(-26.281 -17.289)" fill="#37474f"/>
            <path id="Trazado_840404" data-name="Trazado 840404" d="M272.87,171.929l-10.2,4.618,6.293-8.919a8.378,8.378,0,0,1,3.9,4.3" transform="translate(-26.267 -16.763)" fill="#c7c7c7"/>
            <path id="Trazado_840405" data-name="Trazado 840405" d="M266.715,177.749a5.5,5.5,0,0,1-6.012,3.407,3.758,3.758,0,0,1-2.845-5.171,5.494,5.494,0,0,1,6.012-3.406,3.758,3.758,0,0,1,2.845,5.171" transform="translate(-25.758 -17.249)" fill="#fff"/>
            <path id="Trazado_840406" data-name="Trazado 840406" d="M279.665,171.477l-.953-.19.341-.923.953.19Z" transform="translate(-27.871 -17.036)" fill="#ffc727"/>
            <path id="Trazado_840407" data-name="Trazado 840407" d="M280.093,173.621a39.4,39.4,0,0,1,5.9,1.174,39.537,39.537,0,0,1-5.9-1.174" transform="translate(-28.009 -17.362)" fill="#dbdbdb"/>
            <path id="Trazado_840408" data-name="Trazado 840408" d="M279.832,174.329a39.434,39.434,0,0,1,5.9,1.175,39.525,39.525,0,0,1-5.9-1.175" transform="translate(-27.983 -17.433)" fill="#dbdbdb"/>
            <path id="Trazado_840409" data-name="Trazado 840409" d="M278.672,174.165l-.953-.19.341-.923.952.19Z" transform="translate(-27.772 -17.305)" fill="#263238"/>
            <path id="Trazado_840410" data-name="Trazado 840410" d="M279.1,176.309a39.434,39.434,0,0,1,5.9,1.174,39.527,39.527,0,0,1-5.9-1.174" transform="translate(-27.91 -17.631)" fill="#dbdbdb"/>
            <path id="Trazado_840411" data-name="Trazado 840411" d="M278.84,177.017a39.4,39.4,0,0,1,5.9,1.175,39.538,39.538,0,0,1-5.9-1.175" transform="translate(-27.884 -17.702)" fill="#dbdbdb"/>
            <path id="Trazado_840412" data-name="Trazado 840412" d="M277.68,176.854l-.953-.19.341-.922.952.19Z" transform="translate(-27.673 -17.574)" fill="#37474f"/>
            <path id="Trazado_840413" data-name="Trazado 840413" d="M278.108,179a39.4,39.4,0,0,1,5.9,1.174,39.533,39.533,0,0,1-5.9-1.174" transform="translate(-27.811 -17.9)" fill="#dbdbdb"/>
            <path id="Trazado_840414" data-name="Trazado 840414" d="M277.847,179.706a39.4,39.4,0,0,1,5.9,1.174,39.535,39.535,0,0,1-5.9-1.174" transform="translate(-27.785 -17.971)" fill="#dbdbdb"/>
            <path id="Trazado_840415" data-name="Trazado 840415" d="M276.687,179.542l-.953-.19.341-.923.953.19Z" transform="translate(-27.573 -17.843)" fill="#c7c7c7"/>
            <path id="Trazado_840416" data-name="Trazado 840416" d="M257.174,219.325l-2.083-.415,7.3-19.784,2.083.415Z" transform="translate(-25.509 -19.913)" fill="#ebebeb"/>
            <path id="Trazado_840417" data-name="Trazado 840417" d="M246.321,188.039c5.612.964,11.484,2.137,17,3.385-5.619-.968-11.489-2.134-17-3.385" transform="translate(-24.632 -18.804)" fill="#263238"/>
            <path id="Trazado_840418" data-name="Trazado 840418" d="M245.87,189.26c3.193.48,6.359,1.111,9.445,1.881-3.194-.481-6.358-1.111-9.445-1.881" transform="translate(-24.587 -18.926)" fill="#263238"/>
            <path id="Trazado_840419" data-name="Trazado 840419" d="M273.03,193.358a67.528,67.528,0,0,1,6.64,1.322,67.472,67.472,0,0,1-6.64-1.322" transform="translate(-27.303 -19.336)" fill="#ffc727"/>
            <path id="Trazado_840420" data-name="Trazado 840420" d="M241.785,207.179l-.682-.136,3.974-10.764.682.136Z" transform="translate(-24.11 -19.628)" fill="#ffc727"/>
            <path id="Trazado_840421" data-name="Trazado 840421" d="M238.564,216.33l-.682-.136,2.555-6.921.682.136Z" transform="translate(-23.788 -20.927)" fill="#455a64"/>
            <path id="Trazado_840422" data-name="Trazado 840422" d="M247.256,203.457l-.682-.136,2.332-6.316.682.136Z" transform="translate(-24.657 -19.701)" fill="#ffc727"/>
            <path id="Trazado_840423" data-name="Trazado 840423" d="M242.211,216.562l-.682-.136,4.2-11.37.682.136Z" transform="translate(-24.153 -20.506)" fill="#455a64"/>
            <path id="Trazado_840424" data-name="Trazado 840424" d="M252.3,200.773l-.682-.136,1.073-2.905.682.136Z" transform="translate(-25.162 -19.773)" fill="#ffc727"/>
            <path id="Trazado_840425" data-name="Trazado 840425" d="M245.858,216.909l-.682-.136,5.457-14.78.682.136Z" transform="translate(-24.518 -20.199)" fill="#455a64"/>
            <path id="Trazado_840426" data-name="Trazado 840426" d="M253.857,206.6l-.682-.136,2.955-8,.682.136Z" transform="translate(-25.317 -19.846)" fill="#ffc727"/>
            <path id="Trazado_840427" data-name="Trazado 840427" d="M249.5,218.2l-.682-.136,3.574-9.681.682.136Z" transform="translate(-24.882 -20.838)" fill="#455a64"/>
            <path id="Trazado_840428" data-name="Trazado 840428" d="M258.2,205.636l-.682-.136,2.332-6.316.682.136Z" transform="translate(-25.751 -19.918)" fill="#ffc727"/>
            <path id="Trazado_840429" data-name="Trazado 840429" d="M253.151,218.741l-.682-.136,4.2-11.37.682.136Z" transform="translate(-25.247 -20.724)" fill="#455a64"/>
            <path id="Trazado_840430" data-name="Trazado 840430" d="M258.784,213.821l-.682-.136,5.086-13.775.681.136Z" transform="translate(-25.81 -19.991)" fill="#ffc727"/>
            <path id="Trazado_840431" data-name="Trazado 840431" d="M256.8,220.3l-.682-.136,1.444-3.911.682.136Z" transform="translate(-25.612 -21.625)" fill="#455a64"/>
            <path id="Trazado_840432" data-name="Trazado 840432" d="M265.681,206.623l-.682-.136,2.16-5.851.682.136Z" transform="translate(-26.5 -20.064)" fill="#ffc727"/>
            <path id="Trazado_840433" data-name="Trazado 840433" d="M260.445,220.142l-.682-.136,4.369-11.834.682.136Z" transform="translate(-25.976 -20.817)" fill="#455a64"/>
            <path id="Trazado_840434" data-name="Trazado 840434" d="M264.954,218.013l-.682-.136,6.1-16.514.682.136Z" transform="translate(-26.427 -20.136)" fill="#ffc727"/>
            <path id="Trazado_840435" data-name="Trazado 840435" d="M264.092,222.053l-.682-.136.433-1.171.681.135Z" transform="translate(-26.341 -22.075)" fill="#455a64"/>
            <path id="Trazado_840436" data-name="Trazado 840436" d="M273.924,205.762l-.682-.136,1.306-3.537.682.136Z" transform="translate(-27.324 -20.209)" fill="#ffc727"/>
            <path id="Trazado_840437" data-name="Trazado 840437" d="M267.738,221.337l-.682-.136,5.224-14.149.682.136Z" transform="translate(-26.706 -20.705)" fill="#455a64"/>
            <path id="Trazado_840438" data-name="Trazado 840438" d="M248.981,192.872a39.4,39.4,0,0,1,5.9,1.174,39.534,39.534,0,0,1-5.9-1.174" transform="translate(-24.898 -19.287)" fill="#dbdbdb"/>
            <path id="Trazado_840439" data-name="Trazado 840439" d="M248.719,193.58a39.4,39.4,0,0,1,5.9,1.174,39.535,39.535,0,0,1-5.9-1.174" transform="translate(-24.872 -19.358)" fill="#dbdbdb"/>
            <path id="Trazado_840440" data-name="Trazado 840440" d="M247.56,193.417l-.953-.19.341-.923.952.19Z" transform="translate(-24.661 -19.23)" fill="#ffc727"/>
            <path id="Trazado_840441" data-name="Trazado 840441" d="M259.921,195.051a39.434,39.434,0,0,1,5.9,1.175,39.522,39.522,0,0,1-5.9-1.175" transform="translate(-25.992 -19.505)" fill="#dbdbdb"/>
            <path id="Trazado_840442" data-name="Trazado 840442" d="M259.66,195.759a39.4,39.4,0,0,1,5.9,1.174,39.533,39.533,0,0,1-5.9-1.174" transform="translate(-25.966 -19.576)" fill="#dbdbdb"/>
            <path id="Trazado_840443" data-name="Trazado 840443" d="M258.5,195.6l-.953-.19.341-.923.953.19Z" transform="translate(-25.755 -19.448)" fill="#455a64"/>
            <path id="Trazado_840444" data-name="Trazado 840444" d="M297.559,231.249c1.824-3.88,8.031-19.147,8.386-25.613s-1.579-31.108-8.142-34.817c-8.248-4.66-10.032,14.492-10.043,22.9s-7.51,17.321-7.51,17.321l12.037,10.65Z" transform="translate(-28.025 -17.01)" fill="#ad6359"/>
            <path id="Trazado_840445" data-name="Trazado 840445" d="M288.842,181.678a83.808,83.808,0,0,1-.126,8.387,53.31,53.31,0,0,1-.563,7.939,23.327,23.327,0,0,1-2.964,7.21c-.653,1.11-1.369,2.165-2.119,3.213-.818,1.14-1.752,2.21-2.548,3.363-.085.122-.288,0-.205-.122a58.557,58.557,0,0,0,3.657-6.773,31.911,31.911,0,0,0,2.55-7.529c1.048-5.186.959-10.547,1.958-15.742.04-.21.35-.143.361.054" transform="translate(-28.03 -18.149)" fill="#263238"/>
            <path id="Trazado_840446" data-name="Trazado 840446" d="M289.011,196.829c-.086-5.889-1.63-30.343,8.926-26.725,5.888,3.423,7.494,16.223,8.171,22.536-1.13-5.879-3.164-18.648-8.542-21.76-9.092-2.958-8,20.594-8.555,25.949" transform="translate(-28.889 -16.974)" fill="#263238"/>
            <path id="Trazado_840447" data-name="Trazado 840447" d="M203.116,237.312l52.239,43.035s-27.785,42.437-46.623,54.41c-8.889,5.65-26.929,5.67-32.94,3.426-5.612-2.094-37.129-33.535-60.711-90.147-18.319-43.972,10.856-33.19,21.805-21.785,11.8,12.288,42.893,43.8,44.608,43.281s21.622-32.222,21.622-32.222" transform="translate(-10.918 -21.617)" fill="#ffc727"/>
            <path id="Trazado_840448" data-name="Trazado 840448" d="M205.995,256.983c7.868,6.14,15.546,12.507,23.18,18.925,3.744,3.147,18.131,16.206,22.277,19.887.164.146-.231.573-.407.438-4.081-3.137-19.287-15.937-22.979-19.147-7.515-6.532-14.988-13.113-22.253-19.912-.13-.121.043-.3.182-.193" transform="translate(-20.577 -25.695)" fill="#263238"/>
            <g id="Grupo_1079897" data-name="Grupo 1079897" transform="translate(98.253 194.568)" opacity="0.1">
              <g id="Grupo_1079896" data-name="Grupo 1079896">
                <g id="Grupo_1079895" data-name="Grupo 1079895" clip-path="url(#clip-path-6)">
                  <path id="Trazado_840449" data-name="Trazado 840449" d="M203.353,337.215c-9.428,3.139-22.6,2.829-27.555.973-5.619-2.1-37.137-33.545-60.723-90.136-10.051-24.118-5.812-31.769,1.885-31.864,11.119,15.489,57.347,80.1,86.393,121.028" transform="translate(-109.17 -216.187)"/>
                </g>
              </g>
            </g>
            <path id="Trazado_840450" data-name="Trazado 840450" d="M160.3,391.188H22.4c6.757-32.665,36.168-150.269,60.155-167.7,14.744-10.712,34.229-3.282,37.541,1.286,13.6,18.776,36.245,136.37,40.2,166.414" transform="translate(-2.24 -21.798)" fill="#ebebeb"/>
            <path id="Trazado_840451" data-name="Trazado 840451" d="M129.207,229.183c-.013-.059-.116-.046-.109.015.671,5.738,1.789,19.072-8.695,18.923-4.223-.06-8.163-2.09-11.467-4.113a54.007,54.007,0,0,1-9.216-7.217,73.991,73.991,0,0,1-8.7-9.463c-.1-.144-.36.03-.248.174,2.636,3.365,4.867,6.895,7.886,10.031a46.625,46.625,0,0,0,9.952,8c3.533,2.07,7.721,4.08,12.185,3.958a8.566,8.566,0,0,0,8.323-6.041c1.434-4.554,1.116-9.76.093-14.27" transform="translate(-9.074 -22.727)" fill="#263238"/>
            <path id="Trazado_840452" data-name="Trazado 840452" d="M86.7,219s9.14,48.791,10.868,66.913S93.794,391.29,93.794,391.29l-73.964,0s22.411-107.3,44.4-148.858C76.5,219.231,86.7,219,86.7,219" transform="translate(-1.983 -21.9)" fill="#ffc727"/>
            <path id="Trazado_840453" data-name="Trazado 840453" d="M129.167,222.682s14.768,55.2,15.738,61.059S150.781,392.1,150.781,392.1l24.17-.168S149.5,237.467,129.167,222.682" transform="translate(-12.917 -22.268)" fill="#ffc727"/>
            <path id="Trazado_840454" data-name="Trazado 840454" d="M62.06,239.344C30.926,281.266-3.865,365.128,6.86,379.628c11.947,16.15,55.255-42.57,54.636-45.556-.467-2.257,10.7-51.795,19.385-87.9,8.673-36.075-11.122-17.19-18.822-6.824" transform="translate(-0.488 -22.506)" fill="#ad6359"/>
            <path id="Trazado_840455" data-name="Trazado 840455" d="M61.687,334.027c.838-5.246,16.316-70.676,20.478-91.263s-3.109-25.754-20.346-5.009-52.1,86.855-57.507,120.1c-5.206,32.022,10.59,29.8,29.444,12.723,15.436-13.981,27.932-36.547,27.932-36.547" transform="translate(-0.331 -22.453)" fill="#ffc727"/>
            <path id="Trazado_840456" data-name="Trazado 840456" d="M68.174,337.814q6.724-38.094,17.064-75.42-6.708,38.09-17.064,75.42" transform="translate(-6.817 -26.239)" fill="#263238"/>
            <path id="Trazado_840457" data-name="Trazado 840457" d="M87.686,266.527a15.927,15.927,0,0,1-3.759,9.318c1.064-3.159,2.412-6.255,3.759-9.318" transform="translate(-8.393 -26.653)" fill="#263238"/>
            <path id="Trazado_840458" data-name="Trazado 840458" d="M6.984,391.737c9.819,10.541,32.384,9.639,89.413,12.7,7.892.424,25.864-54.464,17.461-55.349-10.586-1.115-51.907-3.151-54.947-2.919C33.267,348.133.324,384.586,6.984,391.737" transform="translate(-0.611 -34.615)" fill="#ad6359"/>
            <path id="Trazado_840459" data-name="Trazado 840459" d="M113.19,350.828s20.989-6.78,33.119-6.927c16.242-.2,30.347,6.317,36.093,9.4,11.994,6.444,36.539,30.319,30.9,38.588-5.108,7.484-28.965-18.187-28.965-18.187s28.642,22.161,20.835,30.043-33.8-23.494-33.8-23.494,28.918,23.43,19.58,30.284c-7.056,5.18-32.2-21.911-32.2-21.911s24.717,20.309,17.689,25.95c-7.765,6.232-32.547-17.319-32.547-17.319-20.275,11.328-34.564,8.429-44.482,5.155-2.4-.792,13.79-51.586,13.79-51.586" transform="translate(-9.916 -34.39)" fill="#ad6359"/>
            <path id="Trazado_840460" data-name="Trazado 840460" d="M183.321,367.8c3.459,2.481,6.977,4.97,10.2,7.75s6.359,5.675,9.311,8.743c7.242,7.526,10.6,13.37,10.354,13.032-5.837-8-17.231-18.136-20.46-20.917s-6.3-5.711-9.518-8.49c-.082-.069.027-.178.11-.119" transform="translate(-18.318 -36.778)" fill="#263238"/>
            <path id="Trazado_840461" data-name="Trazado 840461" d="M171.934,380.537c4.28,3.36,8.651,6.538,12.783,10.088,4.112,3.532,7.7,7.243,11.562,11.049.3.293.042.356-.268.074-4.007-3.649-7.993-6.713-12.042-10.315s-7.96-7.362-12.123-10.8c-.065-.054.023-.146.088-.1" transform="translate(-17.182 -38.052)" fill="#263238"/>
            <path id="Trazado_840462" data-name="Trazado 840462" d="M160.181,389.714c6.8,4.8,12.712,10.848,18.366,16.92.281.3-.058.347-.364.056-6-5.74-10.664-10.285-18.17-16.739-.118-.1.023-.338.167-.237" transform="translate(-15.997 -38.969)" fill="#263238"/>
            <path id="Trazado_840463" data-name="Trazado 840463" d="M107.273,347.41,66.265,408.4s-50.757-4.37-59.777-15.961c-5.936-7.629,26.348-46.462,54.85-46.475Z" transform="translate(-0.578 -34.597)" fill="#ffc727"/>
            <path id="Trazado_840464" data-name="Trazado 840464" d="M31.838,359.462c4.049-3.9,15.667-13.3,32.135-13.549.145,0,.181.228.034.244-12.249,1.373-27.816,10.068-32.034,13.491-.111.089-.238-.088-.136-.186" transform="translate(-3.18 -34.591)" fill="#263238"/>
            <path id="Trazado_840465" data-name="Trazado 840465" d="M56.792,401.617c4.151-6.948,8.666-13.667,13.2-20.373s9.064-13.434,13.77-20.032c2.659-3.727,5.3-7.474,8.085-11.108.073-.1.25,0,.185.111-4.14,6.937-8.635,13.684-13.118,20.408q-6.741,10.113-13.69,20.094c-2.615,3.759-5.3,7.472-8.085,11.108-.138.18-.472,0-.35-.208" transform="translate(-5.677 -35.007)" fill="#263238"/>
            <path id="Trazado_840466" data-name="Trazado 840466" d="M113.012,346.612a70.187,70.187,0,0,0-9.406-.793c-3.149-.143-6.3-.233-9.454-.293-6.269-.121-19.539-1.091-30.854.533-.126.018.6.535.725.511,5.349-1.049,45.056,1.2,48.259.979a5.061,5.061,0,0,0-.25.693c-.043.165.141.346.293.209.359-.322.595-.7.928-1.042a.459.459,0,0,0-.241-.8" transform="translate(-6.328 -34.513)" fill="#263238"/>
            <path id="Trazado_840467" data-name="Trazado 840467" d="M20.843,405.695c5.026,1.045,12.062,3.094,17.085,4.407a47.177,47.177,0,0,1-17.085-4.407" transform="translate(-2.084 -40.569)" fill="#263238"/>
            <path id="Trazado_840468" data-name="Trazado 840468" d="M119.745,239.1c-7.472.913-21.69-9.356-25.724-20.337-.273-.755,1.895-7.93,4.115-16.771,1.327-5.372,2.677-11.383,3.513-16.959.166-1.145,33.692,13.738,33.692,13.738s-5.19,11.171-6.588,20.9a12.679,12.679,0,0,0-.1,2.324c0,.107.008.238-.006.386.057,4.452-.9,15.744-8.9,16.72" transform="translate(-9.4 -18.497)" fill="#ad6359"/>
            <path id="Trazado_840469" data-name="Trazado 840469" d="M129.647,222.021c-.013.113-.006.251-.022.386a23.557,23.557,0,0,1-3.606-.351c-20.512-3.54-22.081-30.115-22.148-36.8,6.079,1.822,32.458,13.54,32.458,13.54s-5.194,11.182-6.6,20.911a12.68,12.68,0,0,0-.085,2.314" transform="translate(-10.387 -18.526)" fill="#263238"/>
            <path id="Trazado_840470" data-name="Trazado 840470" d="M102.205,133.857c-5.264,12-2.921,48.745,4.991,57.806,11.47,13.136,32.359,16.721,44.051,2.451,11.335-13.832,7.434-61.66-1.6-70.112-13.306-12.448-39.666-7.876-47.442,9.855" transform="translate(-9.938 -11.697)" fill="#ad6359"/>
            <path id="Trazado_840471" data-name="Trazado 840471" d="M138.159,166.17c-.022-.094-.19.124-.183.226.166,2.476-.061,5.339-2.274,6.24-.069.028-.058.153.025.138,2.722-.481,2.985-4.285,2.432-6.6" transform="translate(-13.566 -16.615)" fill="#263238"/>
            <path id="Trazado_840472" data-name="Trazado 840472" d="M135.538,163.384c-4-.162-4.028,7.843-.325,7.994,3.644.148,3.675-7.858.325-7.994" transform="translate(-13.249 -16.338)" fill="#263238"/>
            <path id="Trazado_840473" data-name="Trazado 840473" d="M154.365,166.682c.019-.094.194.117.19.22-.088,2.48.229,5.333,2.468,6.166.07.025.063.15-.021.139-2.736-.4-3.118-4.19-2.637-6.524" transform="translate(-15.419 -16.666)" fill="#263238"/>
            <path id="Trazado_840474" data-name="Trazado 840474" d="M156.6,163.815c3.99-.286,4.27,7.714.575,7.979-3.638.263-3.919-7.738-.575-7.979" transform="translate(-15.426 -16.381)" fill="#263238"/>
            <path id="Trazado_840475" data-name="Trazado 840475" d="M132.13,158.677a30.793,30.793,0,0,0,3.1-1.079c1.187-.428,2.176-.645,2.956-1.706a1.692,1.692,0,0,0-.265-2.049c-1.2-1.068-2.78-.907-4.229-.449a6.162,6.162,0,0,0-3.563,2.653,1.8,1.8,0,0,0,2,2.63" transform="translate(-12.987 -15.304)" fill="#263238"/>
            <path id="Trazado_840476" data-name="Trazado 840476" d="M159.584,158.756a31.072,31.072,0,0,1-3.178-.838c-1.216-.335-2.219-.476-3.079-1.472a1.693,1.693,0,0,1,.106-2.065c1.111-1.157,2.7-1.116,4.181-.773a6.163,6.163,0,0,1,3.757,2.372,1.806,1.806,0,0,1-1.788,2.776" transform="translate(-15.302 -15.34)" fill="#263238"/>
            <path id="Trazado_840477" data-name="Trazado 840477" d="M135.764,191.731c.591.582,1.181,1.384,2.081,1.463a6.544,6.544,0,0,0,2.668-.614.087.087,0,0,1,.107.128,3.338,3.338,0,0,1-3.153,1.334,2.64,2.64,0,0,1-1.942-2.2c-.037-.144.153-.2.239-.111" transform="translate(-13.552 -19.169)" fill="#263238"/>
            <path id="Trazado_840478" data-name="Trazado 840478" d="M138.713,180.513a8.436,8.436,0,0,0,5.621,3.778,10.578,10.578,0,0,0,3.037.151,3.009,3.009,0,0,0,.58-.065c.181-.021.345-.041.544-.081a.618.618,0,0,0,.5-.553v-.018a1.2,1.2,0,0,0-.023-.254v-.019l0-.217c.059-1.909-.114-4.814-.114-4.814.7.353,4.246,1.966,4.194.968-.462-8.259-.975-17.444-3.178-25.565a.23.23,0,0,0-.453.061c.129,7.956,1.656,15.835,1.913,23.824a14.777,14.777,0,0,0-3.981-1.225c-.271.077.437,5.607.341,6.462a.308.308,0,0,1-.016.091c-3.209.4-5.624-.58-8.729-2.747-.184-.141-.381.024-.233.222" transform="translate(-13.866 -15.365)" fill="#263238"/>
            <path id="Trazado_840479" data-name="Trazado 840479" d="M146.137,186.447a10.021,10.021,0,0,1-4.023,3.093,4.516,4.516,0,0,1-2.739.16c-1.977-.528-2.02-2.346-1.651-3.9a10.769,10.769,0,0,1,.9-2.376,12.978,12.978,0,0,0,7.517,3.022" transform="translate(-13.754 -18.343)" fill="#263238"/>
            <path id="Trazado_840480" data-name="Trazado 840480" d="M142.114,189.8a4.513,4.513,0,0,1-2.738.16c-1.978-.528-2.021-2.345-1.652-3.9,2.121.225,4.217,1.675,4.389,3.739" transform="translate(-13.754 -18.607)" fill="#ff9bbc"/>
            <path id="Trazado_840481" data-name="Trazado 840481" d="M156.589,137.641c-1.074-3.084-2.523-3.737-2.523-3.737s.024-3.648-3.261-8.316c-3.437-4.883-7.169-5.528-7.169-5.528s-3.137-3.535-10.27-4.865c-1.638-.306-6.6-.385-8.139.231-1.766.713-3.647-.22-5.484-.256a12.2,12.2,0,0,0-4.986.957,13.192,13.192,0,0,0-3.652,2.277,20.318,20.318,0,0,0-1.776,1.876,5.8,5.8,0,0,1-3.153,1.843,10.486,10.486,0,0,0-6.454,5.706,13.436,13.436,0,0,0-1.242,5.394c-.089,2.326-2.534,3.418-3.446,5.422a8.741,8.741,0,0,0,1.639,9.542c-3.047,2.181-4.181,7.053-2.554,10.889,1.259,2.973,3.9,4.292,6.563,5.026a7.148,7.148,0,0,0,1.507.241c5.452.905,10.835-5.092,8.858-11.576,0-.019.005-.033.007-.052a14.852,14.852,0,0,0,7.475-5.3c2.071-2.656,2.748-6.3,2.776-9.855,6.843,4.314,16.338.062,17.558-8.733,1.946,2.144,7.547,5.757,10.13,4.95,1.114,7.9,6.293,10.839,7.671,10.795.194-.006,1.155-3.382-.077-6.925m-48.928,24.39c1.579-1.645,2.778-3.977,3.343-8.923a8.849,8.849,0,0,1-3.343,8.923m21.625-24.1a13.65,13.65,0,0,0,8.942-8.891c-1.245,5.381-4.745,8.151-8.942,8.891" transform="translate(-9.338 -11.496)" fill="#263238"/>
            <path id="Trazado_840482" data-name="Trazado 840482" d="M133.8,176.672a10.013,10.013,0,1,1,11.141-11.219h0A10.017,10.017,0,0,1,133.8,176.672m2.258-18.552a8.675,8.675,0,1,0,7.555,7.5,8.73,8.73,0,0,0-7.555-7.5" transform="translate(-12.5 -15.672)" fill="#ffc727"/>
            <path id="Trazado_840483" data-name="Trazado 840483" d="M159.563,176.643c-3.8-.464-6.779-4.778-6.756-10a11.947,11.947,0,0,1,2.145-6.991,6.237,6.237,0,0,1,10.678.045,11.957,11.957,0,0,1,2.084,7.008c-.024,5.521-3.387,10-7.5,9.982a5.875,5.875,0,0,1-.656-.041m1.242-18.613A4.516,4.516,0,0,0,160.3,158a5.342,5.342,0,0,0-4.268,2.442,10.641,10.641,0,0,0-1.885,6.206c-.02,4.783,2.7,8.689,6.08,8.7s6.131-3.866,6.152-8.647a10.624,10.624,0,0,0-1.834-6.223,5.516,5.516,0,0,0-3.737-2.445" transform="translate(-15.281 -15.666)" fill="#ffc727"/>
            <path id="Trazado_840484" data-name="Trazado 840484" d="M146.687,167.4l-.857-1.03c1.525-1.268,5.044-2.968,7.477-.342l-.982.91c-2.177-2.356-5.5.346-5.638.462" transform="translate(-14.583 -16.465)" fill="#ffc727"/>
            <path id="Trazado_840485" data-name="Trazado 840485" d="M97.069,169.63l-1.186-.619c.29-.554,2.91-5.42,5.9-5.892,2.8-.434,20.732,1.323,21.494,1.4l-.132,1.331c-5.142-.509-18.994-1.75-21.152-1.409-1.976.311-4.224,3.852-4.925,5.189" transform="translate(-9.588 -16.305)" fill="#ffc727"/>
            <path id="Trazado_840486" data-name="Trazado 840486" d="M107.062,168.794s-7.016-12.45-12.587-10.057-1.087,19.885,4.9,22.8a6.345,6.345,0,0,0,8.792-2.571Z" transform="translate(-9.193 -15.843)" fill="#ad6359"/>
            <path id="Trazado_840487" data-name="Trazado 840487" d="M96.313,164.3a.086.086,0,0,0-.049.163c4.182,2.187,6.081,6.448,7.278,10.79-1.138-1.738-2.815-2.792-5.124-1.461-.121.07-.029.258.1.244a3.9,3.9,0,0,1,4.143,1.771,18.823,18.823,0,0,1,1.711,3.658c.166.41.889.269.784-.193-.007-.033-.017-.069-.025-.1.65-5.54-2.909-13.729-8.815-14.867" transform="translate(-9.622 -16.43)" fill="#263238"/>
          </g>
        </g>
      </g>
    </g>
    <rect id="Rectángulo_386348" data-name="Rectángulo 386348" width="450" height="450" transform="translate(1264 -7071)" fill="none"/>
  </g>
</svg>
