<svg xmlns="http://www.w3.org/2000/svg" width="120" height="120" viewBox="0 0 120 120">
  <g id="Grupo_1079482" data-name="Grupo 1079482" transform="translate(-425 -4227)">
    <path id="Op_component_1" data-name="Op component 1" d="M60,0A60,60,0,1,1,0,60,60,60,0,0,1,60,0Z" transform="translate(425 4227)" fill="#fff"/>
    <g id="organization-chart" transform="translate(445.936 4248.79)">
      <g id="Grupo_1079466" data-name="Grupo 1079466" transform="translate(2.178 1.115)">
        <g id="Grupo_1079465" data-name="Grupo 1079465">
          <path id="Trazado_838071" data-name="Trazado 838071" d="M17.486,220.214H9.939a1.376,1.376,0,0,1-1.376-1.376V206.2a1.376,1.376,0,0,1,1.376-1.376h7.548a1.376,1.376,0,0,1,1.376,1.376v12.639A1.376,1.376,0,0,1,17.486,220.214Z" transform="translate(-8.563 -175.498)" fill="#ea9a98"/>
          <path id="Trazado_838072" data-name="Trazado 838072" d="M12.889,217.482a1.376,1.376,0,0,1-1.376-1.376V204.825H9.939A1.376,1.376,0,0,0,8.563,206.2v12.639a1.376,1.376,0,0,0,1.376,1.376h7.548a1.376,1.376,0,0,0,1.376-1.376v-1.358Z" transform="translate(-8.563 -175.499)" fill="#e5827f"/>
          <path id="Trazado_838073" data-name="Trazado 838073" d="M168.687,39.559H150.059a2.094,2.094,0,0,1-2.094-2.094V9.594A2.094,2.094,0,0,1,150.059,7.5h18.628a2.094,2.094,0,0,1,2.094,2.094V37.465A2.094,2.094,0,0,1,168.687,39.559Z" transform="translate(-127.247 -7.5)" fill="#cfeffc"/>
          <path id="Trazado_838074" data-name="Trazado 838074" d="M168.687,289.988H150.059a2.094,2.094,0,0,0-2.094,2.094v27.871a2.094,2.094,0,0,0,2.094,2.094h18.628a2.094,2.094,0,0,0,2.094-2.094V292.082A2.094,2.094,0,0,0,168.687,289.988Z" transform="translate(-127.247 -248.005)" fill="#cfeffc"/>
          <path id="Trazado_838075" data-name="Trazado 838075" d="M156.279,35.4a2.094,2.094,0,0,1-2.094-2.094V7.5h-4.126a2.094,2.094,0,0,0-2.094,2.094V37.465a2.094,2.094,0,0,0,2.094,2.094h18.628a2.094,2.094,0,0,0,2.094-2.094V35.4Z" transform="translate(-127.247 -7.5)" fill="#a9e4f9"/>
          <path id="Trazado_838076" data-name="Trazado 838076" d="M156.279,317.886a2.094,2.094,0,0,1-2.094-2.094v-25.8h-4.126a2.094,2.094,0,0,0-2.094,2.094v27.871a2.094,2.094,0,0,0,2.094,2.094h18.628a2.094,2.094,0,0,0,2.094-2.094v-2.067h-14.5Z" transform="translate(-127.247 -248.005)" fill="#a9e4f9"/>
          <path id="Trazado_838077" data-name="Trazado 838077" d="M438.6,19.953h-8.591a1.431,1.431,0,0,1-1.431-1.431V9.931A1.431,1.431,0,0,1,430.011,8.5H438.6a1.431,1.431,0,0,1,1.431,1.431v8.591A1.431,1.431,0,0,1,438.6,19.953Z" transform="translate(-366.158 -8.351)" fill="#fbe88c"/>
          <path id="Trazado_838078" data-name="Trazado 838078" d="M438.6,145.156h-8.591a1.431,1.431,0,0,0-1.431,1.431v8.591a1.431,1.431,0,0,0,1.431,1.431H438.6a1.431,1.431,0,0,0,1.431-1.431v-8.591A1.431,1.431,0,0,0,438.6,145.156Z" transform="translate(-366.158 -124.698)" fill="#fbe88c"/>
          <path id="Trazado_838079" data-name="Trazado 838079" d="M433.741,17.368a1.431,1.431,0,0,1-1.431-1.431V8.5h-2.3a1.431,1.431,0,0,0-1.431,1.431v8.591a1.431,1.431,0,0,0,1.431,1.431H438.6a1.431,1.431,0,0,0,1.431-1.431V17.368Z" transform="translate(-366.158 -8.351)" fill="#fbe372"/>
          <path id="Trazado_838080" data-name="Trazado 838080" d="M433.741,154.024a1.431,1.431,0,0,1-1.431-1.431v-7.437h-2.3a1.431,1.431,0,0,0-1.431,1.431v8.591a1.431,1.431,0,0,0,1.431,1.431H438.6a1.431,1.431,0,0,0,1.431-1.431v-1.154Z" transform="translate(-366.158 -124.698)" fill="#fbe372"/>
          <path id="Trazado_838081" data-name="Trazado 838081" d="M438.6,429.644h-8.591a1.431,1.431,0,0,0-1.431,1.431v8.591a1.431,1.431,0,0,0,1.431,1.431H438.6a1.431,1.431,0,0,0,1.431-1.431v-8.591A1.431,1.431,0,0,0,438.6,429.644Z" transform="translate(-366.158 -366.906)" fill="#b8de9c"/>
          <path id="Trazado_838082" data-name="Trazado 838082" d="M438.6,304.44h-8.591a1.431,1.431,0,0,1-1.431-1.431v-8.591a1.431,1.431,0,0,1,1.431-1.431H438.6a1.431,1.431,0,0,1,1.431,1.431v8.591A1.431,1.431,0,0,1,438.6,304.44Z" transform="translate(-366.158 -250.559)" fill="#b8de9c"/>
          <g id="Grupo_1079464" data-name="Grupo 1079464" transform="translate(62.422 42.429)">
            <path id="Trazado_838083" data-name="Trazado 838083" d="M433.4,438.7a1.431,1.431,0,0,1-1.431-1.431v-7.629h-1.956a1.431,1.431,0,0,0-1.431,1.431v8.591a1.431,1.431,0,0,0,1.431,1.431H438.6a1.431,1.431,0,0,0,1.431-1.431v-.962H433.4Z" transform="translate(-428.58 -409.335)" fill="#a6d786"/>
            <path id="Trazado_838084" data-name="Trazado 838084" d="M433.4,302.048a1.431,1.431,0,0,1-1.431-1.431v-7.629h-1.956a1.431,1.431,0,0,0-1.431,1.431v8.591a1.431,1.431,0,0,0,1.431,1.431H438.6a1.431,1.431,0,0,0,1.431-1.431v-.962Z" transform="translate(-428.58 -292.988)" fill="#a6d786"/>
          </g>
        </g>
      </g>
      <path id="Trazado_838085" data-name="Trazado 838085" d="M66.031,13.831h8.591a2.548,2.548,0,0,0,2.546-2.546V2.694A2.548,2.548,0,0,0,74.622.149H66.031a2.548,2.548,0,0,0-2.546,2.546V5.875h-9.1a1.115,1.115,0,0,0-1.115,1.115v9.04H46.827V3.209A3.212,3.212,0,0,0,43.618,0H24.99a3.212,3.212,0,0,0-3.209,3.209V16.03H18.768a2.215,2.215,0,0,0-2.212,2.212V37.17H13.592V31.816a2.493,2.493,0,0,0-2.49-2.49H3.554a2.493,2.493,0,0,0-2.49,2.49V44.455a2.493,2.493,0,0,0,2.49,2.49H11.1a2.493,2.493,0,0,0,2.49-2.49V39.4h2.963v18.63a2.215,2.215,0,0,0,2.212,2.212h3.014V73.063a3.212,3.212,0,0,0,3.209,3.209H43.618a3.212,3.212,0,0,0,3.209-3.209V68.226a1.115,1.115,0,1,0-2.229,0v4.837a.98.98,0,0,1-.979.979H24.99a.98.98,0,0,1-.979-.979V45.191a.98.98,0,0,1,.979-.979H43.618a.98.98,0,0,1,.979.979V63.472a1.115,1.115,0,0,0,2.229,0V60.539h6.442v9.04a1.115,1.115,0,0,0,1.115,1.115h9.1v3.181a2.549,2.549,0,0,0,2.546,2.546h8.591a2.548,2.548,0,0,0,2.546-2.546V65.284a2.549,2.549,0,0,0-2.546-2.546H72.684a1.115,1.115,0,1,0,0,2.229h1.938a.317.317,0,0,1,.316.316v8.591a.317.317,0,0,1-.316.316H66.032a.317.317,0,0,1-.316-.316V65.284a.317.317,0,0,1,.316-.316h1.9a1.115,1.115,0,1,0,0-2.229h-1.9a2.548,2.548,0,0,0-2.546,2.546v3.181H55.5V50.384h7.988v3.181a2.549,2.549,0,0,0,2.546,2.546h8.591a2.548,2.548,0,0,0,2.546-2.546V44.974a2.548,2.548,0,0,0-2.546-2.546H66.032a2.548,2.548,0,0,0-2.546,2.546v3.181h-9.1a1.115,1.115,0,0,0-1.115,1.115v9.04H46.827V45.191a3.212,3.212,0,0,0-3.208-3.209H24.99a3.212,3.212,0,0,0-3.209,3.209V58.012h-3V18.259h3v4.432a1.115,1.115,0,1,0,2.229,0V3.209a.98.98,0,0,1,.979-.979H43.618a.98.98,0,0,1,.979.979V31.08a.98.98,0,0,1-.979.979H24.99a.98.98,0,0,1-.979-.979V27.444a1.115,1.115,0,0,0-2.229,0V31.08a3.212,3.212,0,0,0,3.209,3.209H43.618a3.212,3.212,0,0,0,3.208-3.209V18.259h6.442V27.3a1.115,1.115,0,0,0,1.115,1.115h9.1v3.181a2.548,2.548,0,0,0,2.546,2.546h8.591a2.548,2.548,0,0,0,2.546-2.546V23a2.549,2.549,0,0,0-2.546-2.546H66.032A2.548,2.548,0,0,0,63.486,23v3.181H55.5V8.1h7.988v3.181a2.548,2.548,0,0,0,2.545,2.546ZM11.363,44.455a.261.261,0,0,1-.261.261H3.554a.261.261,0,0,1-.261-.261V31.816a.261.261,0,0,1,.261-.261H11.1a.261.261,0,0,1,.261.261Zm54.352.519a.317.317,0,0,1,.316-.316h8.591a.316.316,0,0,1,.316.316v8.591a.317.317,0,0,1-.316.316H66.031a.317.317,0,0,1-.316-.316Zm0-21.97a.317.317,0,0,1,.316-.316h8.591a.317.317,0,0,1,.316.316v8.591a.317.317,0,0,1-.316.316H66.031a.316.316,0,0,1-.316-.316Zm0-20.309a.317.317,0,0,1,.316-.316h8.591a.317.317,0,0,1,.316.316v8.591a.317.317,0,0,1-.316.316H66.031a.316.316,0,0,1-.316-.316Z"/>
    </g>
  </g>
</svg>
