<svg xmlns="http://www.w3.org/2000/svg" width="100" height="100" viewBox="0 0 100 100">
  <g id="Grupo_1079832" data-name="Grupo 1079832" transform="translate(5405 2320)">
    <circle id="Elipse_10226" data-name="Elipse 10226" cx="50" cy="50" r="50" transform="translate(-5405 -2320)" fill="#1682fb"/>
    <g id="test" transform="translate(-5384.167 -2299.167)">
      <g id="Grupo_1079824" data-name="Grupo 1079824" transform="translate(0)">
        <path id="Trazado_838963" data-name="Trazado 838963" d="M176.6,277.736a5.246,5.246,0,1,0,5.246,5.245A5.251,5.251,0,0,0,176.6,277.736Zm0,8.78a3.535,3.535,0,1,1,3.535-3.535A3.539,3.539,0,0,1,176.6,286.516Z" transform="translate(-151.821 -246.059)" fill="#fff"/>
        <path id="Trazado_838964" data-name="Trazado 838964" d="M176.6,394.245a5.246,5.246,0,1,0,5.246,5.245A5.251,5.251,0,0,0,176.6,394.245Zm0,8.78a3.535,3.535,0,1,1,3.535-3.535A3.539,3.539,0,0,1,176.6,403.025Z" transform="translate(-151.821 -349.28)" fill="#fff"/>
        <path id="Trazado_838965" data-name="Trazado 838965" d="M183.072,161.745l-2.01,1.658a5.24,5.24,0,1,0,.778,1.576l2.321-1.915Zm-2.725,4.727a3.538,3.538,0,1,1-.607-1.978l-2.465,2.034-1.731-1.666-1.186,1.233,2.83,2.724,3.15-2.6C180.343,166.3,180.347,166.387,180.347,166.473Z" transform="translate(-152.031 -142.838)" fill="#fff"/>
        <path id="Trazado_838966" data-name="Trazado 838966" d="M.075,365.66H1.786v16.645H.075Z" transform="translate(-0.075 -323.955)" fill="#fff"/>
        <path id="Trazado_838967" data-name="Trazado 838967" d="M5.493,108.21a2.545,2.545,0,0,0-2.449,1.866L.075,120.888v14.974H1.786v-14H9.2v32.36H10.91v-33.33L7.942,110.076a2.546,2.546,0,0,0-2.449-1.866Zm-.8,2.319a.831.831,0,0,1,1.6,0l2.641,9.618H2.052Z" transform="translate(-0.075 -95.868)" fill="#fff"/>
        <path id="Trazado_838968" data-name="Trazado 838968" d="M113.075,58.35h1.711V1.711h4.708V0h-6.419Z" transform="translate(-100.187)" fill="#fff"/>
        <path id="Trazado_838969" data-name="Trazado 838969" d="M496.525,391.86h1.711v13.657h-1.711Z" transform="translate(-439.903 -347.167)" fill="#fff"/>
        <path id="Trazado_838970" data-name="Trazado 838970" d="M211.545,0h-27.19V1.711h25.981v9.624h9.624V42.983h1.711V10.125Zm.5,2.92,6.7,6.7h-6.7Z" transform="translate(-163.337)" fill="#fff"/>
        <path id="Trazado_838971" data-name="Trazado 838971" d="M309.94,184.719h14.98v1.711H309.94Z" transform="translate(-274.598 -163.651)" fill="#fff"/>
        <path id="Trazado_838972" data-name="Trazado 838972" d="M309.94,214.719h9.278v1.711H309.94Z" transform="translate(-274.598 -190.229)" fill="#fff"/>
        <path id="Trazado_838973" data-name="Trazado 838973" d="M309.94,301.228h14.98v1.711H309.94Z" transform="translate(-274.598 -266.872)" fill="#fff"/>
        <path id="Trazado_838974" data-name="Trazado 838974" d="M309.94,331.228h9.278v1.711H309.94Z" transform="translate(-274.598 -293.45)" fill="#fff"/>
        <path id="Trazado_838975" data-name="Trazado 838975" d="M309.94,417.736h14.98v1.711H309.94Z" transform="translate(-274.598 -370.091)" fill="#fff"/>
        <path id="Trazado_838976" data-name="Trazado 838976" d="M309.94,447.736h9.278v1.711H309.94Z" transform="translate(-274.598 -396.67)" fill="#fff"/>
        <path id="Trazado_838977" data-name="Trazado 838977" d="M181.194,39.662,177.341,44.6l3.853,4.935,1.348-1.053L179.512,44.6l3.031-3.882Z" transform="translate(-157.123 -35.138)" fill="#fff"/>
        <path id="Trazado_838978" data-name="Trazado 838978" d="M322.112,49.532l3.853-4.935-3.853-4.935-1.348,1.053L323.8,44.6l-3.031,3.882Z" transform="translate(-284.188 -35.138)" fill="#fff"/>
        <path id="Trazado_838979" data-name="Trazado 838979" d="M0,0H9.218V1.711H0Z" transform="matrix(0.792, -0.611, 0.611, 0.792, 26.832, 11.589)" fill="#fff"/>
      </g>
      <g id="Grupo_1079827" data-name="Grupo 1079827" transform="translate(4.562 28.912)">
        <g id="Grupo_1079825" data-name="Grupo 1079825">
          <path id="Trazado_838980" data-name="Trazado 838980" d="M40.075,253.489h1.711V255.2H40.075Z" transform="translate(-40.075 -253.489)" fill="#fff"/>
        </g>
        <g id="Grupo_1079826" data-name="Grupo 1079826" transform="translate(0 3.422)">
          <path id="Trazado_838981" data-name="Trazado 838981" d="M40.075,283.489h1.711V285.2H40.075Z" transform="translate(-40.075 -283.489)" fill="#fff"/>
        </g>
      </g>
    </g>
  </g>
</svg>
