<svg xmlns="http://www.w3.org/2000/svg" width="85" height="115" viewBox="0 0 85 115">
  <g id="Grupo_1079161" data-name="Grupo 1079161" transform="translate(-180 -386)">
    <rect id="Rectángulo_385830" data-name="Rectángulo 385830" width="85" height="115" rx="10" transform="translate(180 386)" fill="#add3fd"/>
    <path id="usability_1_" data-name="usability(1)" d="M6.14,28.652a6.142,6.142,0,0,0,6.017-7.363l6.908-4.144a10.236,10.236,0,0,0,1.4,1.273V29a6.138,6.138,0,0,0-8.186,5.788V47.773a10.164,10.164,0,0,0,3,7.235c1.07,1.38,5.189,3.806,5.189,9.428v3.373a2.046,2.046,0,0,0,2.047,2.047H51.164a2.046,2.046,0,0,0,2.047-2.047V63.215A15,15,0,0,1,54.927,56.4,22.621,22.621,0,0,0,57.3,46.333V30.7a6.136,6.136,0,0,0-8.4-5.706,6.136,6.136,0,0,0-10.016-2.96,6.13,6.13,0,0,0-6.14-1.215v-2.4A10.288,10.288,0,0,0,36.3,13.507l17.057,2.132a6.142,6.142,0,1,0,.509-4.061L36.805,9.445a10.231,10.231,0,1,0-19.846,4.189L10.048,17.78A6.139,6.139,0,1,0,6.14,28.652ZM59.35,12.279A2.047,2.047,0,1,1,57.3,14.326,2.049,2.049,0,0,1,59.35,12.279ZM34.792,24.559a2.049,2.049,0,0,1,2.047,2.047v8.186a2.047,2.047,0,1,0,4.093,0V26.605a2.047,2.047,0,0,1,4.093,0V38.885a2.047,2.047,0,0,0,4.093,0V30.7a2.047,2.047,0,1,1,4.093,0V46.333a18.514,18.514,0,0,1-1.945,8.237,18.627,18.627,0,0,0-2.148,8.645v2.548H24.559V64.436c0-7.605-5.464-11.093-6.388-12.322a6.1,6.1,0,0,1-1.8-4.341V34.792a2.047,2.047,0,1,1,4.093,0v8.186a2.047,2.047,0,1,0,4.093,0V14.326a2.047,2.047,0,0,1,1.956-2.042l.7.087a2.05,2.05,0,0,1,1.441,1.955V34.792a2.047,2.047,0,0,0,4.093,0V26.605a2.049,2.049,0,0,1,2.047-2.047ZM26.605,4.093a6.129,6.129,0,0,1,5.786,8.181,6.145,6.145,0,0,0-5.726-4.087h-.06a6.148,6.148,0,0,0-5.786,4.088,6.129,6.129,0,0,1,5.786-8.181ZM6.14,20.466a2.047,2.047,0,1,1-2.047,2.047A2.049,2.049,0,0,1,6.14,20.466Zm0,0" transform="translate(189.755 408.571)" fill="#1682fb"/>
  </g>
</svg>
