<svg xmlns="http://www.w3.org/2000/svg" width="100" height="100" viewBox="0 0 100 100">
  <g id="Grupo_1079833" data-name="Grupo 1079833" transform="translate(5405 2188)">
    <circle id="Elipse_10227" data-name="Elipse 10227" cx="50" cy="50" r="50" transform="translate(-5405 -2188)" fill="#1682fb"/>
    <g id="test_1_" data-name="test(1)" transform="translate(-5384.167 -2167.167)">
      <g id="Grupo_1079830" data-name="Grupo 1079830" transform="translate(0 0)">
        <path id="Trazado_838988" data-name="Trazado 838988" d="M55.112,51.459V27.27A6.6,6.6,0,0,0,48.1,20.712V.05H10.124V7.786h1.711V1.761H46.386v49.7H44.041V33.711H38.909v4.176H35.487v3.905H32.066v9.666H27.417V42.17l-1.69-6.843V28.874H14.111V51.459H11.834V9.5H10.124V20.712a6.587,6.587,0,0,0-6.9,6.558V51.458H0V54.1a4.281,4.281,0,0,0,4.277,4.277H46.386V56.661H4.277A2.569,2.569,0,0,1,1.711,54.1v-.926H56.623V54.1a2.569,2.569,0,0,1-2.566,2.566H48.1v1.711h5.96A4.281,4.281,0,0,0,58.333,54.1V51.458H55.112ZM48.554,22.423A4.852,4.852,0,0,1,53.4,27.27V51.459h-1.86V26.96A2.646,2.646,0,0,0,48.9,24.316h-.8V22.423Zm-.457,3.6h.8a.934.934,0,0,1,.933.933v24.5H48.1Zm-7.478,9.395H42.33V51.458H40.619ZM37.2,39.6h1.711V51.458H37.2ZM33.777,43.5h1.711v7.955H33.777Zm-9.5-6.9,1.189,4.813H23.092Zm-1.426,6.523h2.851v8.329H22.855Zm-7.033,6.852h4.2V48.271h-4.2V45.876h2.944V44.165H15.822V41.771h4.2V40.06h-4.2V37.665h2.944V35.954H15.822v-5.37h8.194v3.992h-1L21.144,42.17v9.289H15.822V49.982Zm-5.7,1.477H8.5V26.96a.934.934,0,0,1,.933-.933h.688ZM4.932,27.27a4.88,4.88,0,0,1,5.191-4.847v1.893H9.436A2.647,2.647,0,0,0,6.792,26.96v24.5H4.932Z" transform="translate(0 -0.05)" fill="#fff"/>
        <path id="Trazado_838989" data-name="Trazado 838989" d="M160.048,30.241A12.269,12.269,0,0,0,147.793,42.5c.673,16.258,23.839,16.253,24.51,0A12.269,12.269,0,0,0,160.048,30.241ZM149.5,42.5a10.558,10.558,0,0,1,9.689-10.509V42.142l-7.177,7.177A10.5,10.5,0,0,1,149.5,42.5ZM160.048,53.04a10.5,10.5,0,0,1-6.823-2.512L160.9,42.85V31.987C174.242,33.529,173.516,52.562,160.048,53.04Z" transform="translate(-130.938 -26.798)" fill="#fff"/>
        <path id="Trazado_838990" data-name="Trazado 838990" d="M265.56,241.453l-4.185,2.357.839,1.491,4.623-2.6,2.637-4.981,5.577-2.08-.6-1.6-6.187,2.307Z" transform="translate(-231.567 -207.349)" fill="#fff"/>
      </g>
      <g id="Grupo_1079831" data-name="Grupo 1079831" transform="translate(32.184 14.843)">
        <path id="Trazado_838991" data-name="Trazado 838991" d="M282.209,130.2h1.711v1.711h-1.711Z" transform="translate(-282.209 -130.199)" fill="#fff"/>
        <path id="Trazado_838992" data-name="Trazado 838992" d="M312.209,130.2h1.711v1.711h-1.711Z" transform="translate(-308.788 -130.199)" fill="#fff"/>
      </g>
    </g>
  </g>
</svg>
