<svg xmlns="http://www.w3.org/2000/svg" xmlns:xlink="http://www.w3.org/1999/xlink" width="128" height="128" viewBox="0 0 128 128">
  <defs>
    <filter id="Trazado_822180" x="0" y="0" width="128" height="128" filterUnits="userSpaceOnUse">
      <feOffset dy="3" input="SourceAlpha"/>
      <feGaussianBlur stdDeviation="7" result="blur"/>
      <feFlood flood-color="#fff" flood-opacity="0.659"/>
      <feComposite operator="in" in2="blur"/>
      <feComposite in="SourceGraphic"/>
    </filter>
  </defs>
  <g id="Grupo_1079190" data-name="Grupo 1079190" transform="translate(-182 -1588)">
    <g transform="matrix(1, 0, 0, 1, 182, 1588)" filter="url(#Trazado_822180)">
      <path id="Trazado_822180-2" data-name="Trazado 822180" d="M43,0A43,43,0,1,1,0,43,43,43,0,0,1,43,0Z" transform="translate(21 18)" fill="#ffce00"/>
    </g>
    <g id="search" transform="translate(223.308 1626.309)">
      <path id="Trazado_835941" data-name="Trazado 835941" d="M265.89,243.448a2.051,2.051,0,0,0,1.479-.623l3.485-3.573a2.066,2.066,0,0,0-2.958-2.885l-2.044,2.1-.358-.348a2.066,2.066,0,1,0-2.881,2.962l1.837,1.786A2.055,2.055,0,0,0,265.89,243.448Zm-2.363-4.364a.735.735,0,0,1,1.038-.014l.835.812a.666.666,0,0,0,.941-.012l2.509-2.572a.734.734,0,0,1,1.051,1.024l-3.485,3.572a.737.737,0,0,1-1.037.014l-1.837-1.786A.735.735,0,0,1,263.527,239.084Z" transform="translate(-238.765 -214.848)" fill="#273a89" stroke="#273a89" stroke-width="1"/>
      <path id="Trazado_835942" data-name="Trazado 835942" d="M219.021,193.284a.666.666,0,0,0-1.064.8,8.781,8.781,0,0,0,.8.916,8.665,8.665,0,1,0-2.129-3.488.666.666,0,0,0,1.269-.405,7.345,7.345,0,1,1,1.8,2.951A7.457,7.457,0,0,1,219.021,193.284Z" transform="translate(-197.046 -164.231)" fill="#273a89" stroke="#273a89" stroke-width="1"/>
      <path id="Trazado_835943" data-name="Trazado 835943" d="M44.466,36.81l-4.2-4.2a.666.666,0,0,0-.942,0l-.026.026-1.617-1.617a11.7,11.7,0,0,0,1.863-5.634.666.666,0,0,0-1.33-.084,10.382,10.382,0,0,1-10.36,9.727h-.063A10.385,10.385,0,1,1,38.068,22.8a.666.666,0,0,0,1.312-.235,11.73,11.73,0,0,0-6.037-8.274V8.92a.674.674,0,0,0-.2-.471L24.892.2a.675.675,0,0,0-.471-.2H2A2,2,0,0,0,0,2V7.6a.666.666,0,0,0,1.332,0V2A.667.667,0,0,1,2,1.332H23.755V7.588a2,2,0,0,0,2,2H32.01v4.1a11.771,11.771,0,0,0-4.043-.76l-.02,0H13.074a.666.666,0,1,0,0,1.332H22.4a11.677,11.677,0,0,0-2.657,1.908h-6.67a.666.666,0,1,0,0,1.332h5.471a11.6,11.6,0,0,0-2.186,4.763H13.074a.666.666,0,1,0,0,1.332h3.09q-.046.521-.047,1.05,0,.434.031.863H13.074a.666.666,0,1,0,0,1.332h3.248a11.594,11.594,0,0,0,2.225,4.952H13.074a.666.666,0,1,0,0,1.332h6.672a11.675,11.675,0,0,0,2.653,1.9H13.074a.666.666,0,1,0,0,1.332H27.84a11.779,11.779,0,0,0,4.17-.762v7.791a.667.667,0,0,1-.666.666H2a.667.667,0,0,1-.666-.666V10.262a.666.666,0,0,0-1.332,0V43.386a2,2,0,0,0,2,2H31.344a2,2,0,0,0,2-2V34.992q.446-.237.875-.514l1.617,1.617a.672.672,0,0,0-.026.968l4.2,4.2a3.15,3.15,0,0,0,4.455-4.454ZM25.754,8.254a.667.667,0,0,1-.666-.666V2.274l5.981,5.98ZM35.3,33.68q.426-.352.826-.751t.751-.826l1.472,1.472-1.577,1.577Zm8.22,6.642a1.826,1.826,0,0,1-2.571,0l-3.732-3.731,2.571-2.57,3.732,3.731A1.826,1.826,0,0,1,43.524,40.322Z" transform="translate(0.001 0)" fill="#273a89" stroke="#273a89" stroke-width="1"/>
      <path id="Trazado_835944" data-name="Trazado 835944" d="M52.883,144.2H55.8a1.492,1.492,0,0,0,1.49-1.49V139.8a1.492,1.492,0,0,0-1.49-1.49H52.883a1.492,1.492,0,0,0-1.49,1.49v2.914A1.492,1.492,0,0,0,52.883,144.2Zm-.158-4.4a.158.158,0,0,1,.158-.158H55.8a.158.158,0,0,1,.158.158v2.914a.158.158,0,0,1-.158.158H52.883a.158.158,0,0,1-.158-.158Z" transform="translate(-46.838 -126.05)" fill="#273a89" stroke="#273a89" stroke-width="1"/>
      <path id="Trazado_835945" data-name="Trazado 835945" d="M51.393,248.082a1.492,1.492,0,0,0,1.49,1.49H55.8a1.492,1.492,0,0,0,1.49-1.49v-2.914a1.492,1.492,0,0,0-1.49-1.49H52.883a1.492,1.492,0,0,0-1.49,1.49Zm1.332-2.914a.158.158,0,0,1,.158-.158H55.8a.158.158,0,0,1,.158.158v2.914a.158.158,0,0,1-.158.158H52.883a.158.158,0,0,1-.158-.158Z" transform="translate(-46.838 -222.078)" fill="#273a89" stroke="#273a89" stroke-width="1"/>
      <path id="Trazado_835946" data-name="Trazado 835946" d="M51.393,355.589a1.492,1.492,0,0,0,1.49,1.49H55.8a1.492,1.492,0,0,0,1.49-1.49v-2.914a1.492,1.492,0,0,0-1.49-1.49H52.883a1.492,1.492,0,0,0-1.49,1.49Zm1.332-2.914a.158.158,0,0,1,.158-.158H55.8a.158.158,0,0,1,.158.158v2.914a.158.158,0,0,1-.158.158H52.883a.158.158,0,0,1-.158-.158Z" transform="translate(-46.838 -320.056)" fill="#273a89" stroke="#273a89" stroke-width="1"/>
    </g>
  </g>
</svg>
