<svg xmlns="http://www.w3.org/2000/svg" width="100" height="100" viewBox="0 0 100 100">
  <g id="Grupo_1079834" data-name="Grupo 1079834" transform="translate(5405 2042)">
    <circle id="Elipse_10228" data-name="Elipse 10228" cx="50" cy="50" r="50" transform="translate(-5405 -2042)" fill="#1682fb"/>
    <g id="component" transform="translate(-5384.167 -2021.167)">
      <g id="Grupo_1079828" data-name="Grupo 1079828" transform="translate(0 0)">
        <path id="Trazado_838982" data-name="Trazado 838982" d="M48.923,39.688a9.422,9.422,0,0,0-9.37,8.555H14.543a2.569,2.569,0,0,1-2.566-2.566V36.209h7.7a2.569,2.569,0,0,0,2.566-2.566V29.365h13.8v4.277a2.569,2.569,0,0,0,2.566,2.566h17.11a2.569,2.569,0,0,0,2.566-2.566V23.376a2.569,2.569,0,0,0-2.566-2.566H53.038v1.711h2.683a.856.856,0,0,1,.855.855V33.642a.856.856,0,0,1-.855.855H45.507V22.521h5.82V20.81H48.022V15.563h7.7A2.569,2.569,0,0,0,58.288,13V2.73A2.569,2.569,0,0,0,55.721.164H53.038V1.875h2.683a.856.856,0,0,1,.855.855V13a.856.856,0,0,1-.855.855H45.507V1.875h5.82V.164H38.611A2.569,2.569,0,0,0,36.045,2.73V7.008h-13.8V2.73A2.569,2.569,0,0,0,19.676.164H16.994V1.875h2.683a.856.856,0,0,1,.855.855V13a.856.856,0,0,1-.855.855H9.463V1.875h5.82V.164H2.566A2.569,2.569,0,0,0,0,2.73V13a2.569,2.569,0,0,0,2.566,2.566h17.11A2.569,2.569,0,0,0,22.243,13V8.719h13.8V13a2.569,2.569,0,0,0,2.566,2.566h7.7V20.81h-7.7a2.569,2.569,0,0,0-2.566,2.566v4.277h-13.8V23.376a2.569,2.569,0,0,0-2.566-2.566H16.994v1.711h2.683a.856.856,0,0,1,.855.855V33.642a.856.856,0,0,1-.855.855H9.463V22.521h5.82V20.81H2.566A2.569,2.569,0,0,0,0,23.376V33.642a2.569,2.569,0,0,0,2.566,2.566h7.7v9.467a4.282,4.282,0,0,0,4.277,4.277h25.01c1.478,11.831,18.36,11.111,18.78-.856A9.421,9.421,0,0,0,48.923,39.688ZM1.711,13V2.73a.856.856,0,0,1,.855-.855H7.752V13.852H2.566A.856.856,0,0,1,1.711,13Zm36.045,0V2.73a.856.856,0,0,1,.855-.855H43.8V13.852H38.611A.856.856,0,0,1,37.756,13Zm0,10.38a.856.856,0,0,1,.855-.855H43.8V34.5H38.611a.856.856,0,0,1-.855-.855ZM1.711,33.642V23.376a.856.856,0,0,1,.855-.855H7.752V34.5H2.566A.856.856,0,0,1,1.711,33.642ZM48.923,56.8a7.708,7.708,0,0,1-7.7-7.7c.423-10.214,14.978-10.211,15.4,0A7.708,7.708,0,0,1,48.923,56.8Z" transform="translate(0 -0.164)" fill="#fff"/>
        <path id="Trazado_838983" data-name="Trazado 838983" d="M395.812,397.153l-5.746,5.53-2.437-2.092-1.115,1.3,3.617,3.106L397,398.386Z" transform="translate(-342.427 -351.87)" fill="#fff"/>
      </g>
      <g id="Grupo_1079829" data-name="Grupo 1079829" transform="translate(3.876 3.422)">
        <path id="Trazado_838984" data-name="Trazado 838984" d="M33.979,30.164H35.69v1.711H33.979Z" transform="translate(-33.979 -30.164)" fill="#fff"/>
        <path id="Trazado_838985" data-name="Trazado 838985" d="M349.979,30.164h1.711v1.711h-1.711Z" transform="translate(-313.934 -30.164)" fill="#fff"/>
        <path id="Trazado_838986" data-name="Trazado 838986" d="M33.979,211.164H35.69v1.711H33.979Z" transform="translate(-33.979 -190.518)" fill="#fff"/>
        <path id="Trazado_838987" data-name="Trazado 838987" d="M349.979,211.164h1.711v1.711h-1.711Z" transform="translate(-313.934 -190.518)" fill="#fff"/>
      </g>
    </g>
  </g>
</svg>
