<svg xmlns="http://www.w3.org/2000/svg" xmlns:xlink="http://www.w3.org/1999/xlink" width="122" height="122" viewBox="0 0 122 122">
  <defs>
    <filter id="Trazado_824488" x="0" y="0" width="122" height="122" filterUnits="userSpaceOnUse">
      <feOffset dy="3" input="SourceAlpha"/>
      <feGaussianBlur stdDeviation="7" result="blur"/>
      <feFlood flood-color="#fff" flood-opacity="0.659"/>
      <feComposite operator="in" in2="blur"/>
      <feComposite in="SourceGraphic"/>
    </filter>
  </defs>
  <g id="Grupo_1074724" data-name="Grupo 1074724" transform="translate(-182 -2353)">
    <g id="Grupo_1074191" data-name="Grupo 1074191" transform="translate(-2 1577)">
      <g transform="matrix(1, 0, 0, 1, 184, 776)" filter="url(#Trazado_824488)">
        <path id="Trazado_824488-2" data-name="Trazado 824488" d="M40,0A40,40,0,1,1,0,40,40,40,0,0,1,40,0Z" transform="translate(21 18)" fill="#ffce00"/>
      </g>
    </g>
    <g id="Grupo_4400" data-name="Grupo 4400" transform="translate(220 2384)">
      <path id="Trazado_724" data-name="Trazado 724" d="M4.251-.047,26.983-.053c1.477,1.5,10.351,10.46,13.454,13.6V49.4a4.278,4.278,0,0,1-4.251,4.3H4.251A4.278,4.278,0,0,1,0,49.4V4.257A4.278,4.278,0,0,1,4.251-.047Z" transform="translate(5.555 0.067)" fill="#fff"/>
      <g id="Grupo_1192" data-name="Grupo 1192">
        <path id="Trazado_722" data-name="Trazado 722" d="M1496.692,662.327h-22.658a4.432,4.432,0,0,0-4.4,4.454v44.844a4.432,4.432,0,0,0,4.4,4.454h31.638a4.432,4.432,0,0,0,4.4-4.454V675.873Zm10.907,49.3a1.942,1.942,0,0,1-1.928,1.952h-31.638a1.942,1.942,0,0,1-1.928-1.952V666.781a1.942,1.942,0,0,1,1.928-1.952h21.634l.012.012V676.9h11.911l.008.008Z" transform="translate(-1464.117 -662.327)" fill="#fc7c6b"/>
        <path id="Trazado_723" data-name="Trazado 723" d="M1459.213,950.207a1.715,1.715,0,0,1-1.653,1.762h-36.373a1.715,1.715,0,0,1-1.653-1.762V932.589a1.715,1.715,0,0,1,1.653-1.762h36.373a1.715,1.715,0,0,1,1.653,1.762Z" transform="translate(-1419.534 -906.092)" fill="#f15642"/>
        <path id="Trazado_840980" data-name="Trazado 840980" d="M-9.717-9.1h-4.16V0H-11.3V-2.379h1.586c2.483,0,4.043-1.287,4.043-3.354S-7.234-9.1-9.717-9.1Zm-.156,4.693H-11.3V-7.072h1.43c1.066,0,1.6.494,1.6,1.339S-8.807-4.407-9.873-4.407ZM-3.906,0H.4C3.413,0,5.48-1.755,5.48-4.55S3.413-9.1.4-9.1h-4.3Zm2.574-2.054V-7.046H.293A2.366,2.366,0,0,1,2.88-4.55a2.366,2.366,0,0,1-2.587,2.5ZM14.489-7.111V-9.1H7.352V0H9.926V-3.12h4.017V-5.109H9.926v-2Z" transform="translate(17.999 40)" fill="#f8f8f8"/>
      </g>
    </g>
  </g>
</svg>
