<svg xmlns="http://www.w3.org/2000/svg" width="54.704" height="51.826" viewBox="0 0 54.704 51.826">
  <g id="website_1_" data-name="website(1)" transform="translate(0 -13.47)">
    <path id="Trazado_835931" data-name="Trazado 835931" d="M32.756,111.668A2.756,2.756,0,1,0,30,108.912,2.759,2.759,0,0,0,32.756,111.668Zm0-3.908a1.153,1.153,0,1,1-1.153,1.153A1.154,1.154,0,0,1,32.756,107.76Z" transform="translate(-26.795 -82.784)" fill="#fff"/>
    <path id="Trazado_835932" data-name="Trazado 835932" d="M90.9,111.668a2.756,2.756,0,1,0-2.756-2.756A2.759,2.759,0,0,0,90.9,111.668Zm0-3.908a1.153,1.153,0,1,1-1.153,1.153A1.154,1.154,0,0,1,90.9,107.76Z" transform="translate(-78.729 -82.784)" fill="#fff"/>
    <path id="Trazado_835933" data-name="Trazado 835933" d="M149.05,111.668a2.756,2.756,0,1,0-2.756-2.756A2.759,2.759,0,0,0,149.05,111.668Zm0-3.908a1.153,1.153,0,1,1-1.153,1.153A1.154,1.154,0,0,1,149.05,107.76Z" transform="translate(-130.663 -82.784)" fill="#fff"/>
    <path id="Trazado_835934" data-name="Trazado 835934" d="M53.9,19.372a.8.8,0,0,0,.8-.8V17.517a4.052,4.052,0,0,0-4.047-4.047H27.7a4.052,4.052,0,0,0-4.047,4.047v2.907H6.767A6.775,6.775,0,0,0,0,27.192V58.527A6.776,6.776,0,0,0,6.767,65.3H42.794a6.776,6.776,0,0,0,6.768-6.769V39.563h1.1A4.052,4.052,0,0,0,54.7,35.515V21.776a.8.8,0,0,0-1.6,0V35.515a2.447,2.447,0,0,1-2.445,2.445H40.348a.8.8,0,0,0-.443.134l-7.033,4.673a.731.731,0,0,1-1.135-.61v-3.4a.8.8,0,0,0-.8-.8H27.7a2.447,2.447,0,0,1-2.445-2.445v-18A2.447,2.447,0,0,1,27.7,15.073H50.657A2.447,2.447,0,0,1,53.1,17.517v1.053a.8.8,0,0,0,.8.8ZM27.7,39.562h2.435v2.594A2.333,2.333,0,0,0,33.758,44.1l6.831-4.538h4.164V58.528a1.962,1.962,0,0,1-1.96,1.96h-29.5a.8.8,0,0,0,0,1.6h29.5a3.566,3.566,0,0,0,3.562-3.562V39.562h1.6V58.527a5.171,5.171,0,0,1-5.165,5.166H6.767A5.171,5.171,0,0,1,1.6,58.527V27.192a5.171,5.171,0,0,1,5.165-5.165H23.651v7.99H7.387A4.187,4.187,0,0,0,3.205,34.2V58.528A3.566,3.566,0,0,0,6.767,62.09h3.32a.8.8,0,1,0,0-1.6H6.767a1.962,1.962,0,0,1-1.96-1.96V34.2A2.582,2.582,0,0,1,7.387,31.62H23.651v3.9A4.052,4.052,0,0,0,27.7,39.562Z" fill="#fff"/>
    <path id="Trazado_835935" data-name="Trazado 835935" d="M309.861,118.306a2.391,2.391,0,0,0,0,4.783h7.87a2.391,2.391,0,0,0,0-4.783h-.175v-5.632a2.326,2.326,0,0,0-2.323-2.323h-5.371a2.391,2.391,0,0,0,0,4.783h.575v3.173Zm1.376-4.776h-1.376a.789.789,0,0,1,0-1.577h5.371a.722.722,0,0,1,.721.721v6.433a.8.8,0,0,0,.8.8h.977a.789.789,0,1,1,0,1.577h-7.87a.789.789,0,0,1,0-1.577h1.376a.8.8,0,0,0,.8-.8v-4.776A.8.8,0,0,0,311.237,113.53Z" transform="translate(-274.619 -86.529)" fill="#fff"/>
    <path id="Trazado_835936" data-name="Trazado 835936" d="M342.349,39.455a3.56,3.56,0,1,0-3.56,3.56A3.564,3.564,0,0,0,342.349,39.455Zm-5.517,0a1.957,1.957,0,1,1,1.957,1.957A1.96,1.96,0,0,1,336.832,39.455Z" transform="translate(-299.412 -20.029)" fill="#fff"/>
    <path id="Trazado_835937" data-name="Trazado 835937" d="M121.909,290.285a.8.8,0,0,0,.8.8h12.36a.8.8,0,1,0,0-1.6H122.71A.8.8,0,0,0,121.909,290.285Z" transform="translate(-108.884 -246.524)" fill="#fff"/>
    <path id="Trazado_835938" data-name="Trazado 835938" d="M103.81,328.784H87.71a.8.8,0,1,0,0,1.6h16.1a.8.8,0,0,0,0-1.6Z" transform="translate(-77.623 -281.625)" fill="#fff"/>
    <path id="Trazado_835939" data-name="Trazado 835939" d="M103.81,368.084H87.71a.8.8,0,0,0,0,1.6h16.1a.8.8,0,1,0,0-1.6Z" transform="translate(-77.623 -316.726)" fill="#fff"/>
    <path id="Trazado_835940" data-name="Trazado 835940" d="M98.468,407.383H87.71a.8.8,0,0,0,0,1.6H98.468a.8.8,0,1,0,0-1.6Z" transform="translate(-77.623 -351.826)" fill="#fff"/>
  </g>
</svg>
