<svg xmlns="http://www.w3.org/2000/svg" width="61" height="61" viewBox="0 0 61 61">
  <g id="question" opacity="0.2">
    <g id="Grupo_1079486" data-name="Grupo 1079486">
      <g id="Grupo_1079485" data-name="Grupo 1079485">
        <path id="Trazado_838112" data-name="Trazado 838112" d="M30.5,0A30.5,30.5,0,1,0,61,30.5,30.483,30.483,0,0,0,30.5,0Zm0,56.744A26.244,26.244,0,1,1,56.744,30.5,26.274,26.274,0,0,1,30.5,56.744Z" fill="#273a89"/>
      </g>
    </g>
    <g id="Grupo_1079488" data-name="Grupo 1079488" transform="translate(26.546 38.593)">
      <g id="Grupo_1079487" data-name="Grupo 1079487">
        <path id="Trazado_838113" data-name="Trazado 838113" d="M225.866,323.924a3.092,3.092,0,0,0,0,6.183,3.091,3.091,0,0,0,0-6.183Z" transform="translate(-222.815 -323.924)" fill="#273a89"/>
      </g>
    </g>
    <g id="Grupo_1079490" data-name="Grupo 1079490" transform="translate(22.21 15.187)">
      <g id="Grupo_1079489" data-name="Grupo 1079489">
        <path id="Trazado_838114" data-name="Trazado 838114" d="M194.33,127.469c-5.42,0-7.909,3.212-7.909,5.38a2.3,2.3,0,0,0,2.409,2.288c2.168,0,1.285-3.091,5.38-3.091,2.007,0,3.613.883,3.613,2.73,0,2.168-2.248,3.412-3.573,4.537a7.348,7.348,0,0,0-2.69,6.1c0,2.088.562,2.69,2.208,2.69,1.967,0,2.369-.883,2.369-1.646,0-2.088.04-3.292,2.248-5.018,1.084-.843,4.5-3.573,4.5-7.347S199.469,127.469,194.33,127.469Z" transform="translate(-186.421 -127.469)" fill="#273a89"/>
      </g>
    </g>
  </g>
</svg>
