<svg xmlns="http://www.w3.org/2000/svg" xmlns:xlink="http://www.w3.org/1999/xlink" width="138" height="138" viewBox="0 0 138 138">
  <defs>
    <clipPath id="clip-path">
      <rect id="Rectángulo_386124" data-name="Rectángulo 386124" width="110.349" height="96.217" fill="none"/>
    </clipPath>
    <clipPath id="clip-path-5">
      <rect id="Rectángulo_386103" data-name="Rectángulo 386103" width="2.141" height="13.519" fill="none"/>
    </clipPath>
    <clipPath id="clip-path-7">
      <rect id="Rectángulo_386107" data-name="Rectángulo 386107" width="7.083" height="20.725" fill="none"/>
    </clipPath>
    <clipPath id="clip-path-8">
      <rect id="Rectángulo_386110" data-name="Rectángulo 386110" width="46.061" height="9.566" fill="none"/>
    </clipPath>
    <clipPath id="clip-path-9">
      <rect id="Rectángulo_386111" data-name="Rectángulo 386111" width="26.394" height="24.022" fill="none"/>
    </clipPath>
    <clipPath id="clip-path-10">
      <rect id="Rectángulo_386112" data-name="Rectángulo 386112" width="25.739" height="24.175" fill="none"/>
    </clipPath>
    <clipPath id="clip-path-12">
      <rect id="Rectángulo_386116" data-name="Rectángulo 386116" width="19.599" height="29.886" fill="none"/>
    </clipPath>
    <clipPath id="clip-path-14">
      <rect id="Rectángulo_386120" data-name="Rectángulo 386120" width="7.955" height="37.549" fill="none"/>
    </clipPath>
  </defs>
  <g id="Grupo_1079657" data-name="Grupo 1079657" transform="translate(-285.266 -14887.266)">
    <rect id="Rectángulo_386093" data-name="Rectángulo 386093" width="138" height="138" rx="10" transform="translate(285.266 14887.266)" fill="#1682fb"/>
    <g id="Grupo_1079692" data-name="Grupo 1079692" transform="translate(299.091 14908.156)">
      <g id="Grupo_1079691" data-name="Grupo 1079691" clip-path="url(#clip-path)">
        <g id="Grupo_1079659" data-name="Grupo 1079659">
          <g id="Grupo_1079658" data-name="Grupo 1079658" clip-path="url(#clip-path)">
            <path id="Trazado_838343" data-name="Trazado 838343" d="M191.384,26.417H152.41a1.229,1.229,0,0,0-1.229,1.229v4.721h41.432V27.646a1.23,1.23,0,0,0-1.229-1.229" transform="translate(-108.02 -18.875)" fill="#214a81"/>
            <path id="Trazado_838344" data-name="Trazado 838344" d="M187.119,34.344a1,1,0,1,0,1-1,1,1,0,0,0-1,1" transform="translate(-133.698 -23.827)" fill="#36679e"/>
            <path id="Trazado_838345" data-name="Trazado 838345" d="M175.991,34.344a1,1,0,1,0,1-1,1,1,0,0,0-1,1" transform="translate(-125.747 -23.827)" fill="#ffd474"/>
            <path id="Trazado_838346" data-name="Trazado 838346" d="M164.862,34.344a1,1,0,1,0,1-1,1,1,0,0,0-1,1" transform="translate(-117.795 -23.827)" fill="#36679e"/>
            <path id="Trazado_838347" data-name="Trazado 838347" d="M191.384,75.056H152.41a1.229,1.229,0,0,1-1.229-1.229V47.259h41.432V73.827a1.23,1.23,0,0,1-1.229,1.229" transform="translate(-108.02 -33.767)" fill="#fff"/>
            <path id="Trazado_838348" data-name="Trazado 838348" d="M227.106,35.138H211.481a1.131,1.131,0,0,1,0-2.263h15.624a1.131,1.131,0,0,1,0,2.263" transform="translate(-150.296 -23.489)" fill="#36679e"/>
            <rect id="Rectángulo_386095" data-name="Rectángulo 386095" width="32.829" height="2.468" transform="translate(47.673 16.393)" fill="#d7e8f7"/>
            <rect id="Rectángulo_386096" data-name="Rectángulo 386096" width="32.829" height="17.783" transform="translate(47.673 20.821)" fill="#d7e8f7"/>
          </g>
        </g>
        <text id="POPUP" transform="translate(53.146 28.512)" fill="#fff" font-size="5" font-family="Montserrat-Black, Montserrat" font-weight="800"><tspan x="0" y="0">PO</tspan><tspan y="0" letter-spacing="-0.02em">P</tspan><tspan y="0">UP</tspan></text>
        <text id="BLOCK" transform="translate(53.146 33.445)" fill="#fff" font-size="5" font-family="Montserrat-Black, Montserrat" font-weight="800"><tspan x="0" y="0">B</tspan><tspan y="0" letter-spacing="-0.009em">L</tspan><tspan y="0">OCK</tspan></text>
        <g id="Grupo_1079661" data-name="Grupo 1079661">
          <g id="Grupo_1079660" data-name="Grupo 1079660" clip-path="url(#clip-path)">
            <path id="Trazado_838349" data-name="Trazado 838349" d="M262.323,0H223.349a1.229,1.229,0,0,0-1.229,1.229V5.95h41.432V1.229A1.229,1.229,0,0,0,262.323,0" transform="translate(-158.706)" fill="#214a81"/>
            <path id="Trazado_838350" data-name="Trazado 838350" d="M258.059,7.927a1,1,0,1,0,1-1,1,1,0,0,0-1,1" transform="translate(-184.385 -4.952)" fill="#36679e"/>
            <path id="Trazado_838351" data-name="Trazado 838351" d="M246.93,7.927a1,1,0,1,0,1-1,1,1,0,0,0-1,1" transform="translate(-176.433 -4.952)" fill="#ffd474"/>
            <path id="Trazado_838352" data-name="Trazado 838352" d="M235.8,7.927a1,1,0,1,0,1-1,1,1,0,0,0-1,1" transform="translate(-168.482 -4.952)" fill="#36679e"/>
            <path id="Trazado_838353" data-name="Trazado 838353" d="M262.323,45.518H223.349a1.229,1.229,0,0,1-1.229-1.229V20.841h41.432V44.288a1.229,1.229,0,0,1-1.229,1.229" transform="translate(-158.706 -14.891)" fill="#fff"/>
            <path id="Trazado_838354" data-name="Trazado 838354" d="M298.046,8.721H282.421a1.131,1.131,0,0,1,0-2.263h15.625a1.131,1.131,0,0,1,0,2.263" transform="translate(-200.984 -4.614)" fill="#36679e"/>
            <rect id="Rectángulo_386098" data-name="Rectángulo 386098" width="32.829" height="2.468" transform="translate(67.926 8.851)" fill="#d7e8f7"/>
            <rect id="Rectángulo_386099" data-name="Rectángulo 386099" width="32.829" height="13.56" transform="translate(67.926 13.279)" fill="#00c0cd"/>
          </g>
        </g>
        <text id="Pop_up_" data-name="Pop up!" transform="translate(72.49 19.302)" fill="#fff" font-size="5" font-family="Montserrat-Bold, Montserrat" font-weight="700"><tspan x="0" y="0" letter-spacing="-0.011em">P</tspan><tspan y="0">op up!</tspan></text>
        <g id="Grupo_1079666" data-name="Grupo 1079666">
          <g id="Grupo_1079665" data-name="Grupo 1079665" clip-path="url(#clip-path)">
            <rect id="Rectángulo_386101" data-name="Rectángulo 386101" width="21.749" height="0.799" transform="translate(73.674 22.011)" fill="#fff"/>
            <g id="Grupo_1079664" data-name="Grupo 1079664" transform="translate(61.273 7.542)" opacity="0.16" style="mix-blend-mode: multiply;isolation: isolate">
              <g id="Grupo_1079663" data-name="Grupo 1079663">
                <g id="Grupo_1079662" data-name="Grupo 1079662" clip-path="url(#clip-path-5)">
                  <rect id="Rectángulo_386102" data-name="Rectángulo 386102" width="2.141" height="13.519" fill="#c4c4c4"/>
                </g>
              </g>
            </g>
            <path id="Trazado_838355" data-name="Trazado 838355" d="M169.873,218.813H130.9a1.229,1.229,0,0,0-1.229,1.229v4.721H171.1v-4.721a1.229,1.229,0,0,0-1.229-1.229" transform="translate(-92.65 -156.343)" fill="#214a81"/>
            <path id="Trazado_838356" data-name="Trazado 838356" d="M165.608,226.741a1,1,0,1,0,1-1,1,1,0,0,0-1,1" transform="translate(-118.328 -161.296)" fill="#36679e"/>
            <path id="Trazado_838357" data-name="Trazado 838357" d="M154.48,226.741a1,1,0,1,0,1-1,1,1,0,0,0-1,1" transform="translate(-110.377 -161.296)" fill="#ffd474"/>
            <path id="Trazado_838358" data-name="Trazado 838358" d="M143.351,226.741a1,1,0,1,0,1-1,1,1,0,0,0-1,1" transform="translate(-102.425 -161.296)" fill="#36679e"/>
            <path id="Trazado_838359" data-name="Trazado 838359" d="M169.873,267.452H130.9a1.229,1.229,0,0,1-1.229-1.229V239.655H171.1v26.568a1.229,1.229,0,0,1-1.229,1.229" transform="translate(-92.65 -171.235)" fill="#fff"/>
            <path id="Trazado_838360" data-name="Trazado 838360" d="M205.595,227.534H189.97a1.131,1.131,0,0,1,0-2.263h15.624a1.131,1.131,0,0,1,0,2.263" transform="translate(-134.927 -160.958)" fill="#36679e"/>
            <rect id="Rectángulo_386104" data-name="Rectángulo 386104" width="32.829" height="2.468" transform="translate(41.532 71.321)" fill="#d7e8f7"/>
            <rect id="Rectángulo_386105" data-name="Rectángulo 386105" width="32.829" height="17.783" transform="translate(41.532 75.749)" fill="#d7e8f7"/>
          </g>
        </g>
        <text id="POPUP-2" data-name="POPUP" transform="translate(47.005 83.44)" fill="#fff" font-size="5" font-family="Montserrat-Black, Montserrat" font-weight="800"><tspan x="0" y="0">PO</tspan><tspan y="0" letter-spacing="-0.019em">P</tspan><tspan y="0">UP</tspan></text>
        <text id="BLOCK-2" data-name="BLOCK" transform="translate(47.005 88.373)" fill="#fff" font-size="5" font-family="Montserrat-Black, Montserrat" font-weight="800"><tspan x="0" y="0">B</tspan><tspan y="0" letter-spacing="-0.009em">L</tspan><tspan y="0">OCK</tspan></text>
        <g id="Grupo_1079680" data-name="Grupo 1079680">
          <g id="Grupo_1079679" data-name="Grupo 1079679" clip-path="url(#clip-path)">
            <g id="Grupo_1079669" data-name="Grupo 1079669" transform="translate(37.02 70.362)" opacity="0.16" style="mix-blend-mode: multiply;isolation: isolate">
              <g id="Grupo_1079668" data-name="Grupo 1079668">
                <g id="Grupo_1079667" data-name="Grupo 1079667" clip-path="url(#clip-path-7)">
                  <path id="Trazado_838361" data-name="Trazado 838361" d="M129.669,267.182h4.847a2.378,2.378,0,0,0,2.237-2.5V246.457h-7.083Z" transform="translate(-129.669 -246.457)" fill="#c4c4c4"/>
                </g>
              </g>
            </g>
            <path id="Trazado_838362" data-name="Trazado 838362" d="M40.2,191.283H1.229A1.229,1.229,0,0,0,0,192.512v4.721H41.432v-4.721a1.229,1.229,0,0,0-1.229-1.229" transform="translate(0 -136.673)" fill="#214a81"/>
            <path id="Trazado_838363" data-name="Trazado 838363" d="M35.939,199.211a1,1,0,1,0,1-1,1,1,0,0,0-1,1" transform="translate(-25.679 -141.626)" fill="#36679e"/>
            <path id="Trazado_838364" data-name="Trazado 838364" d="M24.811,199.211a1,1,0,1,0,1-1,1,1,0,0,0-1,1" transform="translate(-17.728 -141.626)" fill="#ffd474"/>
            <path id="Trazado_838365" data-name="Trazado 838365" d="M13.682,199.211a1,1,0,1,0,1-1,1,1,0,0,0-1,1" transform="translate(-9.776 -141.626)" fill="#36679e"/>
            <path id="Trazado_838366" data-name="Trazado 838366" d="M40.2,239.922H1.229A1.229,1.229,0,0,1,0,238.693V212.125H41.432v26.568a1.229,1.229,0,0,1-1.229,1.229" transform="translate(0 -151.565)" fill="#fff"/>
            <path id="Trazado_838367" data-name="Trazado 838367" d="M75.926,200H60.3a1.131,1.131,0,0,1,0-2.263H75.926a1.131,1.131,0,0,1,0,2.263" transform="translate(-42.277 -141.287)" fill="#36679e"/>
            <rect id="Rectángulo_386108" data-name="Rectángulo 386108" width="32.829" height="2.468" transform="translate(4.512 63.461)" fill="#d7e8f7"/>
            <rect id="Rectángulo_386109" data-name="Rectángulo 386109" width="32.829" height="17.783" transform="translate(4.512 67.889)" fill="#00c0cd"/>
            <g id="Grupo_1079672" data-name="Grupo 1079672" transform="translate(43.161 21.061)" opacity="0.16" style="mix-blend-mode: multiply;isolation: isolate">
              <g id="Grupo_1079671" data-name="Grupo 1079671">
                <g id="Grupo_1079670" data-name="Grupo 1079670" clip-path="url(#clip-path-8)">
                  <path id="Trazado_838368" data-name="Trazado 838368" d="M151.18,73.769h43.778a2.1,2.1,0,0,1,2.283,1.839v7.727H151.18Z" transform="translate(-151.18 -73.769)" fill="#c4c4c4"/>
                </g>
              </g>
            </g>
            <g id="Grupo_1079675" data-name="Grupo 1079675" transform="translate(44.103 54.61)" opacity="0.16" style="mix-blend-mode: multiply;isolation: isolate">
              <g id="Grupo_1079674" data-name="Grupo 1079674">
                <g id="Grupo_1079673" data-name="Grupo 1079673" clip-path="url(#clip-path-9)">
                  <path id="Trazado_838369" data-name="Trazado 838369" d="M154.48,191.283v24.022h26.394V191.769Z" transform="translate(-154.48 -191.283)" fill="#c4c4c4"/>
                </g>
              </g>
            </g>
            <g id="Grupo_1079678" data-name="Grupo 1079678" transform="translate(15.67 54.61)" opacity="0.16" style="mix-blend-mode: multiply;isolation: isolate">
              <g id="Grupo_1079677" data-name="Grupo 1079677">
                <g id="Grupo_1079676" data-name="Grupo 1079676" clip-path="url(#clip-path-10)">
                  <path id="Trazado_838370" data-name="Trazado 838370" d="M54.888,191.283v22.538a1.637,1.637,0,0,0,1.637,1.637h24.1V191.772Z" transform="translate(-54.888 -191.283)" fill="#c4c4c4"/>
                </g>
              </g>
            </g>
            <path id="Trazado_838371" data-name="Trazado 838371" d="M132.128,73.769H66.209A1.229,1.229,0,0,0,64.98,75v4.721h68.377V75a1.229,1.229,0,0,0-1.229-1.229" transform="translate(-46.429 -52.708)" fill="#214a81"/>
            <path id="Trazado_838372" data-name="Trazado 838372" d="M100.919,81.7a1,1,0,1,0,1-1,1,1,0,0,0-1,1" transform="translate(-72.107 -57.661)" fill="#36679e"/>
            <path id="Trazado_838373" data-name="Trazado 838373" d="M89.791,81.7a1,1,0,1,0,1-1,1,1,0,0,0-1,1" transform="translate(-64.156 -57.661)" fill="#ffd474"/>
            <path id="Trazado_838374" data-name="Trazado 838374" d="M78.662,81.7a1,1,0,1,0,1-1,1,1,0,0,0-1,1" transform="translate(-56.205 -57.661)" fill="#36679e"/>
            <path id="Trazado_838375" data-name="Trazado 838375" d="M132.128,143.639H66.209a1.229,1.229,0,0,1-1.229-1.229v-47.8h68.377v47.8a1.229,1.229,0,0,1-1.229,1.229" transform="translate(-46.429 -67.6)" fill="#d7e8f7"/>
            <path id="Trazado_838376" data-name="Trazado 838376" d="M179.635,82.49h-18.6a1.131,1.131,0,1,1,0-2.263h18.6a1.131,1.131,0,0,1,0,2.263" transform="translate(-114.253 -57.323)" fill="#36679e"/>
            <rect id="Rectángulo_386113" data-name="Rectángulo 386113" width="59.774" height="36.527" transform="translate(23.063 35.248)" fill="#fff"/>
            <rect id="Rectángulo_386114" data-name="Rectángulo 386114" width="59.774" height="2.468" transform="translate(23.063 30.178)" fill="#fff"/>
            <path id="Trazado_838377" data-name="Trazado 838377" d="M153.63,175.194h-21.8a4.342,4.342,0,0,1,0-8.684h21.8a4.342,4.342,0,0,1,0,8.684" transform="translate(-91.094 -118.972)" fill="#ea4f71"/>
          </g>
        </g>
        <text id="Skip_Ad" data-name="Skip Ad" transform="translate(42.038 52.809)" fill="#fff" font-size="4" font-family="Montserrat-Bold, Montserrat" font-weight="700"><tspan x="0" y="0">Skip </tspan><tspan y="0" letter-spacing="-0.005em">A</tspan><tspan y="0">d</tspan></text>
        <g id="Grupo_1079685" data-name="Grupo 1079685">
          <g id="Grupo_1079684" data-name="Grupo 1079684" clip-path="url(#clip-path)">
            <g id="Grupo_1079683" data-name="Grupo 1079683" transform="translate(18.74 21.061)" opacity="0.16" style="mix-blend-mode: multiply;isolation: isolate">
              <g id="Grupo_1079682" data-name="Grupo 1079682">
                <g id="Grupo_1079681" data-name="Grupo 1079681" clip-path="url(#clip-path-12)">
                  <path id="Trazado_838378" data-name="Trazado 838378" d="M65.641,103.655H83.99a1.277,1.277,0,0,0,1.25-1.3V73.769H65.848Z" transform="translate(-65.641 -73.769)" fill="#c4c4c4"/>
                </g>
              </g>
            </g>
            <path id="Trazado_838379" data-name="Trazado 838379" d="M51.136,7.563H23.608a1.229,1.229,0,0,0-1.229,1.229v4.721H52.366V8.792a1.229,1.229,0,0,0-1.229-1.229" transform="translate(-15.99 -5.404)" fill="#214a81"/>
            <path id="Trazado_838380" data-name="Trazado 838380" d="M58.317,15.491a1,1,0,1,0,1-1,1,1,0,0,0-1,1" transform="translate(-41.668 -10.357)" fill="#36679e"/>
            <path id="Trazado_838381" data-name="Trazado 838381" d="M47.189,15.491a1,1,0,1,0,1-1,1,1,0,0,0-1,1" transform="translate(-33.717 -10.357)" fill="#ffd474"/>
            <path id="Trazado_838382" data-name="Trazado 838382" d="M36.06,15.491a1,1,0,1,0,1-1,1,1,0,0,0-1,1" transform="translate(-25.765 -10.357)" fill="#36679e"/>
            <path id="Trazado_838383" data-name="Trazado 838383" d="M51.136,69.02H23.608a1.229,1.229,0,0,1-1.229-1.229V28.4H52.366V67.791a1.229,1.229,0,0,1-1.229,1.229" transform="translate(-15.99 -20.295)" fill="#d7e8f7"/>
            <path id="Trazado_838384" data-name="Trazado 838384" d="M86.858,16.284H82.679a1.131,1.131,0,0,1,0-2.263h4.179a1.131,1.131,0,0,1,0,2.263" transform="translate(-58.267 -10.018)" fill="#36679e"/>
            <rect id="Rectángulo_386117" data-name="Rectángulo 386117" width="21.384" height="28.116" transform="translate(10.901 16.347)" fill="#fff"/>
            <rect id="Rectángulo_386118" data-name="Rectángulo 386118" width="21.384" height="2.468" transform="translate(10.901 11.276)" fill="#fff"/>
            <path id="Trazado_838385" data-name="Trazado 838385" d="M66.19,69.375a5.644,5.644,0,1,1-5.644-5.644,5.644,5.644,0,0,1,5.644,5.644" transform="translate(-39.228 -45.536)" fill="#ea4f71"/>
            <path id="Trazado_838386" data-name="Trazado 838386" d="M70.2,79.082a.594.594,0,0,1-.455-.211l-3.965-4.689a.6.6,0,0,1,.91-.769L70.656,78.1a.6.6,0,0,1-.454.98" transform="translate(-46.901 -52.303)" fill="#fff"/>
            <path id="Trazado_838387" data-name="Trazado 838387" d="M66.237,79.082a.6.6,0,0,1-.455-.98l3.965-4.689a.6.6,0,0,1,.91.769l-3.965,4.689a.594.594,0,0,1-.455.211" transform="translate(-46.901 -52.303)" fill="#fff"/>
          </g>
        </g>
        <text id="AD" transform="translate(14.518 36.54)" fill="#84b4fe" font-size="7" font-family="Montserrat-Black, Montserrat" font-weight="800"><tspan x="0" y="0">AD</tspan></text>
        <text id="BLOCK-3" data-name="BLOCK" transform="translate(14.501 40.458)" fill="#84b4fe" font-size="3" font-family="Montserrat-Black, Montserrat" font-weight="800"><tspan x="0" y="0">B</tspan><tspan y="0" letter-spacing="-0.009em">L</tspan><tspan y="0">OCK</tspan></text>
        <g id="Grupo_1079690" data-name="Grupo 1079690">
          <g id="Grupo_1079689" data-name="Grupo 1079689" clip-path="url(#clip-path)">
            <path id="Trazado_838388" data-name="Trazado 838388" d="M200.778,208.091l1.968,9.973,2.062-3.07,2.572,3.223,1.216-.967-2.477-3.106,3.466-.684Z" transform="translate(-143.457 -148.682)" fill="#114"/>
            <g id="Grupo_1079688" data-name="Grupo 1079688" transform="translate(70.497 44.384)" opacity="0.16" style="mix-blend-mode: multiply;isolation: isolate">
              <g id="Grupo_1079687" data-name="Grupo 1079687">
                <g id="Grupo_1079686" data-name="Grupo 1079686" clip-path="url(#clip-path-14)">
                  <path id="Trazado_838389" data-name="Trazado 838389" d="M254.885,155.465h-6.219a1.736,1.736,0,0,0-1.736,1.736v33.341a2.472,2.472,0,0,0,2.472,2.472h5.483Z" transform="translate(-246.93 -155.465)" fill="#c4c4c4"/>
                </g>
              </g>
            </g>
            <path id="Trazado_838390" data-name="Trazado 838390" d="M291.836,147.449H256.953a1.229,1.229,0,0,0-1.229,1.229V153.4h37.341v-4.721a1.229,1.229,0,0,0-1.229-1.229" transform="translate(-182.716 -105.353)" fill="#214a81"/>
            <path id="Trazado_838391" data-name="Trazado 838391" d="M291.663,155.376a1,1,0,1,0,1-1,1,1,0,0,0-1,1" transform="translate(-208.395 -110.305)" fill="#36679e"/>
            <path id="Trazado_838392" data-name="Trazado 838392" d="M280.535,155.376a1,1,0,1,0,1-1,1,1,0,0,0-1,1" transform="translate(-200.444 -110.305)" fill="#ffd474"/>
            <path id="Trazado_838393" data-name="Trazado 838393" d="M269.406,155.376a1,1,0,1,0,1-1,1,1,0,0,0-1,1" transform="translate(-192.492 -110.305)" fill="#36679e"/>
            <path id="Trazado_838394" data-name="Trazado 838394" d="M291.836,199.937H256.953a1.229,1.229,0,0,1-1.229-1.229V168.29h37.341v30.418a1.229,1.229,0,0,1-1.229,1.229" transform="translate(-182.716 -120.244)" fill="#fff"/>
            <path id="Trazado_838395" data-name="Trazado 838395" d="M327.559,156.17H316.025a1.131,1.131,0,1,1,0-2.263h11.533a1.131,1.131,0,0,1,0,2.263" transform="translate(-224.994 -109.968)" fill="#36679e"/>
            <rect id="Rectángulo_386121" data-name="Rectángulo 386121" width="28.738" height="2.468" transform="translate(77.52 50.947)" fill="#d7e8f7"/>
            <rect id="Rectángulo_386122" data-name="Rectángulo 386122" width="28.738" height="19.979" transform="translate(77.52 55.375)" fill="#ffd474"/>
          </g>
        </g>
        <text id="CLICK" transform="translate(83.01 63.768)" fill="#fff" font-size="5" font-family="Montserrat-Black, Montserrat" font-weight="800"><tspan x="0" y="0">CLICK</tspan></text>
        <text id="FREE" transform="translate(83.01 68.642)" fill="#fff" font-size="5" font-family="Montserrat-Black, Montserrat" font-weight="800"><tspan x="0" y="0">FREE</tspan></text>
      </g>
    </g>
  </g>
</svg>
