<svg xmlns="http://www.w3.org/2000/svg" width="610" height="358" viewBox="0 0 610 358">
  <g id="Grupo_1079541" data-name="Grupo 1079541" transform="translate(-500 -9388)">
    <rect id="Rectángulo_386023" data-name="Rectángulo 386023" width="610" height="358" rx="11" transform="translate(500 9388)" fill="#add3fd"/>
    <g id="Grupo_1079539" data-name="Grupo 1079539" transform="translate(5 35.5)">
      <line id="Línea_468" data-name="Línea 468" y2="309" transform="translate(800.5 9377.5)" fill="none" stroke="#1682fb" stroke-linecap="round" stroke-width="2"/>
      <line id="Línea_469" data-name="Línea 469" x1="439" transform="translate(581.5 9529.5)" fill="none" stroke="#1682fb" stroke-linecap="round" stroke-width="2"/>
    </g>
    <path id="Trazado_841000" data-name="Trazado 841000" d="M9.492-3.766l.016.047A4.147,4.147,0,0,1,7.992-.848,5.172,5.172,0,0,1,4.688.164,3.776,3.776,0,0,1,1.6-1.16,4.154,4.154,0,0,1,.813-4.555l.32-2.258a5.57,5.57,0,0,1,1.715-3.426,4.86,4.86,0,0,1,3.418-1.3,4.231,4.231,0,0,1,3.078,1.023,3.064,3.064,0,0,1,.75,2.852l-.023.047H7.852a2.056,2.056,0,0,0-.285-1.641,1.942,1.942,0,0,0-1.551-.523A2.177,2.177,0,0,0,4.3-8.949a4.044,4.044,0,0,0-.891,2.121L3.086-4.555A3.21,3.21,0,0,0,3.367-2.4a1.686,1.686,0,0,0,1.57.816,2.278,2.278,0,0,0,1.6-.539,2.678,2.678,0,0,0,.754-1.641ZM15.367,0a2.968,2.968,0,0,1-.105-.582,5.226,5.226,0,0,1-.012-.676,3.9,3.9,0,0,1-1.078,1.02,2.608,2.608,0,0,1-1.43.4,2.5,2.5,0,0,1-1.93-.687,2.165,2.165,0,0,1-.469-1.859A2.655,2.655,0,0,1,11.582-4.32a5.344,5.344,0,0,1,2.895-.672H15.75l.1-.672a1.2,1.2,0,0,0-.184-.953,1.106,1.106,0,0,0-.9-.328,1.421,1.421,0,0,0-.891.27,1.068,1.068,0,0,0-.414.738h-2.2l-.008-.047a2.552,2.552,0,0,1,1.2-1.863,4.6,4.6,0,0,1,2.7-.762,3.341,3.341,0,0,1,2.332.77,2.327,2.327,0,0,1,.645,2.191l-.508,3.492a5.949,5.949,0,0,0-.074,1.125A5.6,5.6,0,0,0,17.688,0Zm-1.82-1.523a2.178,2.178,0,0,0,1.1-.3,1.969,1.969,0,0,0,.75-.691L15.57-3.7H14.289a1.723,1.723,0,0,0-1.145.363,1.361,1.361,0,0,0-.5.879.76.76,0,0,0,.172.688A.979.979,0,0,0,13.547-1.523ZM24.406-6.492l-.828-.023a1.642,1.642,0,0,0-.863.219,1.722,1.722,0,0,0-.6.617L21.3,0H19.023L20.25-8.453h2.117l-.078,1.242A3.168,3.168,0,0,1,23.2-8.246a1.971,1.971,0,0,1,1.148-.363,1.659,1.659,0,0,1,.309.027q.145.027.285.066Zm.219,2.336a6.245,6.245,0,0,1,1.332-3.25,3.3,3.3,0,0,1,2.613-1.2,2.064,2.064,0,0,1,1.09.281,2.3,2.3,0,0,1,.777.8l.68-4.656h2.289L31.641,0H29.7l-.047-1.039a3.411,3.411,0,0,1-1.07.895,2.77,2.77,0,0,1-1.3.309A2.446,2.446,0,0,1,25.043-.984,4.376,4.376,0,0,1,24.6-3.992Zm2.25.164A3.217,3.217,0,0,0,27-2.234a1.116,1.116,0,0,0,1.129.625,1.909,1.909,0,0,0,.887-.2,1.971,1.971,0,0,0,.684-.594l.523-3.586a1.389,1.389,0,0,0-.5-.621,1.433,1.433,0,0,0-.816-.223,1.537,1.537,0,0,0-1.32.746,4.567,4.567,0,0,0-.68,1.934ZM44.094-2.758a1.235,1.235,0,0,0-.355-1.152,5.335,5.335,0,0,0-1.691-.863,7.8,7.8,0,0,1-2.918-1.508,2.465,2.465,0,0,1-.746-2.312,3,3,0,0,1,1.4-2.152,5.177,5.177,0,0,1,2.914-.793,4.455,4.455,0,0,1,3.008.926,2.586,2.586,0,0,1,.8,2.559l-.016.047H44.273a1.411,1.411,0,0,0-.4-1.277,1.96,1.96,0,0,0-1.43-.5,2.116,2.116,0,0,0-1.2.336,1.167,1.167,0,0,0-.57.836A1.1,1.1,0,0,0,41.043-7.5a7.217,7.217,0,0,0,1.941.879,6.817,6.817,0,0,1,2.73,1.48,2.624,2.624,0,0,1,.66,2.371A2.963,2.963,0,0,1,44.973-.6a5.424,5.424,0,0,1-2.965.762,5.588,5.588,0,0,1-3.164-.848,2.4,2.4,0,0,1-.969-2.637l.016-.047H40.1A1.245,1.245,0,0,0,40.633-2a3.061,3.061,0,0,0,1.625.41,2.286,2.286,0,0,0,1.227-.328A1.192,1.192,0,0,0,44.094-2.758ZM47.477-4.3a5.257,5.257,0,0,1,1.5-3.117,4.264,4.264,0,0,1,3.1-1.187A3.2,3.2,0,0,1,54.813-7.4,4.032,4.032,0,0,1,55.453-4.3l-.023.164a5.283,5.283,0,0,1-1.508,3.125,4.277,4.277,0,0,1-3.1,1.18,3.209,3.209,0,0,1-2.742-1.207,3.989,3.989,0,0,1-.625-3.1Zm2.25.164a3.448,3.448,0,0,0,.133,1.867,1.191,1.191,0,0,0,1.211.688,1.649,1.649,0,0,0,1.387-.707,4,4,0,0,0,.691-1.848l.023-.164a3.415,3.415,0,0,0-.145-1.848,1.19,1.19,0,0,0-1.207-.7,1.641,1.641,0,0,0-1.387.719A3.979,3.979,0,0,0,49.75-4.3ZM61.617-6.492l-.828-.023a1.642,1.642,0,0,0-.863.219,1.722,1.722,0,0,0-.6.617L58.508,0H56.234l1.227-8.453h2.117L59.5-7.211a3.168,3.168,0,0,1,.914-1.035,1.971,1.971,0,0,1,1.148-.363,1.659,1.659,0,0,1,.309.027q.145.027.285.066Zm4.734-4.031-.3,2.07h1.43l-.234,1.6H65.82l-.625,4.3a.887.887,0,0,0,.1.711.65.65,0,0,0,.52.2,2.283,2.283,0,0,0,.313-.02,2.515,2.515,0,0,0,.313-.066L66.391-.07a5.04,5.04,0,0,1-.7.176,4.184,4.184,0,0,1-.719.059,2.116,2.116,0,0,1-1.711-.656,2.538,2.538,0,0,1-.352-2.047l.625-4.312H62.3l.234-1.6h1.227l.3-2.07ZM70.023,0H67.742l1.227-8.453H71.25Zm1.516-10.477H69.258l.25-1.711h2.281Zm3.6,3.211a3.689,3.689,0,0,1,1.176-.992,3.048,3.048,0,0,1,1.441-.352,2.151,2.151,0,0,1,1.863.832,3.572,3.572,0,0,1,.355,2.6L79.227,0H76.938l.75-5.172a1.9,1.9,0,0,0-.125-1.3,1.022,1.022,0,0,0-.9-.367,2.141,2.141,0,0,0-.918.2,2.152,2.152,0,0,0-.723.547L74.141,0H71.859l1.227-8.453h2.125ZM81.2-4.156a6.245,6.245,0,0,1,1.332-3.25,3.308,3.308,0,0,1,2.621-1.2,2.11,2.11,0,0,1,1.191.328,2.308,2.308,0,0,1,.793.93l.344-1.1h1.961L88.219-.039a3.715,3.715,0,0,1-1.445,2.57,5.16,5.16,0,0,1-3.141.883,5.372,5.372,0,0,1-1.328-.18,5.757,5.757,0,0,1-1.266-.477l.625-1.7a4.665,4.665,0,0,0,1.031.379,5.107,5.107,0,0,0,1.188.129A2.269,2.269,0,0,0,85.3,1.168a1.808,1.808,0,0,0,.633-1.215l.109-.766a3.158,3.158,0,0,1-.988.727,2.833,2.833,0,0,1-1.2.25A2.455,2.455,0,0,1,81.617-.984a4.36,4.36,0,0,1-.445-3.008Zm2.258.164a3.248,3.248,0,0,0,.117,1.758,1.109,1.109,0,0,0,1.125.625,2,2,0,0,0,.906-.2,1.845,1.845,0,0,0,.672-.574L86.8-6.016a1.272,1.272,0,0,0-.5-.609,1.539,1.539,0,0,0-.84-.211,1.528,1.528,0,0,0-1.316.746,4.6,4.6,0,0,0-.676,1.934Z" transform="translate(745 9612)" fill="#00104e"/>
    <path id="Trazado_841001" data-name="Trazado 841001" d="M7.859-4.945h-4.5v3.063H8.641V0H1.016V-11.375H8.625v1.9H3.359v2.711h4.5Zm4.086-3.508.07.977a2.951,2.951,0,0,1,2.43-1.133,2.453,2.453,0,0,1,2,.789,3.682,3.682,0,0,1,.672,2.359V0H14.859V-5.419a1.47,1.47,0,0,0-.312-1.045,1.4,1.4,0,0,0-1.039-.325,1.553,1.553,0,0,0-1.43.814V0H9.82V-8.453Zm10.4,6.789a1.481,1.481,0,0,0,1.016-.344,1.2,1.2,0,0,0,.406-.914h2.117a2.9,2.9,0,0,1-.469,1.574A3.093,3.093,0,0,1,24.152-.238a3.949,3.949,0,0,1-1.77.395A3.67,3.67,0,0,1,19.523-1,4.56,4.56,0,0,1,18.477-4.18v-.148a4.508,4.508,0,0,1,1.039-3.117,3.627,3.627,0,0,1,2.852-1.164,3.555,3.555,0,0,1,2.543.9,3.2,3.2,0,0,1,.973,2.4H23.766a1.551,1.551,0,0,0-.406-1.072,1.354,1.354,0,0,0-1.031-.412,1.36,1.36,0,0,0-1.191.575,3.333,3.333,0,0,0-.4,1.866v.235a3.375,3.375,0,0,0,.4,1.878A1.377,1.377,0,0,0,22.344-1.664Zm9.891.8A2.831,2.831,0,0,1,29.922.156a2.67,2.67,0,0,1-2.074-.781,3.335,3.335,0,0,1-.73-2.289V-8.453h2.258v5.467q0,1.322,1.2,1.322a1.63,1.63,0,0,0,1.578-.8V-8.453h2.266V0H32.3ZM40.016.156A4.15,4.15,0,0,1,36.988-.984,4.054,4.054,0,0,1,35.82-4.023v-.219a5.106,5.106,0,0,1,.492-2.277,3.612,3.612,0,0,1,1.395-1.547,3.914,3.914,0,0,1,2.059-.543A3.508,3.508,0,0,1,42.5-7.516a4.444,4.444,0,0,1,1,3.1v.922H38.109a2.1,2.1,0,0,0,.66,1.328,2,2,0,0,0,1.395.5A2.437,2.437,0,0,0,42.2-2.609l1.109,1.242A3.389,3.389,0,0,1,41.938-.246,4.511,4.511,0,0,1,40.016.156Zm-.258-6.945a1.411,1.411,0,0,0-1.09.455,2.357,2.357,0,0,0-.535,1.3h3.141v-.181a1.681,1.681,0,0,0-.406-1.165A1.456,1.456,0,0,0,39.758-6.789Zm9.594,4.453a.727.727,0,0,0-.41-.652,4.659,4.659,0,0,0-1.316-.426q-3.016-.633-3.016-2.562a2.323,2.323,0,0,1,.934-1.879,3.766,3.766,0,0,1,2.441-.754,4.053,4.053,0,0,1,2.574.758,2.388,2.388,0,0,1,.965,1.969H49.266a1.092,1.092,0,0,0-.312-.8A1.322,1.322,0,0,0,47.977-7a1.351,1.351,0,0,0-.883.258.814.814,0,0,0-.312.656.7.7,0,0,0,.355.605,3.657,3.657,0,0,0,1.2.4,9.8,9.8,0,0,1,1.422.379A2.336,2.336,0,0,1,51.547-2.43a2.2,2.2,0,0,1-.992,1.871,4.28,4.28,0,0,1-2.562.715,4.47,4.47,0,0,1-1.887-.379,3.166,3.166,0,0,1-1.293-1.039,2.414,2.414,0,0,1-.469-1.426h2.141a1.179,1.179,0,0,0,.445.922,1.766,1.766,0,0,0,1.109.32,1.635,1.635,0,0,0,.98-.246A.766.766,0,0,0,49.352-2.336Zm6.352-8.2v2.078h1.445V-6.8H55.7v4.219a1.007,1.007,0,0,0,.18.672.9.9,0,0,0,.688.2,3.6,3.6,0,0,0,.664-.055V-.047a4.648,4.648,0,0,1-1.367.2,2.156,2.156,0,0,1-2.422-2.4V-6.8H52.211V-8.453h1.234v-2.078ZM63.3,0a2.507,2.507,0,0,1-.227-.758,2.732,2.732,0,0,1-2.133.914,3,3,0,0,1-2.059-.719,2.312,2.312,0,0,1-.816-1.812,2.389,2.389,0,0,1,1-2.062,4.915,4.915,0,0,1,2.879-.727h1.039v-.484a1.393,1.393,0,0,0-.3-.937,1.183,1.183,0,0,0-.949-.352,1.345,1.345,0,0,0-.895.273.929.929,0,0,0-.324.75H58.258a2.268,2.268,0,0,1,.453-1.359,3,3,0,0,1,1.281-.98,4.669,4.669,0,0,1,1.859-.355,3.689,3.689,0,0,1,2.48.785,2.747,2.747,0,0,1,.918,2.207v3.664a4.041,4.041,0,0,0,.336,1.82V0ZM61.438-1.57a1.945,1.945,0,0,0,.922-.223,1.462,1.462,0,0,0,.625-.6V-3.844h-.844q-1.7,0-1.8,1.172l-.008.133a.9.9,0,0,0,.3.7A1.153,1.153,0,0,0,61.438-1.57Zm10.125-.766a.727.727,0,0,0-.41-.652,4.659,4.659,0,0,0-1.316-.426Q66.82-4.047,66.82-5.977a2.323,2.323,0,0,1,.934-1.879A3.766,3.766,0,0,1,70.2-8.609a4.053,4.053,0,0,1,2.574.758,2.388,2.388,0,0,1,.965,1.969H71.477a1.092,1.092,0,0,0-.312-.8A1.322,1.322,0,0,0,70.188-7a1.351,1.351,0,0,0-.883.258.814.814,0,0,0-.312.656.7.7,0,0,0,.355.605,3.657,3.657,0,0,0,1.2.4,9.8,9.8,0,0,1,1.422.379A2.336,2.336,0,0,1,73.758-2.43a2.2,2.2,0,0,1-.992,1.871A4.28,4.28,0,0,1,70.2.156a4.47,4.47,0,0,1-1.887-.379,3.166,3.166,0,0,1-1.293-1.039,2.414,2.414,0,0,1-.469-1.426H68.7a1.179,1.179,0,0,0,.445.922,1.766,1.766,0,0,0,1.109.32,1.635,1.635,0,0,0,.98-.246A.766.766,0,0,0,71.563-2.336Z" transform="translate(600 9642)" fill="#00104e"/>
    <path id="Trazado_840998" data-name="Trazado 840998" d="M7.438-2.344H3.328L2.547,0H.055L4.289-11.375H6.461L10.719,0H8.227Zm-3.477-1.9H6.8L5.375-8.5Zm9.375-4.211.07.977a2.951,2.951,0,0,1,2.43-1.133,2.453,2.453,0,0,1,2,.789,3.682,3.682,0,0,1,.672,2.359V0H16.25V-5.419a1.47,1.47,0,0,0-.312-1.045A1.4,1.4,0,0,0,14.9-6.789a1.553,1.553,0,0,0-1.43.814V0H11.211V-8.453ZM25.117,0a2.507,2.507,0,0,1-.227-.758,2.732,2.732,0,0,1-2.133.914A3,3,0,0,1,20.7-.562a2.312,2.312,0,0,1-.816-1.812,2.389,2.389,0,0,1,1-2.062,4.915,4.915,0,0,1,2.879-.727H24.8v-.484a1.393,1.393,0,0,0-.3-.937,1.183,1.183,0,0,0-.949-.352,1.345,1.345,0,0,0-.895.273.929.929,0,0,0-.324.75H20.07a2.268,2.268,0,0,1,.453-1.359,3,3,0,0,1,1.281-.98,4.669,4.669,0,0,1,1.859-.355,3.689,3.689,0,0,1,2.48.785,2.747,2.747,0,0,1,.918,2.207v3.664A4.041,4.041,0,0,0,27.4-.133V0ZM23.25-1.57a1.945,1.945,0,0,0,.922-.223,1.462,1.462,0,0,0,.625-.6V-3.844h-.844q-1.7,0-1.8,1.172l-.008.133a.9.9,0,0,0,.3.7A1.153,1.153,0,0,0,23.25-1.57ZM31.18,0H28.914V-12H31.18Zm4.3,0H33.219V-8.453h2.258Zm-.664-11.883h2.461L35.109-9.461H33.273Zm5.313,1.352v2.078H41.57V-6.8H40.125v4.219a1.007,1.007,0,0,0,.18.672.9.9,0,0,0,.688.2,3.6,3.6,0,0,0,.664-.055V-.047a4.648,4.648,0,0,1-1.367.2,2.156,2.156,0,0,1-2.422-2.4V-6.8H36.633V-8.453h1.234v-2.078ZM45.211,0H42.945V-8.453h2.266Zm-2.4-10.641a1.112,1.112,0,0,1,.34-.836,1.277,1.277,0,0,1,.926-.328,1.28,1.28,0,0,1,.922.328,1.105,1.105,0,0,1,.344.836A1.108,1.108,0,0,1,45-9.8a1.283,1.283,0,0,1-.918.328A1.283,1.283,0,0,1,43.16-9.8,1.108,1.108,0,0,1,42.813-10.641Zm7.773,8.977A1.481,1.481,0,0,0,51.6-2.008a1.2,1.2,0,0,0,.406-.914h2.117a2.9,2.9,0,0,1-.469,1.574A3.093,3.093,0,0,1,52.395-.238a3.949,3.949,0,0,1-1.77.395A3.67,3.67,0,0,1,47.766-1,4.56,4.56,0,0,1,46.719-4.18v-.148a4.508,4.508,0,0,1,1.039-3.117,3.627,3.627,0,0,1,2.852-1.164,3.555,3.555,0,0,1,2.543.9,3.2,3.2,0,0,1,.973,2.4H52.008A1.551,1.551,0,0,0,51.6-6.377a1.354,1.354,0,0,0-1.031-.412,1.36,1.36,0,0,0-1.191.575,3.333,3.333,0,0,0-.4,1.866v.235a3.375,3.375,0,0,0,.4,1.878A1.377,1.377,0,0,0,50.586-1.664ZM60.313,0a2.507,2.507,0,0,1-.227-.758,2.732,2.732,0,0,1-2.133.914,3,3,0,0,1-2.059-.719,2.312,2.312,0,0,1-.816-1.812,2.389,2.389,0,0,1,1-2.062,4.915,4.915,0,0,1,2.879-.727h1.039v-.484a1.393,1.393,0,0,0-.3-.937,1.183,1.183,0,0,0-.949-.352,1.345,1.345,0,0,0-.895.273.929.929,0,0,0-.324.75H55.266a2.268,2.268,0,0,1,.453-1.359A3,3,0,0,1,57-8.254a4.669,4.669,0,0,1,1.859-.355,3.689,3.689,0,0,1,2.48.785,2.747,2.747,0,0,1,.918,2.207v3.664a4.041,4.041,0,0,0,.336,1.82V0ZM58.445-1.57a1.945,1.945,0,0,0,.922-.223,1.462,1.462,0,0,0,.625-.6V-3.844h-.844q-1.7,0-1.8,1.172l-.008.133a.9.9,0,0,0,.3.7A1.153,1.153,0,0,0,58.445-1.57Z" transform="translate(925 9642)" fill="#00104e"/>
    <path id="Trazado_840999" data-name="Trazado 840999" d="M2.945-1.75h5.1L7.8,0H.414L2.063-11.375H4.344ZM9.406-4.3a5.257,5.257,0,0,1,1.5-3.117,4.264,4.264,0,0,1,3.1-1.187A3.2,3.2,0,0,1,16.742-7.4,4.032,4.032,0,0,1,17.383-4.3l-.023.164a5.283,5.283,0,0,1-1.508,3.125,4.277,4.277,0,0,1-3.1,1.18,3.209,3.209,0,0,1-2.742-1.207,3.989,3.989,0,0,1-.625-3.1Zm2.25.164a3.448,3.448,0,0,0,.133,1.867A1.191,1.191,0,0,0,13-1.586a1.649,1.649,0,0,0,1.387-.707,4,4,0,0,0,.691-1.848L15.1-4.3a3.415,3.415,0,0,0-.145-1.848,1.19,1.19,0,0,0-1.207-.7,1.641,1.641,0,0,0-1.387.719A3.979,3.979,0,0,0,11.68-4.3Zm6.773-.016a6.245,6.245,0,0,1,1.332-3.25,3.308,3.308,0,0,1,2.621-1.2,2.11,2.11,0,0,1,1.191.328,2.308,2.308,0,0,1,.793.93l.344-1.1h1.961L25.453-.039a3.715,3.715,0,0,1-1.445,2.57,5.16,5.16,0,0,1-3.141.883,5.372,5.372,0,0,1-1.328-.18,5.757,5.757,0,0,1-1.266-.477l.625-1.7a4.665,4.665,0,0,0,1.031.379,5.107,5.107,0,0,0,1.188.129,2.269,2.269,0,0,0,1.422-.395,1.808,1.808,0,0,0,.633-1.215l.109-.766a3.158,3.158,0,0,1-.988.727,2.833,2.833,0,0,1-1.2.25A2.455,2.455,0,0,1,18.852-.984a4.36,4.36,0,0,1-.445-3.008Zm2.258.164A3.248,3.248,0,0,0,20.8-2.234a1.109,1.109,0,0,0,1.125.625,2,2,0,0,0,.906-.2,1.845,1.845,0,0,0,.672-.574l.531-3.633a1.272,1.272,0,0,0-.5-.609,1.539,1.539,0,0,0-.84-.211,1.528,1.528,0,0,0-1.316.746,4.6,4.6,0,0,0-.676,1.934ZM32.133-2.344a.665.665,0,0,0-.27-.645,3.385,3.385,0,0,0-1.285-.473,4.649,4.649,0,0,1-2.125-.9,1.721,1.721,0,0,1-.547-1.633,2.747,2.747,0,0,1,1.18-1.863,4.2,4.2,0,0,1,2.563-.754,3.565,3.565,0,0,1,2.441.77,1.95,1.95,0,0,1,.676,1.9l-.016.047h-2.2a1.018,1.018,0,0,0-.215-.832,1.143,1.143,0,0,0-.9-.316,1.458,1.458,0,0,0-.9.273.994.994,0,0,0-.418.672.658.658,0,0,0,.242.641,3.3,3.3,0,0,0,1.289.438,4.721,4.721,0,0,1,2.184.918,1.784,1.784,0,0,1,.535,1.668A2.67,2.67,0,0,1,33.121-.551a4.719,4.719,0,0,1-2.684.715A3.458,3.458,0,0,1,27.91-.7a2.086,2.086,0,0,1-.684-1.941l.023-.047h2.086a1.041,1.041,0,0,0,.309.984,1.648,1.648,0,0,0,1.059.3,1.741,1.741,0,0,0,.992-.254A.969.969,0,0,0,32.133-2.344Z" transform="translate(1000 9669)" fill="#00104e"/>
    <path id="Trazado_840997" data-name="Trazado 840997" d="M9.609,0H7.336l.68-4.727H3.383L2.7,0H.414L2.063-11.375H4.352L3.641-6.484H8.273l.711-4.891h2.273Zm5.531.164A3.361,3.361,0,0,1,12.348-1a3.71,3.71,0,0,1-.668-2.98l.047-.312a5.35,5.35,0,0,1,1.48-3.129,4.072,4.072,0,0,1,3.012-1.184,2.829,2.829,0,0,1,2.438,1.047,3.7,3.7,0,0,1,.523,2.8l-.172,1.18H13.961l-.016.039a1.957,1.957,0,0,0,.32,1.418,1.6,1.6,0,0,0,1.359.535,4.993,4.993,0,0,0,1.266-.141,9.4,9.4,0,0,0,1.2-.422l.352,1.438a5.365,5.365,0,0,1-1.418.617A6.622,6.622,0,0,1,15.141.164Zm.82-7.016a1.462,1.462,0,0,0-1.109.473,2.765,2.765,0,0,0-.641,1.246l.016.047h2.766l.031-.172a1.857,1.857,0,0,0-.141-1.176A.973.973,0,0,0,15.961-6.852ZM22.219,0H19.938L21.7-12.187h2.281ZM32.3-3.992a5.586,5.586,0,0,1-1.3,3.035A3.351,3.351,0,0,1,28.406.164,2.354,2.354,0,0,1,27.277-.09a2.107,2.107,0,0,1-.785-.746L25.9,3.25H23.625l1.7-11.7h2.055l-.008,1a3.327,3.327,0,0,1,1.023-.855,2.687,2.687,0,0,1,1.273-.3A2.384,2.384,0,0,1,31.9-7.375a5,5,0,0,1,.422,3.219Zm-2.258-.164a3.941,3.941,0,0,0-.113-1.949,1.089,1.089,0,0,0-1.113-.73,1.83,1.83,0,0,0-.9.219A2.028,2.028,0,0,0,27.234-6L26.7-2.312a1.167,1.167,0,0,0,.5.539,1.75,1.75,0,0,0,.859.188,1.555,1.555,0,0,0,1.3-.656,3.738,3.738,0,0,0,.652-1.75Zm8.875-7.219a4.059,4.059,0,0,1,3.211,1.34,4.041,4.041,0,0,1,.883,3.41l-.273,1.883A5.363,5.363,0,0,1,40.891-1.3,5.42,5.42,0,0,1,37.266,0H33.289l1.648-11.375ZM36.969-9.617,35.828-1.75h1.688a2.6,2.6,0,0,0,1.918-.844,3.785,3.785,0,0,0,1.02-2.148l.273-1.9a2.963,2.963,0,0,0-.379-2.152,1.917,1.917,0,0,0-1.691-.824ZM47.422.164A3.361,3.361,0,0,1,44.629-1a3.71,3.71,0,0,1-.668-2.98l.047-.312a5.35,5.35,0,0,1,1.48-3.129A4.072,4.072,0,0,1,48.5-8.609a2.829,2.829,0,0,1,2.438,1.047,3.7,3.7,0,0,1,.523,2.8l-.172,1.18H46.242l-.016.039a1.957,1.957,0,0,0,.32,1.418,1.6,1.6,0,0,0,1.359.535,4.993,4.993,0,0,0,1.266-.141,9.4,9.4,0,0,0,1.2-.422l.352,1.438a5.365,5.365,0,0,1-1.418.617A6.622,6.622,0,0,1,47.422.164Zm.82-7.016a1.462,1.462,0,0,0-1.109.473,2.765,2.765,0,0,0-.641,1.246l.016.047h2.766l.031-.172a1.857,1.857,0,0,0-.141-1.176A.973.973,0,0,0,48.242-6.852Zm8.8,4.508a.665.665,0,0,0-.27-.645,3.385,3.385,0,0,0-1.285-.473,4.649,4.649,0,0,1-2.125-.9,1.721,1.721,0,0,1-.547-1.633,2.747,2.747,0,0,1,1.18-1.863,4.2,4.2,0,0,1,2.563-.754A3.565,3.565,0,0,1,59-7.84a1.95,1.95,0,0,1,.676,1.9l-.016.047h-2.2a1.018,1.018,0,0,0-.215-.832,1.143,1.143,0,0,0-.9-.316,1.458,1.458,0,0,0-.9.273.994.994,0,0,0-.418.672.658.658,0,0,0,.242.641,3.3,3.3,0,0,0,1.289.438A4.721,4.721,0,0,1,58.73-4.1a1.784,1.784,0,0,1,.535,1.668A2.67,2.67,0,0,1,58.027-.551a4.719,4.719,0,0,1-2.684.715A3.458,3.458,0,0,1,52.816-.7a2.086,2.086,0,0,1-.684-1.941l.023-.047h2.086a1.041,1.041,0,0,0,.309.984,1.648,1.648,0,0,0,1.059.3,1.741,1.741,0,0,0,.992-.254A.969.969,0,0,0,57.039-2.344Zm6.773-1.2h-.672L62.633,0H60.352l1.766-12.187H64.4L63.391-5.273H64l2.391-3.18h2.586l.016.039L65.8-4.617,68.18,0H65.555Z" transform="translate(988 9603)" fill="#00104e"/>
    <path id="Trazado_840996" data-name="Trazado 840996" d="M10.3-4.664a5.576,5.576,0,0,1-1.82,3.488A5.29,5.29,0,0,1,4.844.164a3.931,3.931,0,0,1-3.2-1.375A4.187,4.187,0,0,1,.813-4.664l.3-2.047a5.587,5.587,0,0,1,1.8-3.48,5.209,5.209,0,0,1,3.613-1.348A3.969,3.969,0,0,1,9.746-10.16,4.2,4.2,0,0,1,10.6-6.711ZM8.328-6.727a3.138,3.138,0,0,0-.344-2.2,1.894,1.894,0,0,0-1.719-.836A2.493,2.493,0,0,0,4.352-8.9a3.963,3.963,0,0,0-.969,2.176l-.3,2.063A3.181,3.181,0,0,0,3.4-2.445a1.858,1.858,0,0,0,1.7.836,2.537,2.537,0,0,0,1.934-.855,4.031,4.031,0,0,0,1-2.2ZM19.461-3.992A5.661,5.661,0,0,1,18.18-.949a3.333,3.333,0,0,1-2.6,1.113,2.268,2.268,0,0,1-1.234-.32,2.209,2.209,0,0,1-.8-.93L13.188,0h-1.93l1.766-12.187H15.3l-.672,4.633a3.349,3.349,0,0,1,1-.781,2.669,2.669,0,0,1,1.211-.273A2.38,2.38,0,0,1,19.09-7.387a5.077,5.077,0,0,1,.395,3.23Zm-2.25-.164a4.213,4.213,0,0,0-.078-1.969A1.075,1.075,0,0,0,16-6.836a1.814,1.814,0,0,0-.918.23,2.063,2.063,0,0,0-.684.645L13.883-2.4a1.116,1.116,0,0,0,.492.59,1.744,1.744,0,0,0,.883.2,1.518,1.518,0,0,0,1.313-.629,3.969,3.969,0,0,0,.617-1.754ZM23.977.164A3.361,3.361,0,0,1,21.184-1a3.71,3.71,0,0,1-.668-2.98l.047-.312a5.35,5.35,0,0,1,1.48-3.129,4.072,4.072,0,0,1,3.012-1.184,2.829,2.829,0,0,1,2.438,1.047,3.7,3.7,0,0,1,.523,2.8l-.172,1.18H22.8l-.016.039a1.957,1.957,0,0,0,.32,1.418,1.6,1.6,0,0,0,1.359.535,4.993,4.993,0,0,0,1.266-.141,9.4,9.4,0,0,0,1.2-.422l.352,1.438a5.365,5.365,0,0,1-1.418.617A6.622,6.622,0,0,1,23.977.164Zm.82-7.016a1.462,1.462,0,0,0-1.109.473,2.765,2.765,0,0,0-.641,1.246l.016.047h2.766l.031-.172a1.857,1.857,0,0,0-.141-1.176A.973.973,0,0,0,24.8-6.852Zm9.242.359-.828-.023a1.642,1.642,0,0,0-.863.219,1.722,1.722,0,0,0-.6.617L30.93,0H28.656l1.227-8.453H32l-.078,1.242a3.168,3.168,0,0,1,.914-1.035,1.971,1.971,0,0,1,1.148-.363,1.659,1.659,0,0,1,.309.027q.145.027.285.066Zm4.039,3.344.031.773.047.008.273-.781,2.164-5.3h2.383L38.875,0H36.7L35.047-8.453H37.43ZM47.445,0a2.968,2.968,0,0,1-.105-.582,5.226,5.226,0,0,1-.012-.676A3.9,3.9,0,0,1,46.25-.238a2.608,2.608,0,0,1-1.43.4,2.5,2.5,0,0,1-1.93-.687,2.165,2.165,0,0,1-.469-1.859A2.655,2.655,0,0,1,43.66-4.32a5.344,5.344,0,0,1,2.895-.672h1.273l.1-.672a1.2,1.2,0,0,0-.184-.953,1.106,1.106,0,0,0-.9-.328,1.421,1.421,0,0,0-.891.27,1.068,1.068,0,0,0-.414.738h-2.2l-.008-.047a2.552,2.552,0,0,1,1.2-1.863,4.6,4.6,0,0,1,2.7-.762,3.341,3.341,0,0,1,2.332.77,2.327,2.327,0,0,1,.645,2.191L49.7-2.156a5.949,5.949,0,0,0-.074,1.125A5.6,5.6,0,0,0,49.766,0Zm-1.82-1.523a2.178,2.178,0,0,0,1.1-.3,1.969,1.969,0,0,0,.75-.691L47.648-3.7H46.367a1.723,1.723,0,0,0-1.145.363,1.361,1.361,0,0,0-.5.879.76.76,0,0,0,.172.688A.979.979,0,0,0,45.625-1.523Zm9.234-.062a1.458,1.458,0,0,0,.988-.355,1.524,1.524,0,0,0,.5-.949h2.07l.016.047a3.137,3.137,0,0,1-1.262,2.16,4.079,4.079,0,0,1-2.566.848A3.113,3.113,0,0,1,51.9-1.043,4.035,4.035,0,0,1,51.3-4.1l.031-.234A5.28,5.28,0,0,1,52.8-7.422a4.158,4.158,0,0,1,3.066-1.187,3.048,3.048,0,0,1,2.348.895,2.627,2.627,0,0,1,.59,2.348l-.016.039H56.7a1.534,1.534,0,0,0-.191-1.094,1,1,0,0,0-.9-.43,1.545,1.545,0,0,0-1.348.715,4.218,4.218,0,0,0-.645,1.8l-.031.234a3.623,3.623,0,0,0,.1,1.832A1.124,1.124,0,0,0,54.859-1.586ZM61.75,0H59.469L60.7-8.453h2.281Zm1.516-10.477H60.984l.25-1.711h2.281ZM63.9-4.3a5.257,5.257,0,0,1,1.5-3.117,4.264,4.264,0,0,1,3.1-1.187A3.2,3.2,0,0,1,71.234-7.4,4.032,4.032,0,0,1,71.875-4.3l-.023.164a5.283,5.283,0,0,1-1.508,3.125,4.277,4.277,0,0,1-3.1,1.18A3.209,3.209,0,0,1,64.5-1.043a3.989,3.989,0,0,1-.625-3.1Zm2.25.164a3.448,3.448,0,0,0,.133,1.867,1.191,1.191,0,0,0,1.211.688,1.649,1.649,0,0,0,1.387-.707,4,4,0,0,0,.691-1.848l.023-.164a3.415,3.415,0,0,0-.145-1.848,1.19,1.19,0,0,0-1.207-.7,1.641,1.641,0,0,0-1.387.719A3.979,3.979,0,0,0,66.172-4.3Zm3.289-7.922h2.531l.016.047L69.531-9.984H67.641l-.016-.039Zm6.461,4.8a3.689,3.689,0,0,1,1.176-.992,3.048,3.048,0,0,1,1.441-.352,2.151,2.151,0,0,1,1.863.832,3.572,3.572,0,0,1,.355,2.6L79.984,0H77.7l.75-5.172a1.9,1.9,0,0,0-.125-1.3,1.022,1.022,0,0,0-.9-.367,2.141,2.141,0,0,0-.918.2,2.152,2.152,0,0,0-.723.547L74.9,0H72.617l1.227-8.453h2.125Z" transform="translate(915 9516)" fill="#00104e"/>
    <path id="Trazado_840995" data-name="Trazado 840995" d="M9.492-3.766l.016.047A4.147,4.147,0,0,1,7.992-.848,5.172,5.172,0,0,1,4.688.164,3.776,3.776,0,0,1,1.6-1.16,4.154,4.154,0,0,1,.813-4.555l.32-2.258a5.57,5.57,0,0,1,1.715-3.426,4.86,4.86,0,0,1,3.418-1.3,4.231,4.231,0,0,1,3.078,1.023,3.064,3.064,0,0,1,.75,2.852l-.023.047H7.852a2.056,2.056,0,0,0-.285-1.641,1.942,1.942,0,0,0-1.551-.523A2.177,2.177,0,0,0,4.3-8.949a4.044,4.044,0,0,0-.891,2.121L3.086-4.555A3.21,3.21,0,0,0,3.367-2.4a1.686,1.686,0,0,0,1.57.816,2.278,2.278,0,0,0,1.6-.539,2.678,2.678,0,0,0,.754-1.641ZM15.367,0a2.968,2.968,0,0,1-.105-.582,5.226,5.226,0,0,1-.012-.676,3.9,3.9,0,0,1-1.078,1.02,2.608,2.608,0,0,1-1.43.4,2.5,2.5,0,0,1-1.93-.687,2.165,2.165,0,0,1-.469-1.859A2.655,2.655,0,0,1,11.582-4.32a5.344,5.344,0,0,1,2.895-.672H15.75l.1-.672a1.2,1.2,0,0,0-.184-.953,1.106,1.106,0,0,0-.9-.328,1.421,1.421,0,0,0-.891.27,1.068,1.068,0,0,0-.414.738h-2.2l-.008-.047a2.552,2.552,0,0,1,1.2-1.863,4.6,4.6,0,0,1,2.7-.762,3.341,3.341,0,0,1,2.332.77,2.327,2.327,0,0,1,.645,2.191l-.508,3.492a5.949,5.949,0,0,0-.074,1.125A5.6,5.6,0,0,0,17.688,0Zm-1.82-1.523a2.178,2.178,0,0,0,1.1-.3,1.969,1.969,0,0,0,.75-.691L15.57-3.7H14.289a1.723,1.723,0,0,0-1.145.363,1.361,1.361,0,0,0-.5.879.76.76,0,0,0,.172.688A.979.979,0,0,0,13.547-1.523ZM24.406-6.492l-.828-.023a1.642,1.642,0,0,0-.863.219,1.722,1.722,0,0,0-.6.617L21.3,0H19.023L20.25-8.453h2.117l-.078,1.242A3.168,3.168,0,0,1,23.2-8.246a1.971,1.971,0,0,1,1.148-.363,1.659,1.659,0,0,1,.309.027q.145.027.285.066Zm.219,2.336a6.245,6.245,0,0,1,1.332-3.25,3.3,3.3,0,0,1,2.613-1.2,2.064,2.064,0,0,1,1.09.281,2.3,2.3,0,0,1,.777.8l.68-4.656h2.289L31.641,0H29.7l-.047-1.039a3.411,3.411,0,0,1-1.07.895,2.77,2.77,0,0,1-1.3.309A2.446,2.446,0,0,1,25.043-.984,4.376,4.376,0,0,1,24.6-3.992Zm2.25.164A3.217,3.217,0,0,0,27-2.234a1.116,1.116,0,0,0,1.129.625,1.909,1.909,0,0,0,.887-.2,1.971,1.971,0,0,0,.684-.594l.523-3.586a1.389,1.389,0,0,0-.5-.621,1.433,1.433,0,0,0-.816-.223,1.537,1.537,0,0,0-1.32.746,4.567,4.567,0,0,0-.68,1.934ZM44.094-2.758a1.235,1.235,0,0,0-.355-1.152,5.335,5.335,0,0,0-1.691-.863,7.8,7.8,0,0,1-2.918-1.508,2.465,2.465,0,0,1-.746-2.312,3,3,0,0,1,1.4-2.152,5.177,5.177,0,0,1,2.914-.793,4.455,4.455,0,0,1,3.008.926,2.586,2.586,0,0,1,.8,2.559l-.016.047H44.273a1.411,1.411,0,0,0-.4-1.277,1.96,1.96,0,0,0-1.43-.5,2.116,2.116,0,0,0-1.2.336,1.167,1.167,0,0,0-.57.836A1.1,1.1,0,0,0,41.043-7.5a7.217,7.217,0,0,0,1.941.879,6.817,6.817,0,0,1,2.73,1.48,2.624,2.624,0,0,1,.66,2.371A2.963,2.963,0,0,1,44.973-.6a5.424,5.424,0,0,1-2.965.762,5.588,5.588,0,0,1-3.164-.848,2.4,2.4,0,0,1-.969-2.637l.016-.047H40.1A1.245,1.245,0,0,0,40.633-2a3.061,3.061,0,0,0,1.625.41,2.286,2.286,0,0,0,1.227-.328A1.192,1.192,0,0,0,44.094-2.758ZM47.477-4.3a5.257,5.257,0,0,1,1.5-3.117,4.264,4.264,0,0,1,3.1-1.187A3.2,3.2,0,0,1,54.813-7.4,4.032,4.032,0,0,1,55.453-4.3l-.023.164a5.283,5.283,0,0,1-1.508,3.125,4.277,4.277,0,0,1-3.1,1.18,3.209,3.209,0,0,1-2.742-1.207,3.989,3.989,0,0,1-.625-3.1Zm2.25.164a3.448,3.448,0,0,0,.133,1.867,1.191,1.191,0,0,0,1.211.688,1.649,1.649,0,0,0,1.387-.707,4,4,0,0,0,.691-1.848l.023-.164a3.415,3.415,0,0,0-.145-1.848,1.19,1.19,0,0,0-1.207-.7,1.641,1.641,0,0,0-1.387.719A3.979,3.979,0,0,0,49.75-4.3ZM61.617-6.492l-.828-.023a1.642,1.642,0,0,0-.863.219,1.722,1.722,0,0,0-.6.617L58.508,0H56.234l1.227-8.453h2.117L59.5-7.211a3.168,3.168,0,0,1,.914-1.035,1.971,1.971,0,0,1,1.148-.363,1.659,1.659,0,0,1,.309.027q.145.027.285.066Zm4.734-4.031-.3,2.07h1.43l-.234,1.6H65.82l-.625,4.3a.887.887,0,0,0,.1.711.65.65,0,0,0,.52.2,2.283,2.283,0,0,0,.313-.02,2.515,2.515,0,0,0,.313-.066L66.391-.07a5.04,5.04,0,0,1-.7.176,4.184,4.184,0,0,1-.719.059,2.116,2.116,0,0,1-1.711-.656,2.538,2.538,0,0,1-.352-2.047l.625-4.312H62.3l.234-1.6h1.227l.3-2.07ZM70.023,0H67.742l1.227-8.453H71.25Zm1.516-10.477H69.258l.25-1.711h2.281Zm3.6,3.211a3.689,3.689,0,0,1,1.176-.992,3.048,3.048,0,0,1,1.441-.352,2.151,2.151,0,0,1,1.863.832,3.572,3.572,0,0,1,.355,2.6L79.227,0H76.938l.75-5.172a1.9,1.9,0,0,0-.125-1.3,1.022,1.022,0,0,0-.9-.367,2.141,2.141,0,0,0-.918.2,2.152,2.152,0,0,0-.723.547L74.141,0H71.859l1.227-8.453h2.125ZM81.2-4.156a6.245,6.245,0,0,1,1.332-3.25,3.308,3.308,0,0,1,2.621-1.2,2.11,2.11,0,0,1,1.191.328,2.308,2.308,0,0,1,.793.93l.344-1.1h1.961L88.219-.039a3.715,3.715,0,0,1-1.445,2.57,5.16,5.16,0,0,1-3.141.883,5.372,5.372,0,0,1-1.328-.18,5.757,5.757,0,0,1-1.266-.477l.625-1.7a4.665,4.665,0,0,0,1.031.379,5.107,5.107,0,0,0,1.188.129A2.269,2.269,0,0,0,85.3,1.168a1.808,1.808,0,0,0,.633-1.215l.109-.766a3.158,3.158,0,0,1-.988.727,2.833,2.833,0,0,1-1.2.25A2.455,2.455,0,0,1,81.617-.984a4.36,4.36,0,0,1-.445-3.008Zm2.258.164a3.248,3.248,0,0,0,.117,1.758,1.109,1.109,0,0,0,1.125.625,2,2,0,0,0,.906-.2,1.845,1.845,0,0,0,.672-.574L86.8-6.016a1.272,1.272,0,0,0-.5-.609,1.539,1.539,0,0,0-.84-.211,1.528,1.528,0,0,0-1.316.746,4.6,4.6,0,0,0-.676,1.934Z" transform="translate(737 9522)" fill="#00104e"/>
    <path id="Trazado_840994" data-name="Trazado 840994" d="M7.859-4.945h-4.5v3.063H8.641V0H1.016V-11.375H8.625v1.9H3.359v2.711h4.5Zm4.086-3.508.07.977a2.951,2.951,0,0,1,2.43-1.133,2.453,2.453,0,0,1,2,.789,3.682,3.682,0,0,1,.672,2.359V0H14.859V-5.419a1.47,1.47,0,0,0-.312-1.045,1.4,1.4,0,0,0-1.039-.325,1.553,1.553,0,0,0-1.43.814V0H9.82V-8.453Zm9.586-2.078v2.078h1.445V-6.8H21.531v4.219a1.007,1.007,0,0,0,.18.672.9.9,0,0,0,.688.2,3.6,3.6,0,0,0,.664-.055V-.047a4.648,4.648,0,0,1-1.367.2,2.156,2.156,0,0,1-2.422-2.4V-6.8H18.039V-8.453h1.234v-2.078Zm7.453,4.2a6.134,6.134,0,0,0-.812-.062,1.654,1.654,0,0,0-1.68.867V0H24.234V-8.453h2.133l.063,1.008a2.092,2.092,0,0,1,1.883-1.164,2.366,2.366,0,0,1,.7.1ZM33.813.156A4.15,4.15,0,0,1,30.785-.984a4.054,4.054,0,0,1-1.168-3.039v-.219a5.106,5.106,0,0,1,.492-2.277A3.612,3.612,0,0,1,31.5-8.066a3.914,3.914,0,0,1,2.059-.543,3.508,3.508,0,0,1,2.73,1.094,4.444,4.444,0,0,1,1,3.1v.922H31.906a2.1,2.1,0,0,0,.66,1.328,2,2,0,0,0,1.395.5A2.437,2.437,0,0,0,36-2.609l1.109,1.242A3.389,3.389,0,0,1,35.734-.246,4.511,4.511,0,0,1,33.813.156Zm-.258-6.945a1.411,1.411,0,0,0-1.09.455,2.357,2.357,0,0,0-.535,1.3H35.07v-.181a1.681,1.681,0,0,0-.406-1.165A1.456,1.456,0,0,0,33.555-6.789Zm8.078,4.031,1.57-5.7h2.359L42.711,0H40.555L37.7-8.453h2.359ZM48.938,0H46.672V-8.453h2.266Zm-2.4-10.641a1.112,1.112,0,0,1,.34-.836A1.277,1.277,0,0,1,47.8-11.8a1.28,1.28,0,0,1,.922.328,1.105,1.105,0,0,1,.344.836,1.108,1.108,0,0,1-.348.844,1.283,1.283,0,0,1-.918.328,1.283,1.283,0,0,1-.918-.328A1.108,1.108,0,0,1,46.539-10.641Zm8.836,8.3a.727.727,0,0,0-.41-.652,4.659,4.659,0,0,0-1.316-.426q-3.016-.633-3.016-2.562a2.323,2.323,0,0,1,.934-1.879,3.766,3.766,0,0,1,2.441-.754,4.053,4.053,0,0,1,2.574.758,2.388,2.388,0,0,1,.965,1.969H55.289a1.092,1.092,0,0,0-.312-.8A1.322,1.322,0,0,0,54-7a1.351,1.351,0,0,0-.883.258.814.814,0,0,0-.312.656.7.7,0,0,0,.355.605,3.657,3.657,0,0,0,1.2.4,9.8,9.8,0,0,1,1.422.379A2.336,2.336,0,0,1,57.57-2.43a2.2,2.2,0,0,1-.992,1.871,4.28,4.28,0,0,1-2.562.715,4.47,4.47,0,0,1-1.887-.379,3.166,3.166,0,0,1-1.293-1.039,2.414,2.414,0,0,1-.469-1.426h2.141a1.179,1.179,0,0,0,.445.922,1.766,1.766,0,0,0,1.109.32,1.635,1.635,0,0,0,.98-.246A.766.766,0,0,0,55.375-2.336Zm6.352-8.2v2.078h1.445V-6.8H61.727v4.219a1.007,1.007,0,0,0,.18.672.9.9,0,0,0,.688.2,3.6,3.6,0,0,0,.664-.055V-.047a4.648,4.648,0,0,1-1.367.2,2.156,2.156,0,0,1-2.422-2.4V-6.8H58.234V-8.453h1.234v-2.078ZM69.328,0A2.507,2.507,0,0,1,69.1-.758a2.732,2.732,0,0,1-2.133.914A3,3,0,0,1,64.91-.562a2.312,2.312,0,0,1-.816-1.812,2.389,2.389,0,0,1,1-2.062,4.915,4.915,0,0,1,2.879-.727h1.039v-.484a1.393,1.393,0,0,0-.3-.937,1.183,1.183,0,0,0-.949-.352,1.345,1.345,0,0,0-.895.273.929.929,0,0,0-.324.75H64.281a2.268,2.268,0,0,1,.453-1.359,3,3,0,0,1,1.281-.98,4.669,4.669,0,0,1,1.859-.355,3.689,3.689,0,0,1,2.48.785,2.747,2.747,0,0,1,.918,2.207v3.664a4.041,4.041,0,0,0,.336,1.82V0ZM67.461-1.57a1.945,1.945,0,0,0,.922-.223,1.462,1.462,0,0,0,.625-.6V-3.844h-.844q-1.7,0-1.8,1.172l-.008.133a.9.9,0,0,0,.3.7A1.153,1.153,0,0,0,67.461-1.57Zm10.125-.766a.727.727,0,0,0-.41-.652,4.659,4.659,0,0,0-1.316-.426q-3.016-.633-3.016-2.562a2.323,2.323,0,0,1,.934-1.879,3.766,3.766,0,0,1,2.441-.754,4.053,4.053,0,0,1,2.574.758,2.388,2.388,0,0,1,.965,1.969H77.5a1.092,1.092,0,0,0-.312-.8A1.322,1.322,0,0,0,76.211-7a1.351,1.351,0,0,0-.883.258.814.814,0,0,0-.312.656.7.7,0,0,0,.355.605,3.657,3.657,0,0,0,1.2.4,9.8,9.8,0,0,1,1.422.379A2.336,2.336,0,0,1,79.781-2.43a2.2,2.2,0,0,1-.992,1.871,4.28,4.28,0,0,1-2.562.715A4.47,4.47,0,0,1,74.34-.223a3.166,3.166,0,0,1-1.293-1.039,2.414,2.414,0,0,1-.469-1.426h2.141a1.179,1.179,0,0,0,.445.922,1.766,1.766,0,0,0,1.109.32,1.635,1.635,0,0,0,.98-.246A.766.766,0,0,0,77.586-2.336Z" transform="translate(766 9466)" fill="#00104e"/>
    <path id="Trazado_840993" data-name="Trazado 840993" d="M7.75-4.727H3.367L2.688,0H.406L2.055-11.375H9.508L9.25-9.617H4.078L3.625-6.484H8ZM9.063-4.3a5.257,5.257,0,0,1,1.5-3.117,4.264,4.264,0,0,1,3.1-1.187A3.2,3.2,0,0,1,16.4-7.4,4.032,4.032,0,0,1,17.039-4.3l-.023.164a5.283,5.283,0,0,1-1.508,3.125,4.277,4.277,0,0,1-3.1,1.18A3.209,3.209,0,0,1,9.664-1.043a3.989,3.989,0,0,1-.625-3.1Zm2.25.164a3.448,3.448,0,0,0,.133,1.867,1.191,1.191,0,0,0,1.211.688,1.649,1.649,0,0,0,1.387-.707,4,4,0,0,0,.691-1.848l.023-.164a3.415,3.415,0,0,0-.145-1.848,1.19,1.19,0,0,0-1.207-.7,1.641,1.641,0,0,0-1.387.719A3.979,3.979,0,0,0,11.336-4.3ZM21.578-1.586a1.458,1.458,0,0,0,.988-.355,1.524,1.524,0,0,0,.5-.949h2.07l.016.047a3.137,3.137,0,0,1-1.262,2.16,4.079,4.079,0,0,1-2.566.848,3.113,3.113,0,0,1-2.707-1.207,4.035,4.035,0,0,1-.6-3.059l.031-.234A5.28,5.28,0,0,1,19.52-7.422a4.158,4.158,0,0,1,3.066-1.187,3.048,3.048,0,0,1,2.348.895,2.627,2.627,0,0,1,.59,2.348l-.016.039H23.422a1.534,1.534,0,0,0-.191-1.094,1,1,0,0,0-.9-.43,1.545,1.545,0,0,0-1.348.715,4.218,4.218,0,0,0-.645,1.8L20.3-4.1a3.623,3.623,0,0,0,.1,1.832A1.124,1.124,0,0,0,21.578-1.586Zm9.852.359A3.447,3.447,0,0,1,30.289-.2a2.975,2.975,0,0,1-1.453.359,2.219,2.219,0,0,1-1.945-.91,3.9,3.9,0,0,1-.359-2.809l.711-4.9h2.273L28.8-3.539a2.546,2.546,0,0,0,.07,1.531.948.948,0,0,0,.883.4,2.366,2.366,0,0,0,.953-.184,1.982,1.982,0,0,0,.719-.527l.9-6.133h2.281L33.383,0H31.492Zm8.609-1.117a.665.665,0,0,0-.27-.645,3.385,3.385,0,0,0-1.285-.473,4.649,4.649,0,0,1-2.125-.9,1.721,1.721,0,0,1-.547-1.633,2.747,2.747,0,0,1,1.18-1.863,4.2,4.2,0,0,1,2.563-.754A3.565,3.565,0,0,1,42-7.84a1.95,1.95,0,0,1,.676,1.9l-.016.047h-2.2a1.018,1.018,0,0,0-.215-.832,1.143,1.143,0,0,0-.9-.316,1.458,1.458,0,0,0-.9.273.994.994,0,0,0-.418.672.658.658,0,0,0,.242.641,3.3,3.3,0,0,0,1.289.438A4.721,4.721,0,0,1,41.73-4.1a1.784,1.784,0,0,1,.535,1.668A2.67,2.67,0,0,1,41.027-.551a4.719,4.719,0,0,1-2.684.715A3.458,3.458,0,0,1,35.816-.7a2.086,2.086,0,0,1-.684-1.941l.023-.047h2.086a1.041,1.041,0,0,0,.309.984,1.648,1.648,0,0,0,1.059.3,1.741,1.741,0,0,0,.992-.254A.969.969,0,0,0,40.039-2.344Zm16.414.789a5.42,5.42,0,0,1-1.762,1.2A6.713,6.713,0,0,1,51.9.164a4,4,0,0,1-3.164-1.3A3.957,3.957,0,0,1,47.891-4.5l.344-2.375a5.329,5.329,0,0,1,1.75-3.387,5.078,5.078,0,0,1,3.469-1.277,4.1,4.1,0,0,1,3.023,1A2.842,2.842,0,0,1,57.2-7.914l-.016.047H55.023a1.674,1.674,0,0,0-.312-1.418,1.867,1.867,0,0,0-1.453-.5,2.4,2.4,0,0,0-1.8.816,3.686,3.686,0,0,0-.953,2.074L50.164-4.5a2.936,2.936,0,0,0,.34,2.117,1.844,1.844,0,0,0,1.645.8,4.242,4.242,0,0,0,1.3-.168,2.417,2.417,0,0,0,.8-.41l.32-2.2H52.383l.227-1.578h4.477Zm6.938-4.937-.828-.023A1.642,1.642,0,0,0,61.7-6.3a1.722,1.722,0,0,0-.6.617L60.281,0H58.008l1.227-8.453h2.117l-.078,1.242a3.168,3.168,0,0,1,.914-1.035,1.971,1.971,0,0,1,1.148-.363,1.659,1.659,0,0,1,.309.027q.145.027.285.066ZM63.6-4.3a5.257,5.257,0,0,1,1.5-3.117,4.264,4.264,0,0,1,3.1-1.187A3.2,3.2,0,0,1,70.938-7.4,4.032,4.032,0,0,1,71.578-4.3l-.023.164a5.283,5.283,0,0,1-1.508,3.125,4.277,4.277,0,0,1-3.1,1.18A3.209,3.209,0,0,1,64.2-1.043a3.989,3.989,0,0,1-.625-3.1Zm2.25.164a3.448,3.448,0,0,0,.133,1.867,1.191,1.191,0,0,0,1.211.688,1.649,1.649,0,0,0,1.387-.707,4,4,0,0,0,.691-1.848L69.3-4.3a3.415,3.415,0,0,0-.145-1.848,1.19,1.19,0,0,0-1.207-.7,1.641,1.641,0,0,0-1.387.719A3.979,3.979,0,0,0,65.875-4.3ZM77.719-1.227A3.447,3.447,0,0,1,76.578-.2a2.975,2.975,0,0,1-1.453.359,2.219,2.219,0,0,1-1.945-.91,3.9,3.9,0,0,1-.359-2.809l.711-4.9H75.8l-.711,4.914a2.546,2.546,0,0,0,.07,1.531.948.948,0,0,0,.883.4A2.366,2.366,0,0,0,77-1.793a1.982,1.982,0,0,0,.719-.527l.9-6.133H80.9L79.672,0H77.781ZM89.594-3.992a5.586,5.586,0,0,1-1.3,3.035A3.351,3.351,0,0,1,85.7.164,2.354,2.354,0,0,1,84.574-.09a2.107,2.107,0,0,1-.785-.746L83.2,3.25H80.922l1.7-11.7h2.055l-.008,1a3.327,3.327,0,0,1,1.023-.855,2.687,2.687,0,0,1,1.273-.3A2.384,2.384,0,0,1,89.2-7.375a5,5,0,0,1,.422,3.219Zm-2.258-.164a3.941,3.941,0,0,0-.113-1.949,1.089,1.089,0,0,0-1.113-.73,1.83,1.83,0,0,0-.9.219A2.028,2.028,0,0,0,84.531-6L84-2.312a1.167,1.167,0,0,0,.5.539,1.75,1.75,0,0,0,.859.188,1.555,1.555,0,0,0,1.3-.656,3.738,3.738,0,0,0,.652-1.75Z" transform="translate(600 9447)" fill="#00104e"/>
    <rect id="Rectángulo_386024" data-name="Rectángulo 386024" width="65" height="24" transform="translate(515 9552)" fill="#ffce00"/>
    <rect id="Rectángulo_386025" data-name="Rectángulo 386025" width="78" height="24" transform="translate(515 9698)" fill="#ffce00"/>
    <rect id="Rectángulo_386026" data-name="Rectángulo 386026" width="93" height="24" transform="translate(703 9698)" fill="#ffce00"/>
    <rect id="Rectángulo_386027" data-name="Rectángulo 386027" width="99" height="24" transform="translate(907 9698)" fill="#ffce00"/>
    <path id="Trazado_841002" data-name="Trazado 841002" d="M1.32,0V-11.375H4.531a5.169,5.169,0,0,1,2.625.656A4.438,4.438,0,0,1,8.918-8.852,6.078,6.078,0,0,1,9.547-6.07v.727a6.1,6.1,0,0,1-.621,2.82A4.369,4.369,0,0,1,7.152-.664,5.5,5.5,0,0,1,4.469,0Zm1.5-10.148v8.922H4.4A3.434,3.434,0,0,0,7.1-2.306a4.458,4.458,0,0,0,.965-3.073v-.665a4.529,4.529,0,0,0-.91-3.014A3.239,3.239,0,0,0,4.57-10.148ZM13.156,0H11.711V-8.453h1.445ZM11.594-10.7a.863.863,0,0,1,.215-.594.807.807,0,0,1,.637-.242.819.819,0,0,1,.641.242.854.854,0,0,1,.219.594.826.826,0,0,1-.219.586.834.834,0,0,1-.641.234.821.821,0,0,1-.637-.234A.834.834,0,0,1,11.594-10.7Zm7.961,3.539a4.331,4.331,0,0,0-.711-.055A1.9,1.9,0,0,0,16.914-6V0H15.469V-8.453h1.406l.023.977a2.251,2.251,0,0,1,2.016-1.133,1.477,1.477,0,0,1,.641.109ZM24.242.156a3.693,3.693,0,0,1-2.8-1.129,4.19,4.19,0,0,1-1.078-3.02v-.266a5.073,5.073,0,0,1,.48-2.246,3.748,3.748,0,0,1,1.344-1.547,3.378,3.378,0,0,1,1.871-.559,3.166,3.166,0,0,1,2.563,1.086,4.7,4.7,0,0,1,.914,3.109v.6H21.813a3,3,0,0,0,.73,2.02,2.3,2.3,0,0,0,1.777.77,2.517,2.517,0,0,0,1.3-.312,3.259,3.259,0,0,0,.93-.828l.883.688A3.55,3.55,0,0,1,24.242.156Zm-.18-7.578a1.928,1.928,0,0,0-1.469.637A3.1,3.1,0,0,0,21.859-5h4.234v-.109A2.753,2.753,0,0,0,25.5-6.816,1.815,1.815,0,0,0,24.063-7.422Zm8.539,6.4a2.082,2.082,0,0,0,1.352-.469,1.649,1.649,0,0,0,.641-1.172h1.367a2.621,2.621,0,0,1-.5,1.383A3.293,3.293,0,0,1,34.23-.234,3.55,3.55,0,0,1,32.6.156,3.482,3.482,0,0,1,29.855-1a4.59,4.59,0,0,1-1.02-3.152v-.242a5.089,5.089,0,0,1,.453-2.2,3.451,3.451,0,0,1,1.3-1.492,3.7,3.7,0,0,1,2-.531,3.39,3.39,0,0,1,2.363.852,3.043,3.043,0,0,1,1,2.211H34.594a1.992,1.992,0,0,0-.621-1.348,1.932,1.932,0,0,0-1.379-.527,2.023,2.023,0,0,0-1.707.793,3.724,3.724,0,0,0-.605,2.293v.273a3.65,3.65,0,0,0,.6,2.25A2.033,2.033,0,0,0,32.6-1.023ZM39.547-10.5v2.047h1.578v1.117H39.547v5.249a1.173,1.173,0,0,0,.211.763.888.888,0,0,0,.719.254,3.5,3.5,0,0,0,.688-.094V0a4.215,4.215,0,0,1-1.109.155A1.8,1.8,0,0,1,38.594-.43,2.517,2.517,0,0,1,38.1-2.094V-7.336H36.563V-8.453H38.1V-10.5Zm2.727,6.2a4.993,4.993,0,0,1,.488-2.234A3.643,3.643,0,0,1,44.121-8.07a3.7,3.7,0,0,1,1.988-.539,3.565,3.565,0,0,1,2.793,1.2,4.6,4.6,0,0,1,1.066,3.18v.1A5.036,5.036,0,0,1,49.5-1.918,3.589,3.589,0,0,1,48.145-.391a3.743,3.743,0,0,1-2.02.547,3.556,3.556,0,0,1-2.785-1.2A4.575,4.575,0,0,1,42.273-4.2Zm1.453.172a3.616,3.616,0,0,0,.652,2.258,2.088,2.088,0,0,0,1.746.852,2.075,2.075,0,0,0,1.75-.863A3.955,3.955,0,0,0,48.523-4.3a3.61,3.61,0,0,0-.66-2.254,2.1,2.1,0,0,0-1.754-.863,2.075,2.075,0,0,0-1.727.852A3.925,3.925,0,0,0,43.727-4.133Z" transform="translate(522 9570)" fill="#00104e"/>
    <path id="Trazado_841003" data-name="Trazado 841003" d="M2.93,0H1.43V-11.375h1.5ZM6.813-8.453l.047,1.063A3.08,3.08,0,0,1,9.391-8.609q2.68,0,2.7,3.023V0H10.648V-5.594a1.946,1.946,0,0,0-.418-1.352,1.675,1.675,0,0,0-1.277-.437,2.086,2.086,0,0,0-1.234.375,2.546,2.546,0,0,0-.828.984V0H5.445V-8.453ZM13.922-4.3a4.952,4.952,0,0,1,.922-3.129,2.915,2.915,0,0,1,2.414-1.184,2.932,2.932,0,0,1,2.352,1.016V-12h1.445V0H19.727l-.07-.906A2.943,2.943,0,0,1,17.242.156a2.887,2.887,0,0,1-2.395-1.2,5.008,5.008,0,0,1-.926-3.141Zm1.445.164a3.749,3.749,0,0,0,.594,2.25A1.92,1.92,0,0,0,17.6-1.07,2.108,2.108,0,0,0,19.609-2.3V-6.187a2.125,2.125,0,0,0-1.992-1.2,1.929,1.929,0,0,0-1.656.82A4.128,4.128,0,0,0,15.367-4.133ZM24.867,0H23.422V-8.453h1.445ZM23.3-10.7a.863.863,0,0,1,.215-.594.807.807,0,0,1,.637-.242.819.819,0,0,1,.641.242.854.854,0,0,1,.219.594.826.826,0,0,1-.219.586.834.834,0,0,1-.641.234.821.821,0,0,1-.637-.234A.834.834,0,0,1,23.3-10.7Zm7.961,3.539a4.331,4.331,0,0,0-.711-.055A1.9,1.9,0,0,0,28.625-6V0H27.18V-8.453h1.406l.023.977a2.251,2.251,0,0,1,2.016-1.133,1.477,1.477,0,0,1,.641.109ZM35.953.156a3.693,3.693,0,0,1-2.8-1.129,4.19,4.19,0,0,1-1.078-3.02v-.266a5.073,5.073,0,0,1,.48-2.246A3.748,3.748,0,0,1,33.9-8.051a3.378,3.378,0,0,1,1.871-.559,3.166,3.166,0,0,1,2.563,1.086,4.7,4.7,0,0,1,.914,3.109v.6H33.523a3,3,0,0,0,.73,2.02,2.3,2.3,0,0,0,1.777.77,2.517,2.517,0,0,0,1.3-.312,3.259,3.259,0,0,0,.93-.828l.883.688A3.55,3.55,0,0,1,35.953.156Zm-.18-7.578a1.928,1.928,0,0,0-1.469.637A3.1,3.1,0,0,0,33.57-5H37.8v-.109a2.753,2.753,0,0,0-.594-1.707A1.815,1.815,0,0,0,35.773-7.422Zm8.539,6.4a2.082,2.082,0,0,0,1.352-.469A1.649,1.649,0,0,0,46.3-2.664h1.367a2.621,2.621,0,0,1-.5,1.383,3.293,3.293,0,0,1-1.23,1.047,3.55,3.55,0,0,1-1.629.391A3.482,3.482,0,0,1,41.566-1a4.59,4.59,0,0,1-1.02-3.152v-.242A5.089,5.089,0,0,1,41-6.586a3.451,3.451,0,0,1,1.3-1.492,3.7,3.7,0,0,1,2-.531,3.39,3.39,0,0,1,2.363.852,3.043,3.043,0,0,1,1,2.211H46.3a1.992,1.992,0,0,0-.621-1.348A1.932,1.932,0,0,0,44.3-7.422a2.023,2.023,0,0,0-1.707.793,3.724,3.724,0,0,0-.605,2.293v.273a3.65,3.65,0,0,0,.6,2.25A2.033,2.033,0,0,0,44.313-1.023ZM51.258-10.5v2.047h1.578v1.117H51.258v5.249a1.173,1.173,0,0,0,.211.763.888.888,0,0,0,.719.254,3.5,3.5,0,0,0,.688-.094V0a4.215,4.215,0,0,1-1.109.155A1.8,1.8,0,0,1,50.3-.43a2.517,2.517,0,0,1-.492-1.664V-7.336H48.273V-8.453h1.539V-10.5Zm2.727,6.2a4.993,4.993,0,0,1,.488-2.234A3.643,3.643,0,0,1,55.832-8.07a3.7,3.7,0,0,1,1.988-.539,3.565,3.565,0,0,1,2.793,1.2,4.6,4.6,0,0,1,1.066,3.18v.1a5.036,5.036,0,0,1-.473,2.215A3.589,3.589,0,0,1,59.855-.391a3.743,3.743,0,0,1-2.02.547,3.556,3.556,0,0,1-2.785-1.2A4.575,4.575,0,0,1,53.984-4.2Zm1.453.172a3.616,3.616,0,0,0,.652,2.258,2.088,2.088,0,0,0,1.746.852,2.075,2.075,0,0,0,1.75-.863A3.955,3.955,0,0,0,60.234-4.3a3.61,3.61,0,0,0-.66-2.254,2.1,2.1,0,0,0-1.754-.863,2.075,2.075,0,0,0-1.727.852A3.925,3.925,0,0,0,55.438-4.133Z" transform="translate(522 9716)" fill="#00104e"/>
    <path id="Trazado_841004" data-name="Trazado 841004" d="M5.492-4.6H2.82V0H1.313V-11.375H5.078a4.457,4.457,0,0,1,2.957.875A3.148,3.148,0,0,1,9.07-7.953,3.062,3.062,0,0,1,8.5-6.1a3.428,3.428,0,0,1-1.6,1.18L9.57-.094V0H7.961ZM2.82-5.828h2.3A2.6,2.6,0,0,0,6.9-6.407a1.959,1.959,0,0,0,.66-1.55,2.062,2.062,0,0,0-.629-1.62,2.663,2.663,0,0,0-1.816-.571H2.82ZM14.453.156a3.693,3.693,0,0,1-2.8-1.129,4.19,4.19,0,0,1-1.078-3.02v-.266a5.073,5.073,0,0,1,.48-2.246A3.748,3.748,0,0,1,12.4-8.051a3.378,3.378,0,0,1,1.871-.559,3.166,3.166,0,0,1,2.563,1.086,4.7,4.7,0,0,1,.914,3.109v.6H12.023a3,3,0,0,0,.73,2.02,2.3,2.3,0,0,0,1.777.77,2.517,2.517,0,0,0,1.3-.312,3.259,3.259,0,0,0,.93-.828l.883.688A3.55,3.55,0,0,1,14.453.156Zm-.18-7.578a1.928,1.928,0,0,0-1.469.637A3.1,3.1,0,0,0,12.07-5H16.3v-.109a2.753,2.753,0,0,0-.594-1.707A1.815,1.815,0,0,0,14.273-7.422ZM26.563-4.133a5.062,5.062,0,0,1-.883,3.109A2.829,2.829,0,0,1,23.289.156,3.1,3.1,0,0,1,20.867-.82V3.25H19.422v-11.7h1.32l.07.938a2.977,2.977,0,0,1,2.453-1.094,2.882,2.882,0,0,1,2.41,1.148,5.117,5.117,0,0,1,.887,3.2ZM25.117-4.3a3.735,3.735,0,0,0-.609-2.258,1.963,1.963,0,0,0-1.672-.828,2.125,2.125,0,0,0-1.969,1.164V-2.18a2.129,2.129,0,0,0,1.984,1.156A1.954,1.954,0,0,0,24.5-1.848,4.077,4.077,0,0,0,25.117-4.3Zm2.9-.008A4.993,4.993,0,0,1,28.5-6.539,3.643,3.643,0,0,1,29.863-8.07a3.7,3.7,0,0,1,1.988-.539,3.565,3.565,0,0,1,2.793,1.2,4.6,4.6,0,0,1,1.066,3.18v.1a5.036,5.036,0,0,1-.473,2.215A3.589,3.589,0,0,1,33.887-.391a3.743,3.743,0,0,1-2.02.547,3.556,3.556,0,0,1-2.785-1.2A4.575,4.575,0,0,1,28.016-4.2Zm1.453.172a3.616,3.616,0,0,0,.652,2.258,2.088,2.088,0,0,0,1.746.852,2.075,2.075,0,0,0,1.75-.863A3.955,3.955,0,0,0,34.266-4.3a3.61,3.61,0,0,0-.66-2.254,2.1,2.1,0,0,0-1.754-.863,2.075,2.075,0,0,0-1.727.852A3.925,3.925,0,0,0,29.469-4.133ZM41.609-7.156a4.331,4.331,0,0,0-.711-.055A1.9,1.9,0,0,0,38.969-6V0H37.523V-8.453H38.93l.023.977a2.251,2.251,0,0,1,2.016-1.133,1.477,1.477,0,0,1,.641.109Zm3.68-3.344v2.047h1.578v1.117H45.289v5.249a1.173,1.173,0,0,0,.211.763.888.888,0,0,0,.719.254,3.5,3.5,0,0,0,.688-.094V0A4.215,4.215,0,0,1,45.8.156,1.8,1.8,0,0,1,44.336-.43a2.517,2.517,0,0,1-.492-1.664V-7.336H42.3V-8.453h1.539V-10.5ZM53.773,0a3.036,3.036,0,0,1-.2-.891A3.225,3.225,0,0,1,51.164.156a2.984,2.984,0,0,1-2.051-.707,2.287,2.287,0,0,1-.8-1.793,2.39,2.39,0,0,1,1-2.051,4.733,4.733,0,0,1,2.824-.73h1.406v-.664A1.623,1.623,0,0,0,53.094-7a1.821,1.821,0,0,0-1.336-.449,2.107,2.107,0,0,0-1.3.391,1.151,1.151,0,0,0-.523.945H48.484a2,2,0,0,1,.449-1.223,3.066,3.066,0,0,1,1.219-.934,4.1,4.1,0,0,1,1.691-.344,3.342,3.342,0,0,1,2.289.73,2.635,2.635,0,0,1,.859,2.012v3.891a4.757,4.757,0,0,0,.3,1.852V0Zm-2.4-1.1a2.54,2.54,0,0,0,1.289-.352,2.127,2.127,0,0,0,.883-.914V-4.1H52.414q-2.656,0-2.656,1.555a1.316,1.316,0,0,0,.453,1.063A1.742,1.742,0,0,0,51.375-1.1Zm5.531-3.2a4.952,4.952,0,0,1,.922-3.129,2.915,2.915,0,0,1,2.414-1.184,2.932,2.932,0,0,1,2.352,1.016V-12h1.445V0H62.711l-.07-.906A2.943,2.943,0,0,1,60.227.156a2.887,2.887,0,0,1-2.395-1.2,5.008,5.008,0,0,1-.926-3.141Zm1.445.164a3.749,3.749,0,0,0,.594,2.25,1.92,1.92,0,0,0,1.641.813A2.108,2.108,0,0,0,62.594-2.3V-6.187a2.125,2.125,0,0,0-1.992-1.2,1.929,1.929,0,0,0-1.656.82A4.128,4.128,0,0,0,58.352-4.133ZM65.9-4.3a4.993,4.993,0,0,1,.488-2.234A3.643,3.643,0,0,1,67.746-8.07a3.7,3.7,0,0,1,1.988-.539,3.565,3.565,0,0,1,2.793,1.2,4.6,4.6,0,0,1,1.066,3.18v.1a5.036,5.036,0,0,1-.473,2.215A3.589,3.589,0,0,1,71.77-.391a3.743,3.743,0,0,1-2.02.547,3.556,3.556,0,0,1-2.785-1.2A4.575,4.575,0,0,1,65.9-4.2Zm1.453.172A3.616,3.616,0,0,0,68-1.875a2.088,2.088,0,0,0,1.746.852,2.075,2.075,0,0,0,1.75-.863A3.955,3.955,0,0,0,72.148-4.3a3.61,3.61,0,0,0-.66-2.254,2.1,2.1,0,0,0-1.754-.863,2.075,2.075,0,0,0-1.727.852A3.925,3.925,0,0,0,67.352-4.133ZM80.328-2.242a1.064,1.064,0,0,0-.441-.91,4.249,4.249,0,0,0-1.539-.559,7.277,7.277,0,0,1-1.742-.562,2.479,2.479,0,0,1-.953-.781,1.869,1.869,0,0,1-.309-1.078,2.193,2.193,0,0,1,.879-1.758,3.432,3.432,0,0,1,2.246-.719,3.532,3.532,0,0,1,2.332.742,2.357,2.357,0,0,1,.895,1.9H80.242a1.3,1.3,0,0,0-.5-1.023,1.888,1.888,0,0,0-1.27-.43,1.976,1.976,0,0,0-1.234.344,1.082,1.082,0,0,0-.445.9.877.877,0,0,0,.414.789,5.1,5.1,0,0,0,1.5.508,7.8,7.8,0,0,1,1.754.578,2.558,2.558,0,0,1,1,.809,1.988,1.988,0,0,1,.324,1.152,2.163,2.163,0,0,1-.906,1.816,3.8,3.8,0,0,1-2.352.684,4.257,4.257,0,0,1-1.8-.359,2.922,2.922,0,0,1-1.223-1A2.42,2.42,0,0,1,75.055-2.6H76.5a1.5,1.5,0,0,0,.582,1.152,2.258,2.258,0,0,0,1.434.426,2.331,2.331,0,0,0,1.316-.332A1.02,1.02,0,0,0,80.328-2.242Z" transform="translate(710 9716)" fill="#00104e"/>
    <path id="Trazado_841005" data-name="Trazado 841005" d="M10.07-5.32A7.037,7.037,0,0,1,9.508-2.4,4.261,4.261,0,0,1,7.914-.5,4.385,4.385,0,0,1,5.508.156,4.347,4.347,0,0,1,3.125-.5,4.363,4.363,0,0,1,1.512-2.387a6.752,6.752,0,0,1-.59-2.832v-.82a6.953,6.953,0,0,1,.57-2.9,4.347,4.347,0,0,1,1.613-1.926,4.329,4.329,0,0,1,2.387-.668,4.41,4.41,0,0,1,2.41.66A4.253,4.253,0,0,1,9.508-8.957a7.071,7.071,0,0,1,.563,2.918ZM8.578-6.055A5.1,5.1,0,0,0,7.766-9.16a2.68,2.68,0,0,0-2.273-1.082A2.651,2.651,0,0,0,3.254-9.16a5,5,0,0,0-.84,3v.836a5.107,5.107,0,0,0,.824,3.082,2.662,2.662,0,0,0,2.27,1.121,2.652,2.652,0,0,0,2.25-1.059,5.079,5.079,0,0,0,.82-3.035ZM19.25-4.133a5.026,5.026,0,0,1-.891,3.113A2.846,2.846,0,0,1,15.969.156,2.947,2.947,0,0,1,13.492-.977L13.422,0H12.094V-12h1.445v4.477a2.93,2.93,0,0,1,2.414-1.086,2.863,2.863,0,0,1,2.418,1.164,5.177,5.177,0,0,1,.879,3.188ZM17.8-4.3a3.906,3.906,0,0,0-.57-2.281,1.888,1.888,0,0,0-1.641-.8,2.122,2.122,0,0,0-2.055,1.328V-2.4a2.181,2.181,0,0,0,2.07,1.328,1.878,1.878,0,0,0,1.617-.8A4.153,4.153,0,0,0,17.8-4.3Zm8.188,2.055a1.064,1.064,0,0,0-.441-.91,4.249,4.249,0,0,0-1.539-.559,7.277,7.277,0,0,1-1.742-.562,2.479,2.479,0,0,1-.953-.781,1.869,1.869,0,0,1-.309-1.078,2.193,2.193,0,0,1,.879-1.758,3.432,3.432,0,0,1,2.246-.719,3.532,3.532,0,0,1,2.332.742,2.357,2.357,0,0,1,.895,1.9H25.906a1.3,1.3,0,0,0-.5-1.023,1.888,1.888,0,0,0-1.27-.43,1.976,1.976,0,0,0-1.234.344,1.082,1.082,0,0,0-.445.9.877.877,0,0,0,.414.789,5.1,5.1,0,0,0,1.5.508,7.8,7.8,0,0,1,1.754.578,2.558,2.558,0,0,1,1,.809,1.988,1.988,0,0,1,.324,1.152,2.163,2.163,0,0,1-.906,1.816A3.8,3.8,0,0,1,24.18.156a4.257,4.257,0,0,1-1.8-.359,2.922,2.922,0,0,1-1.223-1A2.42,2.42,0,0,1,20.719-2.6h1.445a1.5,1.5,0,0,0,.582,1.152,2.258,2.258,0,0,0,1.434.426A2.331,2.331,0,0,0,25.5-1.355,1.02,1.02,0,0,0,25.992-2.242Zm6.836,2.4a3.693,3.693,0,0,1-2.8-1.129,4.19,4.19,0,0,1-1.078-3.02v-.266a5.073,5.073,0,0,1,.48-2.246,3.748,3.748,0,0,1,1.344-1.547,3.378,3.378,0,0,1,1.871-.559,3.166,3.166,0,0,1,2.563,1.086,4.7,4.7,0,0,1,.914,3.109v.6H30.4a3,3,0,0,0,.73,2.02,2.3,2.3,0,0,0,1.777.77,2.517,2.517,0,0,0,1.3-.312,3.259,3.259,0,0,0,.93-.828l.883.688A3.55,3.55,0,0,1,32.828.156Zm-.18-7.578a1.928,1.928,0,0,0-1.469.637A3.1,3.1,0,0,0,30.445-5H34.68v-.109a2.753,2.753,0,0,0-.594-1.707A1.815,1.815,0,0,0,32.648-7.422Zm9.234.266a4.331,4.331,0,0,0-.711-.055A1.9,1.9,0,0,0,39.242-6V0H37.8V-8.453H39.2l.023.977a2.251,2.251,0,0,1,2.016-1.133,1.477,1.477,0,0,1,.641.109Zm4.258,5.2,2.094-6.492h1.477L46.68,0h-1.1L42.516-8.453h1.477ZM56.2,0A3.036,3.036,0,0,1,56-.891,3.225,3.225,0,0,1,53.594.156a2.984,2.984,0,0,1-2.051-.707,2.287,2.287,0,0,1-.8-1.793,2.39,2.39,0,0,1,1-2.051,4.733,4.733,0,0,1,2.824-.73h1.406v-.664A1.623,1.623,0,0,0,55.523-7a1.821,1.821,0,0,0-1.336-.449,2.107,2.107,0,0,0-1.3.391,1.151,1.151,0,0,0-.523.945H50.914a2,2,0,0,1,.449-1.223,3.066,3.066,0,0,1,1.219-.934,4.1,4.1,0,0,1,1.691-.344,3.342,3.342,0,0,1,2.289.73,2.635,2.635,0,0,1,.859,2.012v3.891a4.757,4.757,0,0,0,.3,1.852V0ZM53.8-1.1a2.54,2.54,0,0,0,1.289-.352,2.127,2.127,0,0,0,.883-.914V-4.1H54.844q-2.656,0-2.656,1.555a1.316,1.316,0,0,0,.453,1.063A1.742,1.742,0,0,0,53.8-1.1Zm5.531-3.2a4.952,4.952,0,0,1,.922-3.129,2.915,2.915,0,0,1,2.414-1.184,2.932,2.932,0,0,1,2.352,1.016V-12h1.445V0H65.141l-.07-.906A2.943,2.943,0,0,1,62.656.156a2.887,2.887,0,0,1-2.395-1.2,5.008,5.008,0,0,1-.926-3.141Zm1.445.164a3.749,3.749,0,0,0,.594,2.25,1.92,1.92,0,0,0,1.641.813A2.108,2.108,0,0,0,65.023-2.3V-6.187a2.125,2.125,0,0,0-1.992-1.2,1.929,1.929,0,0,0-1.656.82A4.128,4.128,0,0,0,60.781-4.133ZM68.328-4.3a4.993,4.993,0,0,1,.488-2.234A3.643,3.643,0,0,1,70.176-8.07a3.7,3.7,0,0,1,1.988-.539,3.565,3.565,0,0,1,2.793,1.2,4.6,4.6,0,0,1,1.066,3.18v.1a5.036,5.036,0,0,1-.473,2.215A3.589,3.589,0,0,1,74.2-.391a3.743,3.743,0,0,1-2.02.547,3.556,3.556,0,0,1-2.785-1.2A4.575,4.575,0,0,1,68.328-4.2Zm1.453.172a3.616,3.616,0,0,0,.652,2.258,2.088,2.088,0,0,0,1.746.852,2.075,2.075,0,0,0,1.75-.863A3.955,3.955,0,0,0,74.578-4.3a3.61,3.61,0,0,0-.66-2.254,2.1,2.1,0,0,0-1.754-.863,2.075,2.075,0,0,0-1.727.852A3.925,3.925,0,0,0,69.781-4.133ZM82.758-2.242a1.064,1.064,0,0,0-.441-.91,4.249,4.249,0,0,0-1.539-.559,7.277,7.277,0,0,1-1.742-.562,2.479,2.479,0,0,1-.953-.781,1.869,1.869,0,0,1-.309-1.078,2.193,2.193,0,0,1,.879-1.758A3.432,3.432,0,0,1,80.9-8.609a3.532,3.532,0,0,1,2.332.742,2.357,2.357,0,0,1,.895,1.9H82.672a1.3,1.3,0,0,0-.5-1.023,1.888,1.888,0,0,0-1.27-.43,1.976,1.976,0,0,0-1.234.344,1.082,1.082,0,0,0-.445.9.877.877,0,0,0,.414.789,5.1,5.1,0,0,0,1.5.508,7.8,7.8,0,0,1,1.754.578,2.558,2.558,0,0,1,1,.809A1.988,1.988,0,0,1,84.2-2.344,2.163,2.163,0,0,1,83.3-.527a3.8,3.8,0,0,1-2.352.684,4.257,4.257,0,0,1-1.8-.359,2.922,2.922,0,0,1-1.223-1A2.42,2.42,0,0,1,77.484-2.6H78.93a1.5,1.5,0,0,0,.582,1.152,2.258,2.258,0,0,0,1.434.426,2.331,2.331,0,0,0,1.316-.332A1.02,1.02,0,0,0,82.758-2.242Z" transform="translate(914 9716)" fill="#00104e"/>
  </g>
</svg>
