<svg id="iso" xmlns="http://www.w3.org/2000/svg" width="85" height="85" viewBox="0 0 85 85">
  <path id="Trazado_840584" data-name="Trazado 840584" d="M42.5,0A42.5,42.5,0,1,0,85,42.5,42.592,42.592,0,0,0,42.5,0ZM72.572,20.088H57.421c-1.143-4.652-2.947-9.941-5.624-13.941A37.625,37.625,0,0,1,72.572,20.088ZM42.5,4.98c1.737,0,3.679,1.567,5.468,4.413a39.574,39.574,0,0,1,4.314,10.694H32.718A39.572,39.572,0,0,1,37.032,9.394C38.821,6.548,40.763,4.98,42.5,4.98ZM33.2,6.147c-2.677,4-4.481,9.289-5.624,13.941H12.428A37.625,37.625,0,0,1,33.2,6.147ZM9.284,25.068H75.716a37.453,37.453,0,0,1,0,34.863H9.284a37.453,37.453,0,0,1,0-34.863ZM42.5,80.02c-1.737,0-3.679-1.567-5.468-4.413a39.574,39.574,0,0,1-4.314-10.694H52.282a39.577,39.577,0,0,1-4.314,10.694C46.179,78.452,44.237,80.02,42.5,80.02ZM12.428,64.912H27.579c1.144,4.656,2.947,9.941,5.624,13.941A37.625,37.625,0,0,1,12.428,64.912ZM51.8,78.853c2.676-4,4.48-9.287,5.624-13.941H72.572A37.625,37.625,0,0,1,51.8,78.853Z" fill="#1682fb"/>
  <path id="Trazado_840585" data-name="Trazado 840585" d="M123.49,205.9a2.49,2.49,0,0,0,2.49-2.49V183.49a2.49,2.49,0,0,0-4.98,0v19.922A2.49,2.49,0,0,0,123.49,205.9Z" transform="translate(-100.912 -150.951)" fill="#1682fb"/>
  <path id="Trazado_840586" data-name="Trazado 840586" d="M189,195.941a2.49,2.49,0,1,1-1.761,4.251,2.49,2.49,0,0,0-3.522,3.522A7.471,7.471,0,1,0,189,190.961a2.49,2.49,0,1,1,1.761-4.251,2.49,2.49,0,0,0,3.522-3.522A7.471,7.471,0,1,0,189,195.941Z" transform="translate(-151.392 -150.951)" fill="#1682fb"/>
  <path id="Trazado_840587" data-name="Trazado 840587" d="M309,205.9a7.479,7.479,0,0,0,7.471-7.471v-9.961a7.471,7.471,0,0,0-14.941,0v9.961A7.479,7.479,0,0,0,309,205.9Zm-2.49-17.432a2.49,2.49,0,0,1,4.98,0v9.961a2.49,2.49,0,0,1-4.98,0Z" transform="translate(-251.47 -150.951)" fill="#1682fb"/>
</svg>
