<svg id="Grupo_1073018" data-name="Grupo 1073018" xmlns="http://www.w3.org/2000/svg" width="72.842" height="24.028" viewBox="0 0 72.842 24.028">
  <g id="Grupo_1072927" data-name="Grupo 1072927">
    <path id="Trazado_818457" data-name="Trazado 818457" d="M72.842,9.87l-1.219,1.389a7.645,7.645,0,0,1-11.8,0l-.734-.836a7.647,7.647,0,0,0-11.8,0,7.645,7.645,0,0,1-11.8,0l-.067-.076a7.647,7.647,0,0,0-11.8,0l-.6.684a7.645,7.645,0,0,1-11.8,0l-.465-.532A7.6,7.6,0,0,0,0,9.5v4.187a7.6,7.6,0,0,1,10.751,1l.465.532a7.645,7.645,0,0,0,11.8,0l.6-.684a7.645,7.645,0,0,1,11.8,0l.067.076a7.645,7.645,0,0,0,11.8,0,7.645,7.645,0,0,1,11.8,0l.734.836a7.645,7.645,0,0,0,11.8,0l1.219-1.389Z" transform="translate(0 5.8)" fill="#7681b0"/>
    <path id="Trazado_818458" data-name="Trazado 818458" d="M72.842,2.306,71.623,3.695a7.645,7.645,0,0,1-11.8,0l-.734-.836a7.645,7.645,0,0,0-11.8,0,7.645,7.645,0,0,1-11.8,0l-.067-.076a7.645,7.645,0,0,0-11.8,0l-.6.684a7.645,7.645,0,0,1-11.8,0l-.465-.532A7.6,7.6,0,0,0,0,1.933V6.119a7.6,7.6,0,0,1,10.751,1l.465.532a7.645,7.645,0,0,0,11.8,0l.6-.684a7.645,7.645,0,0,1,11.8,0l.067.076a7.645,7.645,0,0,0,11.8,0,7.645,7.645,0,0,1,11.8,0l.734.836a7.645,7.645,0,0,0,11.8,0l1.219-1.389Z" transform="translate(0 0.001)" fill="#7681b0"/>
  </g>
</svg>
