<svg xmlns="http://www.w3.org/2000/svg" width="138" height="138" viewBox="0 0 138 138">
  <g id="Grupo_1079654" data-name="Grupo 1079654" transform="translate(-285.266 -14887.266)">
    <rect id="Rectángulo_386093" data-name="Rectángulo 386093" width="138" height="138" rx="10" transform="translate(285.266 14887.266)" fill="#1682fb"/>
    <g id="_70822310_space_online_one1-15" data-name="70822310_space_online_one1-15" transform="translate(301.145 14916.117)">
      <g id="Grupo_1079653" data-name="Grupo 1079653" transform="translate(0 0)">
        <path id="Trazado_838341" data-name="Trazado 838341" d="M219.955,336.45v73.992H113.713V336.45a6.318,6.318,0,0,1,6.306-6.306h93.63A6.308,6.308,0,0,1,219.955,336.45Z" transform="translate(-113.713 -330.144)" fill="#c7cde9"/>
        <rect id="Rectángulo_386089" data-name="Rectángulo 386089" width="86.919" height="11.85" transform="translate(9.666 21.751)" fill="#c6b4d8"/>
        <rect id="Rectángulo_386090" data-name="Rectángulo 386090" width="22.832" height="34.413" transform="translate(73.752 39.575)" fill="#c6b4d8"/>
        <rect id="Rectángulo_386091" data-name="Rectángulo 386091" width="55.864" height="21.832" transform="translate(10.633 39.575)" fill="#c6b4d8"/>
        <rect id="Rectángulo_386092" data-name="Rectángulo 386092" width="55.864" height="5.079" transform="translate(10.633 68.909)" fill="#c6b4d8"/>
        <path id="Trazado_838342" data-name="Trazado 838342" d="M219.955,336.45v6.674H113.713V336.45a6.318,6.318,0,0,1,6.306-6.306h93.63A6.308,6.308,0,0,1,219.955,336.45Z" transform="translate(-113.713 -330.144)" fill="#aa68a7"/>
        <circle id="Elipse_10212" data-name="Elipse 10212" cx="2.476" cy="2.476" r="2.476" transform="translate(12.205 6.49) rotate(-45)" fill="#c7cde9"/>
        <circle id="Elipse_10213" data-name="Elipse 10213" cx="2.476" cy="2.476" r="2.476" transform="translate(4.791 8.784) rotate(-85.934)" fill="#f1a4a8"/>
        <circle id="Elipse_10214" data-name="Elipse 10214" cx="2.476" cy="2.476" r="2.476" transform="translate(21 8.333) rotate(-76.714)" fill="#c6b4d8"/>
      </g>
    </g>
  </g>
</svg>
