<svg xmlns="http://www.w3.org/2000/svg" width="83.834" height="83.891" viewBox="0 0 83.834 83.891">
  <g id="ui" transform="translate(-0.173)">
    <g id="Grupo_1079996" data-name="Grupo 1079996" transform="translate(1.402 1.229)">
      <path id="Trazado_840588" data-name="Trazado 840588" d="M89.048,60.352H7.673V12.138A4.638,4.638,0,0,1,12.311,7.5h72.1a4.638,4.638,0,0,1,4.638,4.638Z" transform="translate(-7.673 -7.5)" fill="#effbff"/>
      <path id="Trazado_840589" data-name="Trazado 840589" d="M463.821,12.137V60.352h-3.271V12.137A4.639,4.639,0,0,0,455.911,7.5h3.271a4.638,4.638,0,0,1,4.638,4.638Z" transform="translate(-382.446 -7.499)" fill="#d6f6fd"/>
      <path id="Trazado_840590" data-name="Trazado 840590" d="M84.41,342.737h-72.1A4.638,4.638,0,0,1,7.673,338.1V329.97H89.048V338.1A4.638,4.638,0,0,1,84.41,342.737Z" transform="translate(-7.673 -277.118)" fill="#a8cfee"/>
      <path id="Trazado_840591" data-name="Trazado 840591" d="M463.8,329.973V338.1a4.638,4.638,0,0,1-4.638,4.638h-3.275a4.638,4.638,0,0,0,4.638-4.638v-8.128Z" transform="translate(-382.429 -277.12)" fill="#88bde7"/>
      <path id="Trazado_840592" data-name="Trazado 840592" d="M202.158,407.864h17.624V423.7H202.158Z" transform="translate(-170.282 -342.245)" fill="#a8cfee"/>
      <path id="Trazado_840593" data-name="Trazado 840593" d="M290.258,407.864h3.184V423.7h-3.184Z" transform="translate(-243.943 -342.245)" fill="#88bde7"/>
      <circle id="Elipse_10231" data-name="Elipse 10231" cx="18.417" cy="18.417" r="18.417" transform="translate(6.346 8.01)" fill="#ffe54c"/>
      <path id="Trazado_840594" data-name="Trazado 840594" d="M144.1,76.272a18.424,18.424,0,0,1-24.9,17.241,18.42,18.42,0,0,0,9.762-35.366A18.421,18.421,0,0,1,144.1,76.272Z" transform="translate(-100.921 -49.846)" fill="#ffd500"/>
      <circle id="Elipse_10232" data-name="Elipse 10232" cx="18.417" cy="18.417" r="18.417" transform="translate(38.196 8.01)" fill="#00d6a0"/>
      <path id="Trazado_840595" data-name="Trazado 840595" d="M338.417,76.281a18.422,18.422,0,0,1-24.9,17.239,18.419,18.419,0,0,0,9.767-35.363A18.419,18.419,0,0,1,338.417,76.281Z" transform="translate(-263.388 -49.854)" fill="#00c376"/>
    </g>
    <g id="Grupo_1079997" data-name="Grupo 1079997" transform="translate(0.173 0)">
      <path id="Trazado_840596" data-name="Trazado 840596" d="M78.139,0H6.041A5.874,5.874,0,0,0,.173,5.868V62.21a5.874,5.874,0,0,0,5.868,5.868H32.049V81.432H27.305a1.229,1.229,0,0,0,0,2.458H56.874a1.229,1.229,0,0,0,0-2.458H52.131v-4.22a1.229,1.229,0,0,0-2.458,0v4.22H34.507V68.077H49.673V71.44a1.229,1.229,0,1,0,2.458,0V68.077H78.14a5.874,5.874,0,0,0,5.868-5.868V5.868A5.874,5.874,0,0,0,78.139,0ZM2.631,5.868A3.413,3.413,0,0,1,6.041,2.458h72.1a3.413,3.413,0,0,1,3.409,3.409V52.852H2.631ZM81.548,62.21a3.413,3.413,0,0,1-3.409,3.409H6.041A3.413,3.413,0,0,1,2.631,62.21v-6.9H81.548Z" transform="translate(-0.173 0)"/>
      <path id="Trazado_840597" data-name="Trazado 840597" d="M234.681,363.875h4.908a1.229,1.229,0,1,0,0-2.458h-4.908a1.229,1.229,0,1,0,0,2.458Z" transform="translate(-195.218 -302.182)"/>
      <path id="Trazado_840598" data-name="Trazado 840598" d="M194.805,139.953V128.975a1.229,1.229,0,1,0-2.458,0v10.978a1.229,1.229,0,1,0,2.458,0Z" transform="translate(-160.85 -106.809)"/>
      <path id="Trazado_840599" data-name="Trazado 840599" d="M111.4,127.744a1.229,1.229,0,0,0-1.229,1.229v7.554a4.4,4.4,0,0,0,2.29,3.881,5.177,5.177,0,0,0,5.051.226,4.447,4.447,0,0,0,2.745-4.115v-7.546a1.229,1.229,0,1,0-2.458,0v7.546c0,.567-.158,1.3-1.393,1.919a2.787,2.787,0,0,1-2.622-.1,2.017,2.017,0,0,1-1.155-1.809v-7.554A1.229,1.229,0,0,0,111.4,127.744Z" transform="translate(-92.139 -106.807)"/>
      <path id="Trazado_840600" data-name="Trazado 840600" d="M90.385,48.868a19.633,19.633,0,0,0-15.92,8.147,19.625,19.625,0,0,0-15.93-8.147,19.516,19.516,0,0,0-11.367,3.62,1.229,1.229,0,1,0,1.424,2,17.194,17.194,0,0,1,24.449,4.8,19.622,19.622,0,0,0,0,18.444A17.189,17.189,0,1,1,44.794,58.188a1.229,1.229,0,0,0-1.964-1.479A19.648,19.648,0,1,0,74.466,80.015a19.643,19.643,0,1,0,15.92-31.147Zm0,36.833a17.187,17.187,0,1,1,17.187-17.187A17.207,17.207,0,0,1,90.385,85.7Z" transform="translate(-32.544 -40.859)"/>
      <path id="Trazado_840601" data-name="Trazado 840601" d="M364.789,134.072l3.094-4.392a1.229,1.229,0,1,0-2.01-1.416l-2.587,3.672-2.582-3.671a1.229,1.229,0,1,0-2.011,1.415l3.089,4.391-3.643,5.171a1.229,1.229,0,1,0,2.01,1.416l3.136-4.451,3.131,4.451a1.25,1.25,0,0,0,1.713.3,1.229,1.229,0,0,0,.3-1.713Z" transform="translate(-299.282 -106.807)"/>
      <path id="Trazado_840602" data-name="Trazado 840602" d="M291.616,127.745a1.229,1.229,0,0,0-1.229,1.229v7.546c0,.567-.158,1.3-1.393,1.919a2.76,2.76,0,0,1-1.254.283h0a2.461,2.461,0,0,1-1.363-.385,2.017,2.017,0,0,1-1.155-1.809v-7.554a1.229,1.229,0,1,0-2.458,0v7.554a4.4,4.4,0,0,0,2.29,3.881,5.263,5.263,0,0,0,5.052.226,4.447,4.447,0,0,0,2.745-4.115v-7.546A1.23,1.23,0,0,0,291.616,127.745Z" transform="translate(-236.444 -106.808)"/>
    </g>
  </g>
</svg>
