<svg xmlns="http://www.w3.org/2000/svg" width="190" height="96" viewBox="0 0 190 96">
  <g id="Grupo_1079759" data-name="Grupo 1079759" transform="translate(-1230 -2762)">
    <rect id="Rectángulo_385843" data-name="Rectángulo 385843" width="170" height="36" rx="10" transform="translate(1240 2822)" fill="#ffce00"/>
    <rect id="Rectángulo_385845" data-name="Rectángulo 385845" width="170" height="36" rx="10" transform="translate(1240 2762)" fill="#3ee2a8"/>
    <rect id="Rectángulo_385844" data-name="Rectángulo 385844" width="190" height="66" rx="10" transform="translate(1230 2777)" fill="#b3bad6"/>
    <circle id="Elipse_10129" data-name="Elipse 10129" cx="41" cy="41" r="41" transform="translate(1284 2769)" fill="#fff" opacity="0.6"/>
    <g id="location" transform="translate(1299.875 2784.875)">
      <path id="Trazado_838514" data-name="Trazado 838514" d="M50.2,49.253l-7.361-19.39a.736.736,0,0,0-.327-.38l-7.84-4.417,2.289-3.629a13.986,13.986,0,1,0-23.675,0l2.288,3.629L7.736,29.483a.736.736,0,0,0-.327.38L.048,49.253a.736.736,0,0,0,1.049.9l11.833-6.666,11.833,6.666a.736.736,0,0,0,.723,0l11.833-6.666,11.833,6.666a.736.736,0,0,0,1.05-.9ZM25.861,38.15a2.2,2.2,0,0,0,1.131-.9l6.3-9.994,3.192,15.017L25.861,48.254Zm-11.328-17.5a12.513,12.513,0,1,1,21.184,0c-.1.156-9.8,15.536-9.966,15.8l0,.007a.735.735,0,0,1-1.246,0c-.1-.156-9.816-15.567-9.965-15.8l0-.005ZM8.691,30.634l6.862-3.866-1.2,5.624a.736.736,0,1,0,1.44.306l1.158-5.447,6.3,10a2.211,2.211,0,0,0,1.131.9v10.1L13.763,42.268l1.422-6.689a.736.736,0,1,0-1.44-.306L12.28,42.166,2.146,47.875ZM37.97,42.166,34.7,26.769l6.861,3.866L48.1,47.875Z" transform="translate(0)" fill="#1682fb"/>
      <path id="Trazado_838515" data-name="Trazado 838515" d="M189.695,68.1a8.1,8.1,0,1,0-8.1,8.1A8.106,8.106,0,0,0,189.695,68.1Zm-14.721,0a6.625,6.625,0,1,1,6.625,6.625A6.632,6.632,0,0,1,174.973,68.1Z" transform="translate(-156.473 -54.111)" fill="#1682fb"/>
      <path id="Trazado_838516" data-name="Trazado 838516" d="M213.806,95.153a5.153,5.153,0,1,0-5.153,5.153A5.158,5.158,0,0,0,213.806,95.153Zm-8.833,0a3.68,3.68,0,1,1,3.68,3.68A3.684,3.684,0,0,1,204.973,95.153Z" transform="translate(-183.528 -81.166)" fill="#1682fb"/>
    </g>
  </g>
</svg>
