<svg xmlns="http://www.w3.org/2000/svg" width="150" height="150" viewBox="0 0 150 150">
  <g id="Grupo_1079756" data-name="Grupo 1079756" transform="translate(-416 -2914)">
    <circle id="Elipse_156" data-name="Elipse 156" cx="75" cy="75" r="75" transform="translate(416 2914)" fill="#fff" opacity="0.5"/>
    <g id="lab" transform="translate(450.929 2948.929)">
      <g id="Grupo_1079707" data-name="Grupo 1079707" transform="translate(4.781 14.864)">
        <path id="Trazado_838435" data-name="Trazado 838435" d="M4,12H74.58V69.977H4Z" transform="translate(-4 -12)" fill="#b9c0c9"/>
      </g>
      <g id="Grupo_1079708" data-name="Grupo 1079708" transform="translate(4.781 14.864)">
        <path id="Trazado_838436" data-name="Trazado 838436" d="M4,12H70.8V69.977H4Z" transform="translate(-4 -12)" fill="#d5d9df"/>
      </g>
      <g id="Grupo_1079709" data-name="Grupo 1079709" transform="translate(14.864 57.716)">
        <path id="Trazado_838437" data-name="Trazado 838437" d="M12,61.124V53.562a7.562,7.562,0,1,1,15.124,0v7.562Z" transform="translate(-12 -46)" fill="#46484c"/>
      </g>
      <g id="Grupo_1079710" data-name="Grupo 1079710" transform="translate(14.864 57.965)">
        <path id="Trazado_838438" data-name="Trazado 838438" d="M17.672,46.2A7.558,7.558,0,0,0,12,53.511v7.562H23.343V53.511A7.558,7.558,0,0,0,17.672,46.2Z" transform="translate(-12 -46.197)" fill="#5d6065"/>
      </g>
      <g id="Grupo_1079711" data-name="Grupo 1079711" transform="translate(50.154 57.716)">
        <path id="Trazado_838439" data-name="Trazado 838439" d="M40,61.124V53.562a7.562,7.562,0,0,1,15.124,0v7.562Z" transform="translate(-40 -46)" fill="#46484c"/>
      </g>
      <g id="Grupo_1079712" data-name="Grupo 1079712" transform="translate(50.154 57.965)">
        <path id="Trazado_838440" data-name="Trazado 838440" d="M45.672,46.2A7.558,7.558,0,0,0,40,53.511v7.562H51.343V53.511A7.558,7.558,0,0,0,45.672,46.2Z" transform="translate(-40 -46.197)" fill="#5d6065"/>
      </g>
      <g id="Grupo_1079713" data-name="Grupo 1079713" transform="translate(50.154 47.633)">
        <path id="Trazado_838441" data-name="Trazado 838441" d="M40,38H55.124v5.041H40Z" transform="translate(-40 -38)" fill="#1f80aa"/>
      </g>
      <g id="Grupo_1079714" data-name="Grupo 1079714" transform="translate(50.154 47.633)">
        <path id="Trazado_838442" data-name="Trazado 838442" d="M40,38H51.343v5.041H40Z" transform="translate(-40 -38)" fill="#29abe2"/>
      </g>
      <g id="Grupo_1079715" data-name="Grupo 1079715" transform="translate(14.864 47.633)">
        <path id="Trazado_838443" data-name="Trazado 838443" d="M12,38H27.124v5.041H12Z" transform="translate(-12 -38)" fill="#1f80aa"/>
      </g>
      <g id="Grupo_1079716" data-name="Grupo 1079716" transform="translate(14.864 47.633)">
        <path id="Trazado_838444" data-name="Trazado 838444" d="M12,38H23.343v5.041H12Z" transform="translate(-12 -38)" fill="#29abe2"/>
      </g>
      <g id="Grupo_1079717" data-name="Grupo 1079717" transform="translate(2.26 72.841)">
        <path id="Trazado_838445" data-name="Trazado 838445" d="M2,58H77.622v5.041H2Z" transform="translate(-2 -58)" fill="#5d6065"/>
      </g>
      <g id="Grupo_1079718" data-name="Grupo 1079718" transform="translate(2.26 72.841)">
        <path id="Trazado_838446" data-name="Trazado 838446" d="M2,58H73.841v5.041H2Z" transform="translate(-2 -58)" fill="#8b9097"/>
      </g>
      <g id="Grupo_1079719" data-name="Grupo 1079719" transform="translate(29.988 67.799)">
        <path id="Trazado_838447" data-name="Trazado 838447" d="M24,54H44.166v5.041H24Z" transform="translate(-24 -54)" fill="#1f80aa"/>
      </g>
      <g id="Grupo_1079720" data-name="Grupo 1079720" transform="translate(29.988 67.799)">
        <path id="Trazado_838448" data-name="Trazado 838448" d="M24,54H40.385v5.041H24Z" transform="translate(-24 -54)" fill="#29abe2"/>
      </g>
      <g id="Grupo_1079721" data-name="Grupo 1079721" transform="translate(4.781 67.799)">
        <path id="Trazado_838449" data-name="Trazado 838449" d="M4,54H14.083v5.041H4Z" transform="translate(-4 -54)" fill="#1f80aa"/>
      </g>
      <g id="Grupo_1079722" data-name="Grupo 1079722" transform="translate(4.781 67.799)">
        <path id="Trazado_838450" data-name="Trazado 838450" d="M4,54h6.3v5.041H4Z" transform="translate(-4 -54)" fill="#29abe2"/>
      </g>
      <g id="Grupo_1079723" data-name="Grupo 1079723" transform="translate(65.279 67.799)">
        <path id="Trazado_838451" data-name="Trazado 838451" d="M52,54H62.083v5.041H52Z" transform="translate(-52 -54)" fill="#1f80aa"/>
      </g>
      <g id="Grupo_1079724" data-name="Grupo 1079724" transform="translate(65.279 67.799)">
        <path id="Trazado_838452" data-name="Trazado 838452" d="M52,54h6.3v5.041H52Z" transform="translate(-52 -54)" fill="#29abe2"/>
      </g>
      <g id="Grupo_1079725" data-name="Grupo 1079725" transform="translate(4.781 27.468)">
        <path id="Trazado_838453" data-name="Trazado 838453" d="M4,22H21.645V37.124H4Z" transform="translate(-4 -22)" fill="#a2dbf7"/>
      </g>
      <g id="Grupo_1079726" data-name="Grupo 1079726" transform="translate(4.781 27.468)">
        <path id="Trazado_838454" data-name="Trazado 838454" d="M4,22H17.864V37.124H4Z" transform="translate(-4 -22)" fill="#b5e2f9"/>
      </g>
      <g id="Grupo_1079727" data-name="Grupo 1079727" transform="translate(22.426 27.468)">
        <path id="Trazado_838455" data-name="Trazado 838455" d="M18,22H35.645V37.124H18Z" transform="translate(-18 -22)" fill="#a2dbf7"/>
      </g>
      <g id="Grupo_1079728" data-name="Grupo 1079728" transform="translate(22.426 27.468)">
        <path id="Trazado_838456" data-name="Trazado 838456" d="M18,22H31.864V37.124H18Z" transform="translate(-18 -22)" fill="#b5e2f9"/>
      </g>
      <g id="Grupo_1079729" data-name="Grupo 1079729" transform="translate(40.071 27.468)">
        <path id="Trazado_838457" data-name="Trazado 838457" d="M32,22H49.645V37.124H32Z" transform="translate(-32 -22)" fill="#a2dbf7"/>
      </g>
      <g id="Grupo_1079730" data-name="Grupo 1079730" transform="translate(40.071 27.468)">
        <path id="Trazado_838458" data-name="Trazado 838458" d="M32,22H45.864V37.124H32Z" transform="translate(-32 -22)" fill="#b5e2f9"/>
      </g>
      <g id="Grupo_1079731" data-name="Grupo 1079731" transform="translate(57.716 27.468)">
        <path id="Trazado_838459" data-name="Trazado 838459" d="M46,22H63.645V37.124H46Z" transform="translate(-46 -22)" fill="#a2dbf7"/>
      </g>
      <g id="Grupo_1079732" data-name="Grupo 1079732" transform="translate(57.716 27.468)">
        <path id="Trazado_838460" data-name="Trazado 838460" d="M46,22H59.864V37.124H46Z" transform="translate(-46 -22)" fill="#b5e2f9"/>
      </g>
      <g id="Grupo_1079733" data-name="Grupo 1079733" transform="translate(19.905 2.26)">
        <path id="Trazado_838461" data-name="Trazado 838461" d="M16,2H56.332V22.166H16Z" transform="translate(-16 -2)" fill="#1f80aa"/>
      </g>
      <g id="Grupo_1079734" data-name="Grupo 1079734" transform="translate(19.905 2.26)">
        <path id="Trazado_838462" data-name="Trazado 838462" d="M16,2H52.551V22.166H16Z" transform="translate(-16 -2)" fill="#29abe2"/>
      </g>
      <g id="Grupo_1079735" data-name="Grupo 1079735" transform="translate(1 71.58)">
        <path id="Trazado_838463" data-name="Trazado 838463" d="M77.882,64.562H2.26A1.259,1.259,0,0,1,1,63.3V58.26A1.259,1.259,0,0,1,2.26,57H77.882a1.259,1.259,0,0,1,1.26,1.26V63.3A1.259,1.259,0,0,1,77.882,64.562ZM3.521,62.041h73.1V59.521H3.521Z" transform="translate(-1 -57)"/>
      </g>
      <g id="Grupo_1079736" data-name="Grupo 1079736" transform="translate(60.237 13.604)">
        <path id="Trazado_838464" data-name="Trazado 838464" d="M64.385,70.237H61.864V13.521H48V11H63.124a1.259,1.259,0,0,1,1.26,1.26Z" transform="translate(-48 -11)"/>
      </g>
      <g id="Grupo_1079737" data-name="Grupo 1079737" transform="translate(3.521 13.604)">
        <path id="Trazado_838465" data-name="Trazado 838465" d="M5.521,70.237H3V12.26A1.259,1.259,0,0,1,4.26,11H19.385v2.521H5.521Z" transform="translate(-3 -11)"/>
      </g>
      <g id="Grupo_1079738" data-name="Grupo 1079738" transform="translate(18.645 1)">
        <path id="Trazado_838466" data-name="Trazado 838466" d="M56.592,23.687H16.26A1.259,1.259,0,0,1,15,22.426V2.26A1.259,1.259,0,0,1,16.26,1H56.592a1.259,1.259,0,0,1,1.26,1.26V22.426A1.259,1.259,0,0,1,56.592,23.687ZM17.521,21.166H55.332V3.521H17.521Z" transform="translate(-15 -1)"/>
      </g>
      <g id="Grupo_1079739" data-name="Grupo 1079739" transform="translate(13.604 56.456)">
        <path id="Trazado_838467" data-name="Trazado 838467" d="M28.645,61.385H26.124V53.823a6.3,6.3,0,1,0-12.6,0v7.562H11V53.823a8.823,8.823,0,1,1,17.645,0Z" transform="translate(-11 -45)"/>
      </g>
      <g id="Grupo_1079740" data-name="Grupo 1079740" transform="translate(4.781 41.332)">
        <path id="Trazado_838468" data-name="Trazado 838468" d="M4,33H74.58v2.521H4Z" transform="translate(-4 -33)"/>
      </g>
      <g id="Grupo_1079741" data-name="Grupo 1079741" transform="translate(4.781 26.207)">
        <path id="Trazado_838469" data-name="Trazado 838469" d="M4,21H74.58v2.521H4Z" transform="translate(-4 -21)"/>
      </g>
      <g id="Grupo_1079742" data-name="Grupo 1079742" transform="translate(21.166 27.468)">
        <path id="Trazado_838470" data-name="Trazado 838470" d="M17,22h2.521V37.124H17Z" transform="translate(-17 -22)"/>
      </g>
      <g id="Grupo_1079743" data-name="Grupo 1079743" transform="translate(56.456 27.468)">
        <path id="Trazado_838471" data-name="Trazado 838471" d="M45,22h2.521V37.124H45Z" transform="translate(-45 -22)"/>
      </g>
      <g id="Grupo_1079744" data-name="Grupo 1079744" transform="translate(38.811 27.468)">
        <path id="Trazado_838472" data-name="Trazado 838472" d="M31,22h2.521V37.124H31Z" transform="translate(-31 -22)"/>
      </g>
      <g id="Grupo_1079745" data-name="Grupo 1079745" transform="translate(23.687 6.041)">
        <path id="Trazado_838473" data-name="Trazado 838473" d="M26.562,17.6h-6.3A1.259,1.259,0,0,1,19,16.343V5h2.521V15.083h5.041Z" transform="translate(-19 -5)"/>
      </g>
      <g id="Grupo_1079746" data-name="Grupo 1079746" transform="translate(33.769 6.041)">
        <path id="Trazado_838474" data-name="Trazado 838474" d="M37.083,17.6H34.562V10.041a2.521,2.521,0,0,0-5.041,0V17.6H27V10.041a5.041,5.041,0,0,1,10.083,0Z" transform="translate(-27 -5)"/>
      </g>
      <g id="Grupo_1079747" data-name="Grupo 1079747" transform="translate(46.373 6.041)">
        <path id="Trazado_838475" data-name="Trazado 838475" d="M43.3,12.562H38.26A1.259,1.259,0,0,1,37,11.3V6.26A1.259,1.259,0,0,1,38.26,5H43.3a3.781,3.781,0,1,1,0,7.562Zm-3.781-2.521H43.3a1.26,1.26,0,1,0,0-2.521H39.521Z" transform="translate(-37 -5)"/>
      </g>
      <g id="Grupo_1079748" data-name="Grupo 1079748" transform="translate(46.373 11.083)">
        <path id="Trazado_838476" data-name="Trazado 838476" d="M43.3,16.562H38.26A1.259,1.259,0,0,1,37,15.3V10.26A1.259,1.259,0,0,1,38.26,9H43.3a3.781,3.781,0,1,1,0,7.562Zm-3.781-2.521H43.3a1.26,1.26,0,1,0,0-2.521H39.521Z" transform="translate(-37 -9)"/>
      </g>
      <g id="Grupo_1079749" data-name="Grupo 1079749" transform="translate(35.03 13.604)">
        <path id="Trazado_838477" data-name="Trazado 838477" d="M28,11h7.562v2.521H28Z" transform="translate(-28 -11)"/>
      </g>
      <g id="Grupo_1079750" data-name="Grupo 1079750" transform="translate(13.604 46.373)">
        <path id="Trazado_838478" data-name="Trazado 838478" d="M27.385,44.562H12.26A1.259,1.259,0,0,1,11,43.3V38.26A1.259,1.259,0,0,1,12.26,37H27.385a1.259,1.259,0,0,1,1.26,1.26V43.3A1.259,1.259,0,0,1,27.385,44.562ZM13.521,42.041h12.6V39.521h-12.6Z" transform="translate(-11 -37)"/>
      </g>
      <g id="Grupo_1079751" data-name="Grupo 1079751" transform="translate(48.894 56.456)">
        <path id="Trazado_838479" data-name="Trazado 838479" d="M56.645,61.385H54.124V53.823a6.3,6.3,0,1,0-12.6,0v7.562H39V53.823a8.823,8.823,0,1,1,17.645,0Z" transform="translate(-39 -45)"/>
      </g>
      <g id="Grupo_1079752" data-name="Grupo 1079752" transform="translate(48.894 46.373)">
        <path id="Trazado_838480" data-name="Trazado 838480" d="M55.385,44.562H40.26A1.259,1.259,0,0,1,39,43.3V38.26A1.259,1.259,0,0,1,40.26,37H55.385a1.259,1.259,0,0,1,1.26,1.26V43.3A1.259,1.259,0,0,1,55.385,44.562ZM41.521,42.041h12.6V39.521h-12.6Z" transform="translate(-39 -37)"/>
      </g>
      <g id="Grupo_1079753" data-name="Grupo 1079753" transform="translate(4.781 66.539)">
        <path id="Trazado_838481" data-name="Trazado 838481" d="M4,53H14.083v2.521H4Z" transform="translate(-4 -53)"/>
      </g>
      <g id="Grupo_1079754" data-name="Grupo 1079754" transform="translate(29.988 66.539)">
        <path id="Trazado_838482" data-name="Trazado 838482" d="M24,53H44.166v2.521H24Z" transform="translate(-24 -53)"/>
      </g>
      <g id="Grupo_1079755" data-name="Grupo 1079755" transform="translate(65.279 66.539)">
        <path id="Trazado_838483" data-name="Trazado 838483" d="M52,53H62.083v2.521H52Z" transform="translate(-52 -53)"/>
      </g>
    </g>
  </g>
</svg>
