<svg xmlns="http://www.w3.org/2000/svg" width="150" height="150" viewBox="0 0 150 150">
  <g id="Grupo_1079757" data-name="Grupo 1079757" transform="translate(-1029 -2914)">
    <circle id="Elipse_10218" data-name="Elipse 10218" cx="75" cy="75" r="75" transform="translate(1029 2914)" fill="#fff" opacity="0.5"/>
    <g id="park" transform="translate(1066 2951)">
      <path id="Trazado_838484" data-name="Trazado 838484" d="M7.5,156.981H27.551a7.339,7.339,0,0,1,7.519.011,5.269,5.269,0,0,1,6-4.9,5.206,5.206,0,0,1,4.4,4.812,4.844,4.844,0,0,1,6.285,1.807,7.45,7.45,0,0,1,12.657,4.07,5.868,5.868,0,0,1,7.8,1.1,8.85,8.85,0,0,1,8.195-7.421v31.109H7.5Z" transform="translate(-6.4 -129.736)" fill="#b3e897"/>
      <path id="Trazado_838485" data-name="Trazado 838485" d="M464.5,184.953v28.375h5.867V182.219A8.811,8.811,0,0,0,464.5,184.953Z" transform="translate(-396.367 -155.491)" fill="#a4de6a"/>
      <path id="Trazado_838486" data-name="Trazado 838486" d="M7.5,446.251H80.4V454.8H7.5Z" transform="translate(-6.4 -380.795)" fill="#298b65"/>
      <path id="Trazado_838487" data-name="Trazado 838487" d="M464.5,446.251h5.867V454.8H464.5Z" transform="translate(-396.367 -380.795)" fill="#21825e"/>
      <path id="Trazado_838488" data-name="Trazado 838488" d="M158.465,252.075h28.613v6.55H158.465Z" transform="translate(-135.221 -215.101)" fill="#de9252"/>
      <path id="Trazado_838489" data-name="Trazado 838489" d="M313.535,252.075H319.4v6.55h-5.867Z" transform="translate(-267.546 -215.101)" fill="#d18545"/>
      <path id="Trazado_838490" data-name="Trazado 838490" d="M135.651,327.321h35.305v4.461H135.651Z" transform="translate(-115.754 -279.31)" fill="#de9252"/>
      <path id="Trazado_838491" data-name="Trazado 838491" d="M336.349,327.321h5.867v4.461h-5.867Z" transform="translate(-287.014 -279.31)" fill="#d18545"/>
      <path id="Trazado_838492" data-name="Trazado 838492" d="M408.5,364.521h11.588v4.369H408.5Z" transform="translate(-348.582 -311.053)" fill="#a3a3a3"/>
      <path id="Trazado_838493" data-name="Trazado 838493" d="M429.44,107.254a3.19,3.19,0,0,1-3.19-3.19V98.307h6.381v5.757A3.19,3.19,0,0,1,429.44,107.254Z" transform="translate(-363.728 -83.887)" fill="#ffe563"/>
      <path id="Trazado_838494" data-name="Trazado 838494" d="M413.333,75.189H423.5L420.312,72a2.673,2.673,0,0,0-3.778,0Z" transform="translate(-352.706 -60.769)" fill="#a3a3a3"/>
      <path id="Trazado_838495" data-name="Trazado 838495" d="M428.5,334.735h5.72V339.1H428.5Z" transform="translate(-365.648 -285.636)" fill="#f2f2f2"/>
      <path id="Trazado_838496" data-name="Trazado 838496" d="M17.257,55.988A9.757,9.757,0,0,1,7.5,46.231V30.564a9.757,9.757,0,0,1,19.514,0V46.23A9.757,9.757,0,0,1,17.257,55.988Z" transform="translate(-6.4 -17.755)" fill="#45bf64"/>
      <circle id="Elipse_10217" data-name="Elipse 10217" cx="4.897" cy="4.897" r="4.897" transform="translate(43.947 1.1)" fill="#ffe563"/>
      <path id="Trazado_838497" data-name="Trazado 838497" d="M7.5,394.307H80.4v7.619H7.5Z" transform="translate(-6.4 -336.47)" fill="#ffeede"/>
      <path id="Trazado_838498" data-name="Trazado 838498" d="M464.5,394.307h5.867v7.619H464.5Z" transform="translate(-396.367 -336.47)" fill="#ffe2c7"/>
      <path id="Trazado_838499" data-name="Trazado 838499" d="M1.1,68.091a1.1,1.1,0,0,0,0,2.2H74a1.1,1.1,0,0,0,0-2.2H72.606V64.822a1.1,1.1,0,0,0-1.1-1.1H69.673V60.453a1.1,1.1,0,0,0-1.1-1.1h-1.76V45.94a1.094,1.094,0,0,0,.079-.262,7.8,7.8,0,0,1,7.176-6.5,1.1,1.1,0,1,0-.134-2.2,9.855,9.855,0,0,0-7.12,3.675V35.678A4.3,4.3,0,0,0,70,31.531V26.874H70.8A1.116,1.116,0,0,0,71.575,25l-3.191-3.191a3.778,3.778,0,0,0-5.333,0L59.851,25a1.115,1.115,0,0,0,.777,1.879h.795v4.657a4.3,4.3,0,0,0,3.19,4.147v7.459a6.947,6.947,0,0,0-5.879-.356,8.558,8.558,0,0,0-13.227-4.045,5.9,5.9,0,0,0-5.6-1.679,6.352,6.352,0,0,0-5.075-4.43,6.308,6.308,0,0,0-6.989,4.363,8.365,8.365,0,0,0-6.131.1V24.163A10.865,10.865,0,0,0,8.334,13.6a1.1,1.1,0,0,0,.51,2.14,8.665,8.665,0,0,1,10.671,8.422V39.83A8.669,8.669,0,0,1,12.042,48.4V41.2h0V34.094l4.318-4.318c.973-.973-.538-2.573-1.556-1.556l-2.763,2.762V23.427a1.1,1.1,0,0,0-2.2,0V38.546l-2.7-2.7c-.974-.973-2.574.538-1.556,1.556l4.255,4.255v6.767A8.668,8.668,0,0,1,2.2,39.83V24.163a8.618,8.618,0,0,1,2.4-5.978c.951-1-.6-2.561-1.591-1.519a10.808,10.808,0,0,0-3,7.5V39.83A10.871,10.871,0,0,0,9.842,50.638V68.091Zm38.8-3.164a1.1,1.1,0,0,0,0-2.2H21v-2.26H54.1v2.26H45.764a1.1,1.1,0,0,0,0,2.2h3.4v3.164H25.932V64.926ZM24.344,53.778V49.429H50.756v4.349Zm19.218,2.2v2.287H31.538V55.978ZM70.406,68.091H61.019V65.922h9.387Zm-2.934-4.369h-3.52V61.553h3.52ZM64.605,23.36a1.575,1.575,0,0,1,2.223,0l1.313,1.313H63.288Zm-.983,8.171V26.874H67.8v4.657a2.09,2.09,0,1,1-4.18,0Zm-51.58,19.09A10.872,10.872,0,0,0,21.715,39.83v-.286l.005,0a6.162,6.162,0,0,1,6.379.009c1.089.662,1.587-.5,1.714-1.32A4.1,4.1,0,0,1,34.5,34.8,4.128,4.128,0,0,1,37.966,38.6a1.11,1.11,0,0,0,1.6.911A3.7,3.7,0,0,1,44.406,40.9a1.11,1.11,0,0,0,1.726.207,6.35,6.35,0,0,1,10.788,3.469,1.11,1.11,0,0,0,1.7.738,4.766,4.766,0,0,1,5.989.521V59.353h-1.76a1.1,1.1,0,0,0-1.1,1.1v3.269H59.919a1.1,1.1,0,0,0-1.1,1.1v3.269h-7.45V64.926H55.2a1.1,1.1,0,0,0,1.1-1.1V59.365a1.1,1.1,0,0,0-1.1-1.1h-9.44V55.978h6.094a1.1,1.1,0,0,0,1.1-1.1v-6.55a1.1,1.1,0,0,0-1.1-1.1H23.244a1.1,1.1,0,0,0-1.1,1.1v6.55a1.1,1.1,0,0,0,1.1,1.1h6.094v2.287H19.9a1.1,1.1,0,0,0-1.1,1.1v4.461a1.1,1.1,0,0,0,1.1,1.1h3.835v3.164H12.042Z" transform="translate(0 -11.354)"/>
      <path id="Trazado_838500" data-name="Trazado 838500" d="M298.112,11.994a6,6,0,1,0-6-6A6,6,0,0,0,298.112,11.994Zm0-9.794a3.8,3.8,0,1,1-3.8,3.8,3.8,3.8,0,0,1,3.8-3.8Z" transform="translate(-249.268)"/>
      <path id="Trazado_838501" data-name="Trazado 838501" d="M469.556,438.75h-4.95a1.1,1.1,0,0,0,0,2.2h4.95A1.1,1.1,0,0,0,469.556,438.75Z" transform="translate(-395.556 -374.394)"/>
      <path id="Trazado_838502" data-name="Trazado 838502" d="M63.254,438.75H1.356a1.1,1.1,0,0,0,0,2.2h61.9A1.1,1.1,0,0,0,63.254,438.75Z" transform="translate(-0.256 -374.394)"/>
      <path id="Trazado_838503" data-name="Trazado 838503" d="M17.114,467.876a1.1,1.1,0,0,0,0,2.2A1.1,1.1,0,0,0,17.114,467.876Z" transform="translate(-13.697 -399.248)"/>
      <path id="Trazado_838504" data-name="Trazado 838504" d="M63.655,497a1.1,1.1,0,0,0,0,2.2A1.1,1.1,0,0,0,63.655,497Z" transform="translate(-53.411 -424.1)"/>
      <path id="Trazado_838505" data-name="Trazado 838505" d="M110.195,467.876a1.1,1.1,0,0,0,0,2.2A1.1,1.1,0,0,0,110.195,467.876Z" transform="translate(-93.125 -399.248)"/>
      <path id="Trazado_838506" data-name="Trazado 838506" d="M156.736,497a1.1,1.1,0,0,0,0,2.2A1.1,1.1,0,0,0,156.736,497Z" transform="translate(-132.839 -424.1)"/>
      <path id="Trazado_838507" data-name="Trazado 838507" d="M203.277,467.876a1.1,1.1,0,0,0,0,2.2A1.1,1.1,0,0,0,203.277,467.876Z" transform="translate(-172.553 -399.248)"/>
      <path id="Trazado_838508" data-name="Trazado 838508" d="M249.818,497a1.1,1.1,0,0,0,0,2.2A1.1,1.1,0,0,0,249.818,497Z" transform="translate(-212.268 -424.1)"/>
      <path id="Trazado_838509" data-name="Trazado 838509" d="M296.359,467.876a1.1,1.1,0,0,0,0,2.2A1.1,1.1,0,0,0,296.359,467.876Z" transform="translate(-251.982 -399.248)"/>
      <path id="Trazado_838510" data-name="Trazado 838510" d="M342.9,497a1.1,1.1,0,0,0,0,2.2A1.1,1.1,0,0,0,342.9,497Z" transform="translate(-291.697 -424.1)"/>
      <path id="Trazado_838511" data-name="Trazado 838511" d="M389.441,467.876a1.1,1.1,0,0,0,0,2.2A1.1,1.1,0,0,0,389.441,467.876Z" transform="translate(-331.411 -399.248)"/>
      <path id="Trazado_838512" data-name="Trazado 838512" d="M435.981,497a1.1,1.1,0,0,0,0,2.2A1.1,1.1,0,0,0,435.981,497Z" transform="translate(-371.125 -424.1)"/>
      <path id="Trazado_838513" data-name="Trazado 838513" d="M482.522,467.876a1.1,1.1,0,0,0,0,2.2A1.1,1.1,0,0,0,482.522,467.876Z" transform="translate(-410.839 -399.248)"/>
    </g>
  </g>
</svg>
