<svg xmlns="http://www.w3.org/2000/svg" width="190" height="192" viewBox="0 0 190 192">
  <g id="Grupo_1079193" data-name="Grupo 1079193" transform="translate(-1230 -1947)">
    <rect id="Rectángulo_385843" data-name="Rectángulo 385843" width="170" height="36" rx="10" transform="translate(1240 2103)" fill="#ffce00"/>
    <rect id="Rectángulo_385845" data-name="Rectángulo 385845" width="170" height="36" rx="10" transform="translate(1240 1947)" fill="#3ee2a8"/>
    <rect id="Rectángulo_385844" data-name="Rectángulo 385844" width="190" height="162" rx="10" transform="translate(1230 1962)" fill="#b3bad6"/>
    <circle id="Elipse_10129" data-name="Elipse 10129" cx="71" cy="71" r="71" transform="translate(1254 1972)" fill="#fff" opacity="0.6"/>
    <g id="hierarchy-structure" transform="translate(1276 1999.09)">
      <path id="Trazado_835953" data-name="Trazado 835953" d="M12.6,57.8A2.582,2.582,0,0,0,10,60.4v4.3H5.1a2.9,2.9,0,0,0-2.9,2.9V80.5a2.9,2.9,0,0,0,2.9,2.9H18a2.9,2.9,0,0,0,2.9-2.9v-13A2.9,2.9,0,0,0,18,64.6H12V60.3a.576.576,0,0,1,.6-.6H35.8v4.8H30.4a2.9,2.9,0,0,0-2.9,2.9V80.3a2.9,2.9,0,0,0,2.9,2.9H43.3a2.9,2.9,0,0,0,2.9-2.9V67.5a2.9,2.9,0,0,0-2.9-2.9H37.9V59.8H61v4.8H55.6a2.9,2.9,0,0,0-2.9,2.9V80.4a2.9,2.9,0,0,0,2.9,2.9H68.5a2.9,2.9,0,0,0,2.9-2.9V67.5a2.9,2.9,0,0,0-2.9-2.9H63V59.8H85.7a.576.576,0,0,1,.6.6v4.3H80.9A2.9,2.9,0,0,0,78,67.6V80.5a2.9,2.9,0,0,0,2.9,2.9H93.8a2.9,2.9,0,0,0,2.9-2.9v-13a2.9,2.9,0,0,0-2.9-2.9H88.4V60.3a2.582,2.582,0,0,0-2.6-2.6H81.6V52.3h6.3a2.9,2.9,0,0,0,2.9-2.9V36.7a2.9,2.9,0,0,0-2.9-2.9H82.5V31.4a2.9,2.9,0,0,0-2.9-2.9H51v-4h5.4a2.9,2.9,0,0,0,2.9-2.9V8.7a2.9,2.9,0,0,0-2.9-2.9H43.6a2.9,2.9,0,0,0-2.9,2.9V21.6a2.9,2.9,0,0,0,2.9,2.9H49v4H20.5a2.9,2.9,0,0,0-2.9,2.9v2.4H12.2a2.9,2.9,0,0,0-2.9,2.9V49.6a2.9,2.9,0,0,0,2.9,2.9h4.6v5.4H12.6Zm5.3,8.8a.9.9,0,0,1,.9.9V80.4a.9.9,0,0,1-.9.9H5.1a.9.9,0,0,1-.9-.9V67.5a.9.9,0,0,1,.9-.9Zm75.8,0a.9.9,0,0,1,.9.9V80.4a.9.9,0,0,1-.9.9H80.9a.9.9,0,0,1-.9-.9V67.5a.9.9,0,0,1,.9-.9Zm-50.5,0a.9.9,0,0,1,.9.9V80.4a.9.9,0,0,1-.9.9H30.3a.9.9,0,0,1-.9-.9V67.5a.9.9,0,0,1,.9-.9Zm25.3,0a.9.9,0,0,1,.9.9V80.4a.9.9,0,0,1-.9.9H55.6a.9.9,0,0,1-.9-.9V67.5a.9.9,0,0,1,.9-.9ZM87.8,35.8a.9.9,0,0,1,.9.9V49.6a.9.9,0,0,1-.9.9H75a.9.9,0,0,1-.9-.9V36.7a.9.9,0,0,1,.9-.9Zm-8.2-5.3a.9.9,0,0,1,.9.9v2.4H75a2.9,2.9,0,0,0-2.9,2.9V49.6A2.9,2.9,0,0,0,75,52.5h4.6v5.4H50.2V52.5h6.3a2.9,2.9,0,0,0,2.9-2.9V36.7a2.9,2.9,0,0,0-2.9-2.9H51V30.5Zm-36-8a.9.9,0,0,1-.9-.9V8.7a.9.9,0,0,1,.9-.9H56.5a.9.9,0,0,1,.9.9V21.6a.9.9,0,0,1-.9.9ZM56.4,35.8a.9.9,0,0,1,.9.9V49.6a.9.9,0,0,1-.9.9H43.6a.9.9,0,0,1-.9-.9V36.7a.9.9,0,0,1,.9-.9ZM19.6,31.4a.9.9,0,0,1,.9-.9H49v3.3H43.6a2.9,2.9,0,0,0-2.9,2.9V49.6a2.9,2.9,0,0,0,2.9,2.9h4.6v5.4H18.7V52.5H25a2.9,2.9,0,0,0,2.9-2.9V36.7A2.9,2.9,0,0,0,25,33.8H19.6ZM12.2,50.5a.9.9,0,0,1-.9-.9V36.7a.9.9,0,0,1,.9-.9H25a.9.9,0,0,1,.9.9V49.6a.9.9,0,0,1-.9.9Z" transform="translate(-1 -5.8)" fill="#1682fb"/>
      <path id="Trazado_835954" data-name="Trazado 835954" d="M2,94.2H7.3a1,1,0,0,0,0-2H2a1,1,0,0,0,0,2Z" transform="translate(-1 -5.8)" fill="#1682fb"/>
      <path id="Trazado_835955" data-name="Trazado 835955" d="M98,92.2H12.3a1,1,0,0,0,0,2H98a1,1,0,0,0,0-2Z" transform="translate(-1 -5.8)" fill="#1682fb"/>
    </g>
  </g>
</svg>
